<?xml version="1.0" encoding="utf-8"?>
<!-- Generator: Adobe Illustrator 24.3.0, SVG Export Plug-In . SVG Version: 6.00 Build 0)  -->
<svg version="1.1" id="Layer_3" xmlns="http://www.w3.org/2000/svg" xmlns:xlink="http://www.w3.org/1999/xlink" x="0px" y="0px"
	 viewBox="0 0 1000 150" style="enable-background:new 0 0 1000 150;" xml:space="preserve">
<style type="text/css">
	.st0{fill:#FFFFFF;}
</style>
<path class="st0" d="M9.6,34C8.2,38.1,4.8,46.3,0,54.6v8.5c3.6-3.5,6.8-7.3,9.6-11V34z M0,65v6.7c3.2-1.2,6.5-2.3,9.6-3.7V55.8
	C6.6,59,3.4,62.1,0,65 M9.6,71c-3.2,0.8-6.4,1.7-9.6,2.4v6.3c3.2,0.7,6.5,1.5,9.6,2.4V71z M9.6,85.2c-3.2-1.4-6.4-2.6-9.6-3.7v6.6
	c3.5,2.8,6.7,6,9.6,9.2V85.2z M9.6,101.1c-2.8-3.7-6.2-7.4-9.6-11v8.5c4.8,8.3,8.2,16.5,9.6,20.5V101.1z"/>
<polygon class="st0" points="803.7,96.6 803.7,65.9 797.9,65.9 797.9,56.7 820,56.7 820,65.9 814.3,65.9 814.3,96.6 "/>
<polygon class="st0" points="852.7,96.6 852.7,56.7 872.9,56.7 872.9,65.9 863.3,65.9 863.3,71.8 872.4,71.8 872.4,81 863.3,81 
	863.3,87.4 872.9,87.4 872.9,96.6 "/>
<path class="st0" d="M888.6,68.1l-2,13.6h4L888.6,68.1z M892.6,96.6l-0.8-5.6h-6.4l-0.7,5.6h-10.8l8.7-39.9h12.2l8.8,39.9H892.6z"/>
<polygon class="st0" points="906.8,96.6 906.8,65.9 901,65.9 901,56.7 923.2,56.7 923.2,65.9 917.4,65.9 917.4,96.6 "/>
<g>
	<path class="st0" d="M940.6,70c0-2.6-1.4-4.1-3.5-4.1h-1.6v8.2h1.6C939.2,74.1,940.6,72.6,940.6,70 M940.4,96.6l-3.5-13.3h-1.4
		v13.3h-10.6V56.7h13.8c7.2,0,12.5,5.7,12.5,12.9c0,6.5-2.7,9.6-4.7,11.1l5.1,15.8L940.4,96.6L940.4,96.6z"/>
</g>
<polygon class="st0" points="954.3,96.6 954.3,56.7 974.3,56.7 974.3,65.9 964.9,65.9 964.9,71.8 973.9,71.8 973.9,81 964.9,81 
	964.9,87.4 974.3,87.4 974.3,96.6 "/>
<rect x="928.7" y="105.2" class="st0" width="3.6" height="3.6"/>
<rect x="924.1" y="105.2" class="st0" width="3.6" height="3.6"/>
<rect x="919.4" y="105.2" class="st0" width="3.6" height="3.6"/>
<rect x="914.8" y="105.2" class="st0" width="3.6" height="3.6"/>
<rect x="970.9" y="105.2" class="st0" width="3.6" height="3.6"/>
<rect x="910.1" y="105.2" class="st0" width="3.6" height="3.6"/>
<rect x="966.1" y="105.2" class="st0" width="3.6" height="3.6"/>
<rect x="905.3" y="105.2" class="st0" width="3.6" height="3.6"/>
<rect x="961.4" y="105.2" class="st0" width="3.6" height="3.6"/>
<rect x="900.7" y="105.2" class="st0" width="3.6" height="3.6"/>
<rect x="956.8" y="105.2" class="st0" width="3.6" height="3.6"/>
<rect x="896" y="105.2" class="st0" width="3.6" height="3.6"/>
<rect x="952.1" y="105.2" class="st0" width="3.6" height="3.6"/>
<rect x="891.4" y="105.2" class="st0" width="3.6" height="3.6"/>
<rect x="947.5" y="105.2" class="st0" width="3.6" height="3.6"/>
<rect x="886.7" y="105.2" class="st0" width="3.6" height="3.6"/>
<rect x="942.8" y="105.2" class="st0" width="3.6" height="3.6"/>
<rect x="882.1" y="105.2" class="st0" width="3.6" height="3.6"/>
<rect x="938.1" y="105.2" class="st0" width="3.6" height="3.6"/>
<rect x="877.4" y="105.2" class="st0" width="3.6" height="3.6"/>
<rect x="933.4" y="105.2" class="st0" width="3.6" height="3.6"/>
<rect x="816.6" y="105.2" class="st0" width="3.6" height="3.6"/>
<rect x="872.6" y="105.2" class="st0" width="3.6" height="3.6"/>
<rect x="811.9" y="105.2" class="st0" width="3.6" height="3.6"/>
<rect x="867.9" y="105.2" class="st0" width="3.6" height="3.6"/>
<rect x="807.2" y="105.2" class="st0" width="3.6" height="3.6"/>
<rect x="863.3" y="105.2" class="st0" width="3.6" height="3.6"/>
<rect x="802.5" y="105.2" class="st0" width="3.6" height="3.6"/>
<rect x="858.6" y="105.2" class="st0" width="3.6" height="3.6"/>
<rect x="797.9" y="105.2" class="st0" width="3.6" height="3.6"/>
<rect x="854" y="105.2" class="st0" width="3.6" height="3.6"/>
<rect x="849.3" y="105.2" class="st0" width="3.6" height="3.6"/>
<rect x="844.7" y="105.2" class="st0" width="3.6" height="3.6"/>
<rect x="839.9" y="105.2" class="st0" width="3.6" height="3.6"/>
<rect x="835.2" y="105.2" class="st0" width="3.6" height="3.6"/>
<rect x="830.6" y="105.2" class="st0" width="3.6" height="3.6"/>
<rect x="825.9" y="105.2" class="st0" width="3.6" height="3.6"/>
<rect x="821.3" y="105.2" class="st0" width="3.6" height="3.6"/>
<rect x="928.7" y="44.8" class="st0" width="3.6" height="3.6"/>
<rect x="924.1" y="44.8" class="st0" width="3.6" height="3.6"/>
<rect x="919.4" y="44.8" class="st0" width="3.6" height="3.6"/>
<rect x="914.8" y="44.8" class="st0" width="3.6" height="3.6"/>
<rect x="970.9" y="44.8" class="st0" width="3.6" height="3.6"/>
<rect x="910.1" y="44.8" class="st0" width="3.6" height="3.6"/>
<rect x="966.1" y="44.8" class="st0" width="3.6" height="3.6"/>
<rect x="905.3" y="44.8" class="st0" width="3.6" height="3.6"/>
<rect x="961.4" y="44.8" class="st0" width="3.6" height="3.6"/>
<rect x="900.7" y="44.8" class="st0" width="3.6" height="3.6"/>
<rect x="956.8" y="44.8" class="st0" width="3.6" height="3.6"/>
<rect x="896" y="44.8" class="st0" width="3.6" height="3.6"/>
<rect x="952.1" y="44.8" class="st0" width="3.6" height="3.6"/>
<rect x="891.4" y="44.8" class="st0" width="3.6" height="3.6"/>
<rect x="947.5" y="44.8" class="st0" width="3.6" height="3.6"/>
<rect x="886.7" y="44.8" class="st0" width="3.6" height="3.6"/>
<rect x="942.8" y="44.8" class="st0" width="3.6" height="3.6"/>
<rect x="882.1" y="44.8" class="st0" width="3.6" height="3.6"/>
<rect x="938.1" y="44.8" class="st0" width="3.6" height="3.6"/>
<rect x="877.4" y="44.8" class="st0" width="3.6" height="3.6"/>
<rect x="933.4" y="44.8" class="st0" width="3.6" height="3.6"/>
<rect x="816.6" y="44.8" class="st0" width="3.6" height="3.6"/>
<rect x="872.6" y="44.8" class="st0" width="3.6" height="3.6"/>
<rect x="811.9" y="44.8" class="st0" width="3.6" height="3.6"/>
<rect x="867.9" y="44.8" class="st0" width="3.6" height="3.6"/>
<rect x="807.2" y="44.8" class="st0" width="3.6" height="3.6"/>
<rect x="863.3" y="44.8" class="st0" width="3.6" height="3.6"/>
<rect x="802.5" y="44.8" class="st0" width="3.6" height="3.6"/>
<rect x="858.6" y="44.8" class="st0" width="3.6" height="3.6"/>
<rect x="797.9" y="44.8" class="st0" width="3.6" height="3.6"/>
<rect x="854" y="44.8" class="st0" width="3.6" height="3.6"/>
<rect x="849.3" y="44.8" class="st0" width="3.6" height="3.6"/>
<rect x="844.7" y="44.8" class="st0" width="3.6" height="3.6"/>
<rect x="839.9" y="44.8" class="st0" width="3.6" height="3.6"/>
<rect x="835.2" y="44.8" class="st0" width="3.6" height="3.6"/>
<rect x="830.6" y="44.8" class="st0" width="3.6" height="3.6"/>
<rect x="825.9" y="44.8" class="st0" width="3.6" height="3.6"/>
<rect x="821.3" y="44.8" class="st0" width="3.6" height="3.6"/>
<polygon class="st0" points="838.2,96.6 838.2,80.7 832.4,80.7 832.4,96.6 821.8,96.6 821.8,56.7 832.4,56.7 832.4,71.4 838.2,71.4 
	838.2,56.7 848.6,56.7 848.6,96.6 "/>
<g>
	<path class="st0" d="M990.4,119.1c1.5-4.1,4.8-12.3,9.6-20.5v-8.5c-3.6,3.5-6.8,7.3-9.6,11V119.1z M1000,88.1v-6.7
		c-3.2,1.2-6.5,2.3-9.6,3.7v12.2C993.3,94.2,996.6,91,1000,88.1 M990.4,82.1c3.2-0.8,6.4-1.7,9.6-2.4v-6.3c-3.2-0.7-6.5-1.5-9.6-2.4
		V82.1z M990.4,68c3.2,1.4,6.4,2.6,9.6,3.7V65c-3.5-2.8-6.7-6-9.6-9.2V68z M990.4,52.1c2.9,3.7,6.2,7.4,9.6,11v-8.5
		c-4.8-8.3-8.2-16.5-9.6-20.5V52.1z"/>
	<path class="st0" d="M50.3,92.9c2.7,0,4.5-1.6,4.5-4.5c0-2.8-1.8-4.5-4.5-4.5h-9.1V93L50.3,92.9L50.3,92.9z M49.8,68.5
		c2.4,0,4-1.5,4-4.3c0-2.5-1.6-4.1-4-4.1h-8.7v8.4H49.8z M23.8,44.9h30.5c12.4,0,17.2,8.5,17.2,16.1c0,7.9-4.3,13.1-10.2,14.6
		c6.4,1,11.2,7.4,11.2,15.5c0,8.9-5,17.2-17.1,17.2H23.8V44.9z"/>
	<path class="st0" d="M76.7,44.9h17.6v40.3c0,5.2,2.7,8.5,8,8.5c5.1,0,8-3.2,8-8.5V44.9h17.6v40c0,15.4-10.1,24.4-25.5,24.4
		s-25.5-9-25.5-24.3V44.9H76.7z"/>
	<path class="st0" d="M158.5,60.5h-6.9v11.5h6.9c3.1,0,5.7-2,5.7-5.8C164.3,62.4,161.6,60.5,158.5,60.5 M156.1,87.7h-4.4v20.5h-17.4
		V44.9h27C174,44.9,182,54.4,182,66c0,10.6-5.1,16-9.2,18.4l9.4,23.8h-19.3L156.1,87.7z"/>
</g>
<polygon class="st0" points="195.6,60.5 182.9,60.5 182.9,44.9 225.7,44.9 225.7,60.5 213.1,60.5 213.1,108.2 195.6,108.2 "/>
<g>
	<path class="st0" d="M253.4,59.7c-6.6,0-10.2,7-10.2,16.9c0,9.7,3.6,16.9,10.2,16.9c6.6,0,10.3-7.1,10.3-16.9
		C263.6,66.7,260,59.7,253.4,59.7 M253.4,43.9c17.1,0,28,13.4,28,32.7s-10.9,32.7-28,32.7s-28-13.5-28-32.7
		C225.4,57.2,236.3,43.9,253.4,43.9"/>
</g>
<polygon class="st0" points="302.5,79 302.5,108.2 285.1,108.2 285.1,44.9 302.8,44.9 317.9,72.3 317.9,44.9 335.3,44.9 
	335.3,108.2 318.8,108.2 "/>
<g>
	<path class="st0" d="M353.2,76.6c0-19.5,10.9-32.7,28.2-32.7c14,0,20,9.9,23.1,18L390,68.2c-1.2-4.9-4.2-8.5-8.6-8.5
		c-6.7,0-10.4,7-10.4,16.9s3.7,16.9,10.4,16.9c4.4,0,7.5-4.1,8.7-9l14.4,6.2c-2.6,8.1-8.7,18.7-23.1,18.7
		C364,109.4,353.2,96,353.2,76.6"/>
	<path class="st0" d="M407.2,44.9h17.6v40.3c0,5.2,2.7,8.5,8,8.5c5.1,0,8-3.2,8-8.5V44.9h17.5v40c0,15.4-10.1,24.4-25.5,24.4
		c-15.4,0-25.5-9-25.5-24.3V44.9H407.2z"/>
</g>
<polygon class="st0" points="511.2,74 500,108.2 493.3,108.2 482.2,74 482.2,108.2 464.8,108.2 464.8,44.9 487.7,44.9 496.6,72.8 
	505.8,44.9 528.5,44.9 528.5,108.2 511.2,108.2 "/>
<polygon class="st0" points="581.4,74 570.2,108.2 563.5,108.2 552.4,74 552.4,108.2 535,108.2 535,44.9 558,44.9 566.9,72.8 
	576,44.9 598.7,44.9 598.7,108.2 581.4,108.2 "/>
<rect x="605.2" y="44.9" class="st0" width="17.4" height="63.3"/>
<polygon class="st0" points="646.5,79 646.5,108.2 629.1,108.2 629.1,44.9 646.9,44.9 661.9,72.3 661.9,44.9 679.4,44.9 
	679.4,108.2 662.9,108.2 "/>
<g>
	<path class="st0" d="M711.3,43.9c12.3,0,19.5,8.2,22.5,17.1l-14.3,6.5c-1.2-4-3.9-7.8-8.3-7.8c-6,0-10.4,5.1-10.4,16.9
		c0,11.6,4.4,16.9,10.4,16.9c2.7,0,5.6-0.9,7-2.4v-4.3h-8.5V71h24.8v27.3c-5.9,6.7-13.2,11-23.4,11c-17,0-28.2-13-28.2-32.7
		C683.1,56.7,694.3,43.9,711.3,43.9"/>
	<path class="st0" d="M743.9,87.3c3.7,4,9.3,6.6,15.3,6.6c3.2,0,5.7-1.5,5.7-3.8c0-2.5-3.4-3.7-7.7-5.1c-8-2.6-19.5-6.2-19.5-20.8
		c0-10.3,7.8-20.3,22.9-20.3c8.1,0,15.5,2.5,20.9,7.3l-8,13.3c-4.1-3.5-9-5.1-13.6-5.1c-3.2,0-4.4,1.5-4.4,3.5
		c0,2.4,3.4,3.7,7.9,5.3c8,2.7,19.2,6.5,19.2,20.2c0,12.9-8.8,21.1-23.1,21.1c-10.6,0-17.9-3.1-23.5-8.5L743.9,87.3z"/>
</g>
</svg>
