<?xml version="1.0" encoding="utf-8"?>
<!-- Generator: Adobe Illustrator 26.0.2, SVG Export Plug-In . SVG Version: 6.00 Build 0)  -->
<svg version="1.1" id="Layer_1" xmlns="http://www.w3.org/2000/svg" xmlns:xlink="http://www.w3.org/1999/xlink" x="0px" y="0px"
	 viewBox="0 0 224.7 28.5" style="enable-background:new 0 0 224.7 28.5;" xml:space="preserve">
<style type="text/css">
	.st0{fill:#C4A061;}
</style>
<path class="st0" d="M214.1,0.3v3.1c1.7,0.2,3.2,0.7,4.6,1.5c1.4-0.9,2.9-1.4,4.6-1.5V0.3h1.4v5.5c-1.3,0-2.6,0.3-3.6,0.7
	c2,2,3.2,4.8,3.2,7.8s-1.3,5.8-3.2,7.8c1.1,0.5,2.3,0.7,3.6,0.7v5.5h-1.4v-3.1c-1.7-0.2-3.2-0.7-4.6-1.5c-1.4,0.9-2.9,1.4-4.6,1.5
	v3.1h-1.3v-5.5c1.3,0,2.5-0.3,3.6-0.7c-2-2-3.2-4.8-3.2-7.8s1.3-5.8,3.2-7.8c-1.1-0.5-2.3-0.7-3.6-0.7V0.3H214.1z M218.7,8.2
	c-1.7,1.6-2.8,3.7-2.8,6.3c0,2.5,1.1,4.7,2.8,6.3c1.7-1.6,2.8-3.7,2.8-6.3C221.5,12,220.4,9.8,218.7,8.2z"/>
<path class="st0" d="M202.4,0.3v3.1c1.7,0.2,3.2,0.7,4.6,1.5c1.4-0.9,2.9-1.4,4.6-1.5V0.3h1.4v5.5c-1.3,0-2.6,0.3-3.6,0.7
	c2,2,3.2,4.8,3.2,7.8s-1.3,5.8-3.2,7.8c1.1,0.5,2.3,0.7,3.6,0.7v5.5h-1.4v-3.1c-1.7-0.2-3.2-0.7-4.6-1.5c-1.4,0.9-2.9,1.4-4.6,1.5
	v3.1h-1.3v-5.5c1.3,0,2.5-0.3,3.6-0.7c-2-2-3.2-4.8-3.2-7.8s1.3-5.8,3.2-7.8c-1.1-0.5-2.3-0.7-3.6-0.7V0.3H202.4z M206.9,8.2
	c-1.7,1.6-2.8,3.7-2.8,6.3c0,2.6,1.1,4.7,2.8,6.3c1.7-1.6,2.8-3.7,2.8-6.3C209.7,12,208.6,9.8,206.9,8.2z"/>
<path class="st0" d="M190.6,0.3v3.1c1.7,0.2,3.2,0.7,4.6,1.5c1.4-0.9,2.9-1.4,4.6-1.5V0.3h1.4v5.5c-1.3,0-2.6,0.3-3.6,0.7
	c2,2,3.2,4.8,3.2,7.8s-1.3,5.8-3.2,7.8c1.1,0.5,2.3,0.7,3.6,0.7v5.5h-1.4v-3.1c-1.7-0.2-3.2-0.7-4.6-1.5c-1.4,0.9-2.9,1.4-4.6,1.5
	v3.1h-1.3v-5.5c1.3,0,2.5-0.3,3.6-0.7c-2-2-3.2-4.8-3.2-7.8s1.3-5.8,3.2-7.8c-1.1-0.5-2.3-0.7-3.6-0.7V0.3H190.6z M195.1,8.2
	c-1.7,1.6-2.8,3.7-2.8,6.3c0,2.6,1.1,4.7,2.8,6.3c1.7-1.6,2.8-3.7,2.8-6.3S196.9,9.8,195.1,8.2z"/>
<path class="st0" d="M178.7,0.3v3.1c1.7,0.2,3.2,0.7,4.6,1.5c1.4-0.9,2.9-1.4,4.6-1.5V0.3h1.4v5.5c-1.3,0-2.6,0.3-3.6,0.7
	c2,2,3.2,4.8,3.2,7.8s-1.3,5.8-3.2,7.8c1.1,0.5,2.3,0.7,3.6,0.7v5.5h-1.4v-3.1c-1.7-0.2-3.2-0.7-4.6-1.5c-1.4,0.9-2.9,1.4-4.6,1.5
	v3.1h-1.3v-5.5c1.3,0,2.5-0.3,3.6-0.7c-2-2-3.2-4.8-3.2-7.8s1.3-5.8,3.2-7.8c-1.1-0.5-2.3-0.7-3.6-0.7V0.3H178.7z M183.3,8.2
	c-1.7,1.6-2.8,3.7-2.8,6.3c0,2.5,1.1,4.7,2.8,6.3c1.7-1.6,2.8-3.7,2.8-6.3S185,9.8,183.3,8.2z"/>
<path class="st0" d="M166.9,0.3v3.1c1.7,0.2,3.2,0.7,4.6,1.5c1.4-0.9,2.9-1.4,4.6-1.5V0.3h1.4v5.5c-1.3,0-2.6,0.3-3.6,0.7
	c2,2,3.2,4.8,3.2,7.8s-1.3,5.8-3.2,7.8c1.1,0.5,2.3,0.7,3.6,0.7v5.5H176v-3.1c-1.7-0.2-3.2-0.7-4.6-1.5c-1.4,0.9-2.9,1.4-4.6,1.5
	v3.1h-1.3v-5.5c1.3,0,2.5-0.3,3.6-0.7c-2-2-3.2-4.8-3.2-7.8s1.3-5.8,3.2-7.8c-1.1-0.5-2.3-0.7-3.6-0.7V0.3H166.9z M171.5,8.2
	c-1.7,1.6-2.8,3.7-2.8,6.3c0,2.5,1.1,4.7,2.8,6.3c1.7-1.6,2.8-3.7,2.8-6.3C174.2,12,173.2,9.8,171.5,8.2z"/>
<path class="st0" d="M155.1,0.3v3.1c1.7,0.2,3.2,0.7,4.6,1.5c1.4-0.9,2.9-1.4,4.6-1.5V0.3h1.4v5.5c-1.3,0-2.6,0.3-3.6,0.7
	c2,2,3.2,4.8,3.2,7.8s-1.3,5.8-3.2,7.8c1.1,0.5,2.3,0.7,3.6,0.7v5.5h-1.4v-3.1c-1.7-0.2-3.2-0.7-4.6-1.5c-1.4,0.9-2.9,1.4-4.6,1.5
	v3.1h-1.3v-5.5c1.3,0,2.5-0.3,3.6-0.7c-2-2-3.2-4.8-3.2-7.8s1.3-5.8,3.2-7.8c-1.1-0.5-2.3-0.7-3.6-0.7V0.3H155.1z M159.6,8.2
	c-1.7,1.6-2.8,3.7-2.8,6.3c0,2.6,1.1,4.7,2.8,6.3c1.7-1.6,2.8-3.7,2.8-6.3S161.3,9.8,159.6,8.2z"/>
<path class="st0" d="M143.3,0.3v3.1c1.7,0.2,3.2,0.7,4.6,1.5c1.4-0.9,2.9-1.4,4.6-1.5V0.3h1.4v5.5c-1.3,0-2.6,0.3-3.6,0.7
	c2,2,3.2,4.8,3.2,7.8s-1.3,5.8-3.2,7.8c1.1,0.5,2.3,0.7,3.6,0.7v5.5h-1.4v-3.1c-1.7-0.2-3.2-0.7-4.6-1.5c-1.4,0.9-2.9,1.4-4.6,1.5
	v3.1H142v-5.5c1.3,0,2.5-0.3,3.6-0.7c-2-2-3.2-4.8-3.2-7.8s1.3-5.8,3.2-7.8c-1.1-0.5-2.3-0.7-3.6-0.7V0.3H143.3z M147.9,8.2
	c-1.7,1.6-2.8,3.7-2.8,6.3c0,2.6,1.1,4.7,2.8,6.3c1.7-1.6,2.8-3.7,2.8-6.3S149.6,9.8,147.9,8.2z"/>
<path class="st0" d="M131.4,0.3v3.1c1.7,0.2,3.2,0.7,4.6,1.5c1.4-0.9,2.9-1.4,4.6-1.5V0.3h1.4v5.5c-1.3,0-2.6,0.3-3.6,0.7
	c2,2,3.2,4.8,3.2,7.8s-1.3,5.8-3.2,7.8c1.1,0.5,2.3,0.7,3.6,0.7v5.5h-1.4v-3.1c-1.7-0.2-3.2-0.7-4.6-1.5c-1.4,0.9-2.9,1.4-4.6,1.5
	v3.1h-1.3v-5.5c1.3,0,2.5-0.3,3.6-0.7c-2-2-3.2-4.8-3.2-7.8s1.3-5.8,3.2-7.8c-1.1-0.5-2.3-0.7-3.6-0.7V0.3H131.4z M136,8.2
	c-1.7,1.6-2.8,3.7-2.8,6.3c0,2.5,1.1,4.7,2.8,6.3c1.7-1.6,2.8-3.7,2.8-6.3C138.8,12,137.7,9.8,136,8.2z"/>
<path class="st0" d="M119.6,0.3v3.1c1.7,0.2,3.2,0.7,4.6,1.5c1.4-0.9,2.9-1.4,4.6-1.5V0.3h1.4v5.5c-1.3,0-2.6,0.3-3.6,0.7
	c2,2,3.2,4.8,3.2,7.8s-1.3,5.8-3.2,7.8c1.1,0.5,2.3,0.7,3.6,0.7v5.5h-1.4v-3.1c-1.7-0.2-3.2-0.7-4.6-1.5c-1.4,0.9-2.9,1.4-4.6,1.5
	v3.1h-1.3v-5.5c1.3,0,2.5-0.3,3.6-0.7c-2-2-3.2-4.8-3.2-7.8s1.3-5.8,3.2-7.8c-1.1-0.5-2.3-0.7-3.6-0.7V0.3
	C118.3,0.3,119.6,0.3,119.6,0.3z M124.2,8.2c-1.7,1.6-2.8,3.7-2.8,6.3c0,2.5,1.1,4.7,2.8,6.3c1.7-1.6,2.8-3.7,2.8-6.3
	C127,12,125.9,9.8,124.2,8.2z"/>
<path class="st0" d="M107.9,0.3v3.1c1.7,0.2,3.2,0.7,4.6,1.5c1.4-0.9,2.9-1.4,4.6-1.5V0.3h1.4v5.5c-1.3,0-2.6,0.3-3.6,0.7
	c2,2,3.2,4.8,3.2,7.8s-1.3,5.8-3.2,7.8c1.1,0.5,2.3,0.7,3.6,0.7v5.5H117v-3.1c-1.7-0.2-3.2-0.7-4.6-1.5c-1.4,0.9-2.9,1.4-4.6,1.5
	v3.1h-1.3v-5.5c1.3,0,2.5-0.3,3.6-0.7c-2-2-3.2-4.8-3.2-7.8s1.3-5.8,3.2-7.8c-1.1-0.5-2.3-0.7-3.6-0.7V0.3H107.9z M112.3,8.2
	c-1.7,1.6-2.8,3.7-2.8,6.3c0,2.6,1.1,4.7,2.8,6.3c1.7-1.6,2.8-3.7,2.8-6.3S114.1,9.8,112.3,8.2z"/>
<path class="st0" d="M96,0.3v3.1c1.7,0.2,3.2,0.7,4.6,1.5c1.4-0.9,2.9-1.4,4.6-1.5V0.3h1.4v5.5c-1.3,0-2.6,0.3-3.6,0.7
	c2,2,3.2,4.8,3.2,7.8s-1.3,5.8-3.2,7.8c1.1,0.5,2.3,0.7,3.6,0.7v5.5h-1.4v-3.1c-1.7-0.2-3.2-0.7-4.6-1.5c-1.4,0.9-2.9,1.4-4.6,1.5
	v3.1h-1.3v-5.5c1.3,0,2.5-0.3,3.6-0.7c-2-2-3.2-4.8-3.2-7.8s1.3-5.8,3.2-7.8c-1.1-0.5-2.3-0.7-3.6-0.7V0.3H96z M100.6,8.2
	c-1.7,1.6-2.8,3.7-2.8,6.3c0,2.5,1.1,4.7,2.8,6.3c1.7-1.6,2.8-3.7,2.8-6.3S102.3,9.8,100.6,8.2z"/>
<path class="st0" d="M84.2,0.3v3.1c1.7,0.2,3.2,0.7,4.6,1.5c1.4-0.9,2.9-1.4,4.6-1.5V0.3h1.4v5.5c-1.3,0-2.6,0.3-3.6,0.7
	c2,2,3.2,4.8,3.2,7.8s-1.3,5.8-3.2,7.8c1.1,0.5,2.3,0.7,3.6,0.7v5.5h-1.4v-3.1c-1.7-0.2-3.2-0.7-4.6-1.5c-1.4,0.9-2.9,1.4-4.6,1.5
	v3.1h-1.3v-5.5c1.3,0,2.5-0.3,3.6-0.7c-2-2-3.2-4.8-3.2-7.8s1.3-5.8,3.2-7.8c-1.1-0.5-2.3-0.7-3.6-0.7V0.3H84.2z M88.8,8.2
	c-1.7,1.6-2.8,3.7-2.8,6.3c0,2.5,1.1,4.7,2.8,6.3c1.7-1.6,2.8-3.7,2.8-6.3C91.5,12,90.5,9.8,88.8,8.2z"/>
<path class="st0" d="M72.3,0.3v3.1c1.7,0.2,3.2,0.7,4.6,1.5c1.4-0.9,2.9-1.4,4.6-1.5V0.3h1.4v5.5c-1.3,0-2.6,0.3-3.6,0.7
	c2,2,3.2,4.8,3.2,7.8s-1.3,5.8-3.2,7.8c1.1,0.5,2.3,0.7,3.6,0.7v5.5h-1.4v-3.1c-1.7-0.2-3.2-0.7-4.6-1.5c-1.4,0.9-2.9,1.4-4.6,1.5
	v3.1H71v-5.5c1.3,0,2.5-0.3,3.6-0.7c-2-2-3.2-4.8-3.2-7.8s1.3-5.8,3.2-7.8c-1.1-0.5-2.3-0.7-3.6-0.7V0.3H72.3z M76.9,8.2
	c-1.7,1.6-2.8,3.7-2.8,6.3c0,2.6,1.1,4.7,2.8,6.3c1.7-1.6,2.8-3.7,2.8-6.3C79.7,12,78.6,9.8,76.9,8.2z"/>
<path class="st0" d="M60.6,0.3v3.1c1.7,0.2,3.2,0.7,4.6,1.5c1.4-0.9,2.9-1.4,4.6-1.5V0.3h1.4v5.5c-1.3,0-2.6,0.3-3.6,0.7
	c2,2,3.2,4.8,3.2,7.8s-1.3,5.8-3.2,7.8c1.1,0.5,2.3,0.7,3.6,0.7v5.5h-1.4v-3.1c-1.7-0.2-3.2-0.7-4.6-1.5c-1.4,0.9-2.9,1.4-4.6,1.5
	v3.1h-1.3v-5.5c1.3,0,2.5-0.3,3.6-0.7c-2-2-3.2-4.8-3.2-7.8s1.3-5.8,3.2-7.8c-1.1-0.5-2.3-0.7-3.6-0.7V0.3H60.6z M65.1,8.2
	c-1.7,1.6-2.8,3.7-2.8,6.3c0,2.6,1.1,4.7,2.8,6.3c1.7-1.6,2.8-3.7,2.8-6.3S66.8,9.8,65.1,8.2z"/>
<path class="st0" d="M48.7,0.3v3.1c1.7,0.2,3.2,0.7,4.6,1.5c1.4-0.9,2.9-1.4,4.6-1.5V0.3h1.4v5.5c-1.3,0-2.6,0.3-3.6,0.7
	c2,2,3.2,4.8,3.2,7.8s-1.3,5.8-3.2,7.8c1.1,0.5,2.3,0.7,3.6,0.7v5.5h-1.4v-3.1c-1.7-0.2-3.2-0.7-4.6-1.5c-1.4,0.9-2.9,1.4-4.6,1.5
	v3.1h-1.3v-5.5c1.3,0,2.5-0.3,3.6-0.7c-2-2-3.2-4.8-3.2-7.8s1.3-5.8,3.2-7.8c-1.1-0.5-2.3-0.7-3.6-0.7V0.3H48.7z M53.3,8.2
	c-1.7,1.6-2.8,3.7-2.8,6.3c0,2.5,1.1,4.7,2.8,6.3c1.7-1.6,2.8-3.7,2.8-6.3C56.1,12,55,9.8,53.3,8.2z"/>
<path class="st0" d="M36.9,0.3v3.1c1.7,0.2,3.2,0.7,4.6,1.5c1.4-0.9,2.9-1.4,4.6-1.5V0.3h1.4v5.5c-1.3,0-2.6,0.3-3.6,0.7
	c2,2,3.2,4.8,3.2,7.8s-1.3,5.8-3.2,7.8c1.1,0.5,2.3,0.7,3.6,0.7v5.5h-1.4v-3.1c-1.7-0.2-3.2-0.7-4.6-1.5c-1.4,0.9-2.9,1.4-4.6,1.5
	v3.1h-1.3v-5.5c1.3,0,2.5-0.3,3.6-0.7c-2-2-3.2-4.8-3.2-7.8s1.3-5.8,3.2-7.8c-1.1-0.5-2.3-0.7-3.6-0.7V0.3H36.9z M41.5,8.2
	c-1.7,1.6-2.8,3.7-2.8,6.3c0,2.5,1.1,4.7,2.8,6.3c1.7-1.6,2.8-3.7,2.8-6.3C44.3,12,43.2,9.8,41.5,8.2z"/>
<path class="st0" d="M25.1,0.3v3.1c1.7,0.2,3.2,0.7,4.6,1.5C31,4,32.5,3.5,34.2,3.4V0.3h1.4v5.5c-1.3,0-2.6,0.3-3.6,0.7
	c2,2,3.2,4.8,3.2,7.8s-1.3,5.8-3.2,7.8c1.1,0.5,2.3,0.7,3.6,0.7v5.5h-1.4v-3.1c-1.7-0.2-3.2-0.7-4.6-1.5c-1.4,0.9-2.9,1.4-4.6,1.5
	v3.1h-1.3v-5.5c1.3,0,2.5-0.3,3.6-0.7c-2-2-3.2-4.8-3.2-7.8s1.3-5.8,3.2-7.8c-1.1-0.5-2.3-0.7-3.6-0.7V0.3
	C23.8,0.3,25.1,0.3,25.1,0.3z M29.6,8.2c-1.7,1.6-2.8,3.7-2.8,6.3c0,2.6,1.1,4.7,2.8,6.3c1.7-1.6,2.8-3.7,2.8-6.3S31.4,9.8,29.6,8.2
	z"/>
<path class="st0" d="M13.3,0.3v3.1c1.7,0.2,3.2,0.7,4.6,1.5c1.4-0.9,2.9-1.4,4.6-1.5V0.3h1.4v5.5c-1.3,0-2.6,0.3-3.6,0.7
	c2,2,3.2,4.8,3.2,7.8s-1.3,5.8-3.2,7.8c1.1,0.5,2.3,0.7,3.6,0.7v5.5h-1.4v-3.1c-1.7-0.2-3.2-0.7-4.6-1.5c-1.4,0.9-2.9,1.4-4.6,1.5
	v3.1H12v-5.5c1.3,0,2.5-0.3,3.6-0.7c-2-2-3.2-4.8-3.2-7.8s1.3-5.8,3.2-7.8c-1.1-0.5-2.3-0.7-3.6-0.7V0.3H13.3z M17.8,8.2
	c-1.7,1.6-2.8,3.7-2.8,6.3c0,2.5,1.1,4.7,2.8,6.3c1.7-1.6,2.8-3.7,2.8-6.3S19.5,9.8,17.8,8.2z"/>
<path class="st0" d="M1.5,0.3v3.1c1.7,0.2,3.2,0.7,4.6,1.5C7.5,4,8.9,3.5,10.7,3.4V0.3H12v5.5c-1.3,0-2.6,0.3-3.6,0.7
	c2,2,3.2,4.8,3.2,7.8s-1.3,5.8-3.2,7.8c1.1,0.5,2.3,0.7,3.6,0.7v5.5h-1.4v-3.1c-1.7-0.2-3.2-0.7-4.6-1.5c-1.4,0.9-2.9,1.4-4.6,1.5
	v3.1H0.2v-5.5c1.3,0,2.5-0.3,3.6-0.7c-2-2-3.2-4.8-3.2-7.8s1.3-5.8,3.2-7.8C2.8,6.1,1.5,5.8,0.2,5.8V0.3C0.2,0.3,1.5,0.3,1.5,0.3z
	 M6.1,8.2c-1.7,1.6-2.8,3.7-2.8,6.3c0,2.5,1.1,4.7,2.8,6.3c1.7-1.6,2.8-3.7,2.8-6.3C8.8,12,7.8,9.8,6.1,8.2z"/>
</svg>
