<?xml version="1.0" encoding="utf-8"?>
<!-- Generator: Adobe Illustrator 26.0.2, SVG Export Plug-In . SVG Version: 6.00 Build 0)  -->
<svg version="1.1" id="Layer_1" xmlns="http://www.w3.org/2000/svg" xmlns:xlink="http://www.w3.org/1999/xlink" x="0px" y="0px"
	 viewBox="0 0 360 360" style="enable-background:new 0 0 360 360;" xml:space="preserve">
<style type="text/css">
	.st0{fill:#00A562;}
	.st1{fill:#FFFFFF;}
</style>
<path class="st0" d="M138.1,32c6.8,9.1,13.1,18.6,18.8,28.4h-14.5C131.7,49.7,120,40.2,107.3,32H138.1z M165.4,32
	c2.3,9.5,4.5,18.9,6.4,28.4h-11.4c-4.9-10-10.3-19.6-15.7-28.4H165.4z M189.4,32c-1.5,9.5-2.9,18.9-4.1,28.4h-10.7
	c-1.2-9.5-2.6-18.9-4.1-28.4H189.4z M199.7,60.4h-11.4c1.9-9.5,4-18.9,6.4-28.4h20.8C210,40.8,204.6,50.4,199.7,60.4 M221.9,32h30.8
	c-12.7,8.2-24.4,17.7-35.1,28.4h-14.5C208.8,50.6,215.1,41.1,221.9,32"/>
<path class="st1" d="M254.1,143.2c0,14.7-1.6,24.6-6.1,24.6s-6.1-9.9-6.1-24.6s1.6-24.6,6.1-24.6S254.1,128.3,254.1,143.2 M248,98.2
	c-16.1,0-23.6,18.6-23.6,45s7.5,45,23.6,45s23.6-18.6,23.6-45S264.1,98.2,248,98.2 M221.9,99.6h-36v20.1h9.4v66.8h17.2v-66.8h9.3
	L221.9,99.6z M164.9,128.7c0,5.6-2.2,8.9-5.6,8.9h-2.5v-17.8h2.5C162.6,119.7,164.9,123,164.9,128.7 M182.2,127.8
	c0-15.9-8.5-28.1-20.2-28.1h-22.5v86.9h17.2v-28.9h2.3l5.5,28.9h18.4l-8.3-34.5C177.9,148.8,182.3,142,182.2,127.8 M131.5,99.6
	h-17.2V160c0,5.9-1.8,8.1-4.7,8.1s-4.7-2.2-4.7-8.1V99.6H87.8v59.2c0,20.5,11.2,29.3,21.9,29.3s21.9-8.9,21.9-29.4V99.6z
	 M64.5,159.4c0,5-1.9,7-5,7h-3.4v-13.9h3.4C62.6,152.5,64.5,154.9,64.5,159.4 M63.7,126.1c0,4.4-1.4,6.4-4.5,6.4h-3v-12.8h3
	C62.3,119.7,63.7,121.9,63.7,126.1 M82.1,163c0-10.9-4.8-19.8-11.5-21.2c6.1-2,10.6-9.1,10.6-19.9s-4.6-22.2-17.1-22.2H39v86.9h26
	C77.4,186.6,82.1,175.5,82.1,163 M305.1,186.6H321V99.6h-17.1v33.9l-9.3-33.9h-17.2v86.9h17.2v-36.1L305.1,186.6z"/>
<path class="st0" d="M247,81.4h8.3v-8.2H247V81.4z M236,81.4h8.3v-8.2H236V81.4z M225.1,81.4h8.3v-8.2h-8.3V81.4z M214.1,81.4h8.3
	v-8.2h-8.3V81.4z M203.1,81.4h8.3v-8.2h-8.3V81.4z M192.2,81.4h8.3v-8.2h-8.3V81.4z M170.3,81.4h8.3v-8.2h-8.3V81.4z M159.3,81.4
	h8.3v-8.2h-8.3V81.4z M148.3,81.4h8.3v-8.2h-8.3V81.4z M115.5,81.4h8.3v-8.2h-8.3V81.4z M104.5,81.4h8.5v-8.2h-8.3L104.5,81.4z
	 M134.7,73.2h-8.3v8.2h8.3V73.2z M145.7,73.2h-8.3v8.2h8.3V73.2z M189.5,73.2h-8.3v8.2h8.3V73.2z M39,81.4h8.3v-8.2H39V81.4z
	 M50,81.4h8.3v-8.2H50V81.4z M61,81.4h8.3v-8.2H61L61,81.4z M71.9,81.4h8.3v-8.2h-8.3V81.4z M82.9,81.4h8.3v-8.2h-8.3V81.4z
	 M102,73.2h-8.3v8.2h8.3V73.2z M258,81.4h8.3v-8.2H258V81.4z M269,81.4h8.3v-8.2H269V81.4z M279.9,81.4h8.3v-8.2h-8.3V81.4z
	 M290.9,81.4h8.3v-8.2h-8.3V81.4z M301.8,81.4h8.3v-8.2h-8.3V81.4z M312.8,81.4h8.2v-8.2h-8.3L312.8,81.4z"/>
<path class="st1" d="M303.1,308.6v-7h17.4v-12.7h-17.4v-6.3H321v-12.8h-32.5v51.6H321v-12.8H303.1z M268.7,287.2
	c0.1,2.5-1.8,4.6-4.2,4.7c-0.2,0-0.4,0-0.6,0h-5.8v-9.4h5.8C266.5,282.5,268.7,284.1,268.7,287.2 M283.7,321.3l-8-19.4
	c3.4-1.9,7.7-6.4,7.7-15c0-9.5-6.6-17.2-17.3-17.2h-22.7v51.6h14.6v-16.7h3.7l5.8,16.7L283.7,321.3z M126.9,321.3h32.6v-12.8h-17.9
	v-7H159v-12.7h-17.4v-6.3h17.9v-12.8H127L126.9,321.3z M181.1,301.9l3.9-17.1l3.8,17.1L181.1,301.9z M161,321.4h15.8l1.5-6.6h13.4
	l1.5,6.6H209l-15.2-51.6h-17.7L161,321.4z M215.2,321.4h14.7v-38.8h10.6v-12.8h-36v12.8h10.7L215.2,321.4z M92.6,269.8H78v51.6h14.6
	v-20.2h13v20.2h14.6v-51.6h-14.6v18.6h-13L92.6,269.8z M74.9,269.8H39v12.8h10.7v38.8h14.7v-38.8h10.6V269.8z"/>
<path class="st1" d="M248.3,230.4l7.4-33.7h-10.2l-3.6,16.4l-8.1-16.4h-10.5l-7.4,33.7H226l3.8-17.5l8.6,17.5L248.3,230.4z
	 M74.1,218.6c0,7.2,5.2,12.4,16.2,12.4s15.6-6.4,17.3-14.5l4.4-19.8h-10.4l-4.3,19.6c-0.7,3.2-2.9,5.8-7,5.8c-3.8,0-5.6-2.4-5.7-4.6
	c0-0.4,0-0.8,0.1-1.2l4.3-19.6H78.7l-4.4,19.9C74.2,217.2,74.1,217.9,74.1,218.6 M142.1,196.6l-9.5,16.2l-2.3-16.2h-13.7l-7.4,33.7
	h10.2l4.4-20.3l3.1,20.3h4.6l12-20.3l-4.5,20.3h10.2l7.4-33.7L142.1,196.6z M162,196.6l-7.4,33.7h10.2l4.4-20.3l3.1,20.3h4.6
	l12-20.3l-4.5,20.3h10.2l7.4-33.7h-14.4l-9.5,16.2l-2.3-16.2L162,196.6z M207.5,196.6l-7.4,33.7h10.2l7.4-33.7H207.5z M37.5,215.5
	c0,9.5,7.9,15.5,17.6,15.5c6.1,0.1,11.8-2.8,15.4-7.7l-8-5.2c-1.5,2.4-4,3.8-6.8,3.9c-4.6,0-7.6-3.4-7.6-7.2c-0.1-5.2,4-9.6,9.2-9.7
	c0,0,0.1,0,0.1,0c3.3-0.2,6.2,2.1,6.8,5.3l9.8-3.1c-1.6-5.4-6.3-11.2-16.2-11.2C46.5,196.1,37.4,203.8,37.5,215.5 M276.4,196.1
	c-12.8,0-21.3,8.4-21.3,19.4c0,9.9,8.3,15.5,17.6,15.5c5.7,0.2,11-2.4,14.5-6.8l3.1-13.9h-16.4l-2,8.9h6.3l-0.2,1.3
	c-1.3,1-2.9,1.5-4.6,1.5c-4,0.2-7.4-2.8-7.6-6.8c0-0.1,0-0.2,0-0.4c-0.1-5.2,4-9.6,9.2-9.7c0,0,0,0,0.1,0c3.3,0,6.1,2.1,6.6,4.2
	l9.4-3.8C289.3,201,284.5,196.1,276.4,196.1 M316.9,208.8l6.1-7.1c-3.7-3.7-9.2-5.6-14.7-5.6c-9.6,0-14.5,6.2-14.5,12.1
	c0,9.9,16.1,9.8,16.1,12.6c0,0.6-0.8,1.5-2.7,1.5c-4.5,0-9.3-2.1-11.6-5.2l-6.1,7.3c3.3,4,9.7,6.6,16.9,6.6
	c8.7,0,14.3-5.2,14.3-12.3c0-9.8-16.2-9.9-16.2-12.6c0-0.8,0.8-1.4,2.1-1.4C310.5,204.8,314.1,206.2,316.9,208.8"/>
<path class="st0" d="M247,254.8h8.3v-8.2H247V254.8z M236,254.8h8.3v-8.2H236V254.8z M225.1,254.8h8.3v-8.2h-8.3V254.8z
	 M214.1,254.8h8.3v-8.2h-8.3V254.8z M203.1,254.8h8.3v-8.2h-8.3V254.8z M192.2,254.8h8.3v-8.2h-8.3V254.8z M170.3,254.8h8.3v-8.2
	h-8.3V254.8z M159.3,254.8h8.3v-8.2h-8.3V254.8z M148.3,254.8h8.3v-8.2h-8.3V254.8z M115.5,254.8h8.3v-8.2h-8.3V254.8z M104.5,254.8
	h8.5v-8.2h-8.3L104.5,254.8z M134.7,246.6h-8.3v8.2h8.3V246.6z M145.7,246.6h-8.3v8.2h8.3V246.6z M189.5,246.6h-8.3v8.2h8.3V246.6z
	 M39,254.8h8.3v-8.2H39V254.8z M50,254.8h8.3v-8.2H50V254.8z M61,254.8h8.3v-8.2H61L61,254.8z M71.9,254.8h8.3v-8.2h-8.3V254.8z
	 M82.9,254.8h8.3v-8.2h-8.3V254.8z M102.2,246.6h-8.5v8.2h8.3L102.2,246.6z M258,254.8h8.3v-8.2H258V254.8z M269,254.8h8.3v-8.2H269
	V254.8z M279.9,254.8h8.3v-8.2h-8.3V254.8z M290.9,254.8h8.3v-8.2h-8.3V254.8z M301.8,254.8h8.3v-8.2h-8.3V254.8z M312.8,254.8h8.2
	v-8.2h-8.3L312.8,254.8z"/>
<path class="st1" d="M0,0v360h360V0H0z M353.1,353.1H6.9V6.9h346.2V353.1z"/>
</svg>
