<?xml version="1.0" encoding="utf-8"?>
<!-- Generator: Adobe Illustrator 26.0.2, SVG Export Plug-In . SVG Version: 6.00 Build 0)  -->
<svg version="1.1" xmlns="http://www.w3.org/2000/svg" xmlns:xlink="http://www.w3.org/1999/xlink" x="0px" y="0px"
	 viewBox="0 0 360 360" style="enable-background:new 0 0 360 360;" xml:space="preserve">
<style type="text/css">
	.st0{fill:#FFFFFF;}
</style>
<g id="Layer_2">
</g>
<g id="Layer_1">
	<path class="st0" d="M138.1,32c6.3,8.5,12.8,18.1,18.8,28.4h-14.5c-14.1-14.1-28.1-24-35.1-28.4H138.1z M165.3,32
		c2.3,9.5,4.5,18.9,6.4,28.4h-11.4c-4.9-10-10.3-19.6-15.7-28.4H165.3z M189.4,32c-1.5,9.5-2.8,18.9-4.1,28.4h-10.7
		c-1.2-9.5-2.6-18.9-4.1-28.4H189.4z M199.7,60.4h-11.4c1.9-9.5,4-18.9,6.3-28.4h20.8C210,40.8,204.6,50.3,199.7,60.4 M221.9,32
		h30.8c-7,4.4-21,14.3-35.1,28.4h-14.5C209.1,50.1,215.6,40.5,221.9,32"/>
	<path class="st0" d="M254.1,143.2c0,14.7-1.6,24.6-6.1,24.6c-4.6,0-6.1-9.9-6.1-24.6c0-14.9,1.6-24.6,6.1-24.6
		C252.6,118.5,254.1,128.3,254.1,143.2 M248,98.2c-16.1,0-23.6,18.6-23.6,45c0,26.3,7.5,45,23.6,45c16.1,0,23.6-18.6,23.6-45
		C271.6,116.8,264.2,98.2,248,98.2 M221.9,99.6h-36v20.1h9.4v66.8h17.2v-66.8h9.3V99.6z M164.9,128.7c0,5.6-2.2,8.9-5.6,8.9h-2.5
		v-17.9h2.5C162.6,119.7,164.9,123,164.9,128.7 M182.3,127.8c0-15.9-8.5-28.1-20.2-28.1h-22.6l0,86.9h17.2v-28.9h2.2l5.5,28.9h18.4
		l-8.3-34.5C177.9,148.8,182.3,142,182.3,127.8 M131.5,99.6h-17.2V160c0,5.9-1.8,8.1-4.7,8.1c-2.9,0-4.7-2.2-4.7-8.1V99.6H87.8v59.2
		c0,20.5,11.2,29.3,21.9,29.3c10.7,0,21.9-8.9,21.9-29.5L131.5,99.6z M64.6,159.5c0,5-1.9,7-5,7h-3.4v-13.9h3.4
		C62.6,152.5,64.6,154.9,64.6,159.5 M63.7,126.1c0,4.4-1.4,6.4-4.5,6.4h-3v-12.8h3C62.3,119.7,63.7,121.9,63.7,126.1 M82.1,163
		c0-10.9-4.8-19.8-11.5-21.2c6.1-2,10.6-9.1,10.6-19.9c0-10.8-4.6-22.2-17.1-22.2H39l0,86.9h26C77.4,186.6,82.1,175.5,82.1,163
		 M305.1,186.6H321V99.6h-17.1v33.9l-9.3-33.9h-17.2l0,86.9h17.2v-36.1L305.1,186.6z"/>
	<path class="st0" d="M247,81.5h8.3v-8.2H247V81.5z M236.1,81.5h8.3v-8.2h-8.3V81.5z M225.1,81.5h8.3v-8.2h-8.3V81.5z M214.2,81.5
		h8.3v-8.2h-8.3V81.5z M203.2,81.5h8.3v-8.2h-8.3V81.5z M192.3,81.5h8.3v-8.2h-8.3V81.5z M170.4,81.5h8.3v-8.2h-8.3V81.5z
		 M159.4,81.5h8.3v-8.2h-8.3V81.5z M148.5,81.5h8.3v-8.2h-8.3V81.5z M115.6,81.5h8.3v-8.2h-8.3V81.5z M104.7,81.5h8.3v-8.2h-8.3
		V81.5z M134.9,73.2h-8.3v8.2h8.3V73.2z M145.8,73.2h-8.3v8.2h8.3V73.2z M189.6,73.2h-8.3v8.2h8.3V73.2z M39,81.5h8.3v-8.2H39V81.5z
		 M49.9,81.5h8.3v-8.2h-8.3V81.5z M60.9,81.5h8.3v-8.2h-8.3V81.5z M71.8,81.5h8.3v-8.2h-8.3V81.5z M82.8,81.5h8.3v-8.2h-8.3V81.5z
		 M102,73.2h-8.3v8.2h8.3V73.2z M258,81.5h8.3v-8.2H258V81.5z M268.9,81.5h8.3v-8.2h-8.3V81.5z M279.9,81.5h8.3v-8.2h-8.3V81.5z
		 M290.8,81.5h8.3v-8.2h-8.3V81.5z M301.8,81.5h8.3v-8.2h-8.3V81.5z M312.7,81.5h8.3v-8.2h-8.3V81.5z"/>
	<path class="st0" d="M303.1,308.6v-7h17.4v-12.8h-17.4v-6.3H321v-12.8h-32.6l0,51.6H321v-12.8H303.1z M268.7,287.2
		c0,3.1-2.2,4.7-4.8,4.7h-5.8v-9.4h5.8C266.5,282.5,268.7,284.1,268.7,287.2 M283.7,321.3l-8-19.4c3.4-1.9,7.7-6.3,7.7-15
		c0-9.5-6.7-17.2-17.3-17.2h-22.7v51.6h14.6v-16.7h3.7l5.8,16.7H283.7z M127,321.3h32.6v-12.8h-17.9v-7H159v-12.8h-17.4l0-6.3h17.9
		v-12.8H127L127,321.3z M181.1,301.9l3.9-17.1l3.8,17.1H181.1z M160.9,321.3h15.9l1.5-6.7h13.4l1.5,6.7H209l-15.2-51.6h-17.7
		L160.9,321.3z M215.1,321.3h14.7v-38.8h10.6v-12.8h-36v12.8h10.7V321.3z M92.6,269.8H78v51.6h14.6v-20.2h13v20.2h14.6v-51.6h-14.6
		v18.6h-13V269.8z M74.9,269.8H39v12.8h10.7v38.8h14.7v-38.8h10.6V269.8z"/>
	<path class="st0" d="M248.3,230.4l7.4-33.7h-10.2l-3.6,16.4l-8.1-16.4h-10.5l-7.4,33.7H226l3.8-17.5l8.6,17.5H248.3z M73.1,218.6
		c0,7.2,5.2,12.3,16.2,12.3c10.9,0,15.6-6.4,17.4-14.5l4.4-19.8h-10.4l-4.3,19.6c-0.7,3.2-2.9,5.8-7,5.8c-3.8,0-5.6-2.4-5.7-4.6
		c0-0.5,0-1,0.1-1.2l4.3-19.6H77.7l-4.4,19.9C73.2,217,73.1,218.2,73.1,218.6 M142.1,196.6l-9.5,16.2l-2.3-16.2h-13.8l-7.4,33.7
		h10.2l4.5-20.3l3.1,20.3h4.6l12-20.3l-4.5,20.3h10.2l7.4-33.7H142.1z M162.1,196.6l-7.4,33.7h10.2l4.5-20.3l3.1,20.3h4.6l12-20.3
		l-4.5,20.3h10.2l7.4-33.7h-14.5l-9.5,16.2l-2.3-16.2H162.1z M207.6,196.6l-7.4,33.7h10.2l7.4-33.7H207.6z M36.5,215.5
		c0,9.5,7.9,15.5,17.6,15.5c4.6,0,11.2-1.7,15.4-7.7l-8-5.2c-1.2,2.2-4.2,3.9-6.8,3.9c-4.7,0-7.6-3.3-7.6-7.2c0-5.1,3.8-9.7,9.3-9.7
		c3.5,0,6.2,2.1,6.8,5.3l9.8-3.1c-1.6-5.4-6.3-11.2-16.2-11.2C45.5,196.1,36.5,203.8,36.5,215.5 M276.5,196.1
		c-12.8,0-21.3,8.3-21.3,19.4c0,9.9,8.3,15.5,17.6,15.5c6.1,0,11.3-2.6,14.5-6.8l3.1-13.9h-16.4l-2,8.9h6.3l-0.3,1.3
		c-1.3,1-2.8,1.5-4.6,1.5c-4.9,0-7.6-3.6-7.6-7.2c0-5.4,4.1-9.7,9.3-9.7c3.3,0,6.1,2.1,6.6,4.2l9.4-3.8
		C289.3,201,284.5,196.1,276.5,196.1 M316.9,208.8l6.1-7.1c-3.7-3.7-9.2-5.6-14.7-5.6c-9.6,0-14.5,6.2-14.5,12.1
		c0,9.9,16.1,9.8,16.1,12.6c0,0.6-0.8,1.5-2.7,1.5c-4.5,0-9.3-2.1-11.6-5.2l-6.1,7.3c3.3,4,9.7,6.6,16.9,6.6
		c8.7,0,14.3-5.2,14.3-12.3c0-9.8-16.2-9.9-16.2-12.6c0-0.8,0.8-1.4,2.1-1.4C309.8,204.7,314.1,206,316.9,208.8"/>
	<path class="st0" d="M247,254.8h8.3v-8.2H247V254.8z M236.1,254.8h8.3v-8.2h-8.3V254.8z M225.1,254.8h8.3v-8.2h-8.3V254.8z
		 M214.2,254.8h8.3v-8.2h-8.3V254.8z M203.2,254.8h8.3v-8.2h-8.3V254.8z M192.3,254.8h8.3v-8.2h-8.3V254.8z M170.4,254.8h8.3v-8.2
		h-8.3V254.8z M159.4,254.8h8.3v-8.2h-8.3V254.8z M148.5,254.8h8.3v-8.2h-8.3V254.8z M115.6,254.8h8.3v-8.2h-8.3V254.8z
		 M104.7,254.8h8.3v-8.2h-8.3V254.8z M134.9,246.6h-8.3v8.2h8.3V246.6z M145.8,246.6h-8.3v8.2h8.3V246.6z M189.6,246.6h-8.3v8.2h8.3
		V246.6z M39,254.8h8.3v-8.2H39V254.8z M49.9,254.8h8.3v-8.2h-8.3V254.8z M60.9,254.8h8.3v-8.2h-8.3V254.8z M71.8,254.8h8.3v-8.2
		h-8.3V254.8z M82.8,254.8h8.3v-8.2h-8.3V254.8z M102,246.6h-8.3v8.2h8.3V246.6z M258,254.8h8.3v-8.2H258V254.8z M268.9,254.8h8.3
		v-8.2h-8.3V254.8z M279.9,254.8h8.3v-8.2h-8.3V254.8z M290.8,254.8h8.3v-8.2h-8.3V254.8z M301.8,254.8h8.3v-8.2h-8.3V254.8z
		 M312.7,254.8h8.3v-8.2h-8.3V254.8z"/>
	<path class="st0" d="M0,0v360h360V0H0z M353.1,353.1H6.9V6.9h346.2V353.1z"/>
</g>
</svg>
