<?xml version="1.0" encoding="utf-8"?>
<!-- Generator: Adobe Illustrator 26.0.2, SVG Export Plug-In . SVG Version: 6.00 Build 0)  -->
<svg version="1.1" id="Layer_1" xmlns="http://www.w3.org/2000/svg" xmlns:xlink="http://www.w3.org/1999/xlink" x="0px" y="0px"
	 viewBox="0 0 224.5 28.9" style="enable-background:new 0 0 224.5 28.9;" xml:space="preserve">
<style type="text/css">
	.st0{fill:#C4A061;}
</style>
<path class="st0" d="M213.9,0.4v3.1c1.7,0.2,3.2,0.7,4.6,1.5c1.4-0.9,2.9-1.4,4.6-1.5V0.4h1.4v5.5c-1.3,0-2.6,0.3-3.6,0.7
	c2,2,3.2,4.8,3.2,7.8s-1.3,5.8-3.2,7.8c1.1,0.5,2.3,0.7,3.6,0.7v5.5h-1.4v-3.1c-1.7-0.2-3.2-0.7-4.6-1.5c-1.4,0.9-2.9,1.4-4.6,1.5
	v3.1h-1.3v-5.5c1.3,0,2.5-0.3,3.6-0.7c-2-2-3.2-4.8-3.2-7.8s1.3-5.8,3.2-7.8c-1.1-0.5-2.3-0.7-3.6-0.7V0.4H213.9z M218.5,8.3
	c-1.7,1.6-2.8,3.7-2.8,6.3c0,2.5,1.1,4.7,2.8,6.3c1.7-1.6,2.8-3.7,2.8-6.3C221.3,12.1,220.2,9.9,218.5,8.3z"/>
<path class="st0" d="M202.2,0.4v3.1c1.7,0.2,3.2,0.7,4.6,1.5c1.4-0.9,2.9-1.4,4.6-1.5V0.4h1.4v5.5c-1.3,0-2.6,0.3-3.6,0.7
	c2,2,3.2,4.8,3.2,7.8s-1.3,5.8-3.2,7.8c1.1,0.5,2.3,0.7,3.6,0.7v5.5h-1.4v-3.1c-1.7-0.2-3.2-0.7-4.6-1.5c-1.4,0.9-2.9,1.4-4.6,1.5
	v3.1h-1.3v-5.5c1.3,0,2.5-0.3,3.6-0.7c-2-2-3.2-4.8-3.2-7.8s1.3-5.8,3.2-7.8c-1.1-0.5-2.3-0.7-3.6-0.7V0.4H202.2z M206.7,8.3
	c-1.7,1.6-2.8,3.7-2.8,6.3s1.1,4.7,2.8,6.3c1.7-1.6,2.8-3.7,2.8-6.3C209.5,12.1,208.4,9.9,206.7,8.3z"/>
<path class="st0" d="M190.4,0.4v3.1c1.7,0.2,3.2,0.7,4.6,1.5c1.4-0.9,2.9-1.4,4.6-1.5V0.4h1.4v5.5c-1.3,0-2.6,0.3-3.6,0.7
	c2,2,3.2,4.8,3.2,7.8s-1.3,5.8-3.2,7.8c1.1,0.5,2.3,0.7,3.6,0.7v5.5h-1.4v-3.1c-1.7-0.2-3.2-0.7-4.6-1.5c-1.4,0.9-2.9,1.4-4.6,1.5
	v3.1h-1.3v-5.5c1.3,0,2.5-0.3,3.6-0.7c-2-2-3.2-4.8-3.2-7.8s1.3-5.8,3.2-7.8c-1.1-0.5-2.3-0.7-3.6-0.7V0.4H190.4z M194.9,8.3
	c-1.7,1.6-2.8,3.7-2.8,6.3s1.1,4.7,2.8,6.3c1.7-1.6,2.8-3.7,2.8-6.3S196.7,9.9,194.9,8.3z"/>
<path class="st0" d="M178.5,0.4v3.1c1.7,0.2,3.2,0.7,4.6,1.5c1.4-0.9,2.9-1.4,4.6-1.5V0.4h1.4v5.5c-1.3,0-2.6,0.3-3.6,0.7
	c2,2,3.2,4.8,3.2,7.8s-1.3,5.8-3.2,7.8c1.1,0.5,2.3,0.7,3.6,0.7v5.5h-1.4v-3.1c-1.7-0.2-3.2-0.7-4.6-1.5c-1.4,0.9-2.9,1.4-4.6,1.5
	v3.1h-1.3v-5.5c1.3,0,2.5-0.3,3.6-0.7c-2-2-3.2-4.8-3.2-7.8s1.3-5.8,3.2-7.8c-1.1-0.5-2.3-0.7-3.6-0.7V0.4H178.5z M183.1,8.3
	c-1.7,1.6-2.8,3.7-2.8,6.3c0,2.5,1.1,4.7,2.8,6.3c1.7-1.6,2.8-3.7,2.8-6.3S184.8,9.9,183.1,8.3z"/>
<path class="st0" d="M166.7,0.4v3.1c1.7,0.2,3.2,0.7,4.6,1.5c1.4-0.9,2.9-1.4,4.6-1.5V0.4h1.4v5.5c-1.3,0-2.6,0.3-3.6,0.7
	c2,2,3.2,4.8,3.2,7.8s-1.3,5.8-3.2,7.8c1.1,0.5,2.3,0.7,3.6,0.7v5.5h-1.5v-3.1c-1.7-0.2-3.2-0.7-4.6-1.5c-1.4,0.9-2.9,1.4-4.6,1.5
	v3.1h-1.3v-5.5c1.3,0,2.5-0.3,3.6-0.7c-2-2-3.2-4.8-3.2-7.8s1.3-5.8,3.2-7.8c-1.1-0.5-2.3-0.7-3.6-0.7V0.4H166.7z M171.3,8.3
	c-1.7,1.6-2.8,3.7-2.8,6.3c0,2.5,1.1,4.7,2.8,6.3c1.7-1.6,2.8-3.7,2.8-6.3C174,12.1,173,9.9,171.3,8.3z"/>
<path class="st0" d="M154.9,0.4v3.1c1.7,0.2,3.2,0.7,4.6,1.5c1.4-0.9,2.9-1.4,4.6-1.5V0.4h1.4v5.5c-1.3,0-2.6,0.3-3.6,0.7
	c2,2,3.2,4.8,3.2,7.8s-1.3,5.8-3.2,7.8c1.1,0.5,2.3,0.7,3.6,0.7v5.5h-1.4v-3.1c-1.7-0.2-3.2-0.7-4.6-1.5c-1.4,0.9-2.9,1.4-4.6,1.5
	v3.1h-1.3v-5.5c1.3,0,2.5-0.3,3.6-0.7c-2-2-3.2-4.8-3.2-7.8s1.3-5.8,3.2-7.8c-1.1-0.5-2.3-0.7-3.6-0.7V0.4H154.9z M159.4,8.3
	c-1.7,1.6-2.8,3.7-2.8,6.3s1.1,4.7,2.8,6.3c1.7-1.6,2.8-3.7,2.8-6.3S161.1,9.9,159.4,8.3z"/>
<path class="st0" d="M143.1,0.4v3.1c1.7,0.2,3.2,0.7,4.6,1.5c1.4-0.9,2.9-1.4,4.6-1.5V0.4h1.4v5.5c-1.3,0-2.6,0.3-3.6,0.7
	c2,2,3.2,4.8,3.2,7.8s-1.3,5.8-3.2,7.8c1.1,0.5,2.3,0.7,3.6,0.7v5.5h-1.4v-3.1c-1.7-0.2-3.2-0.7-4.6-1.5c-1.4,0.9-2.9,1.4-4.6,1.5
	v3.1h-1.3v-5.5c1.3,0,2.5-0.3,3.6-0.7c-2-2-3.2-4.8-3.2-7.8s1.3-5.8,3.2-7.8c-1.1-0.5-2.3-0.7-3.6-0.7V0.4H143.1z M147.7,8.3
	c-1.7,1.6-2.8,3.7-2.8,6.3s1.1,4.7,2.8,6.3c1.7-1.6,2.8-3.7,2.8-6.3S149.4,9.9,147.7,8.3z"/>
<path class="st0" d="M131.2,0.4v3.1c1.7,0.2,3.2,0.7,4.6,1.5c1.4-0.9,2.9-1.4,4.6-1.5V0.4h1.4v5.5c-1.3,0-2.6,0.3-3.6,0.7
	c2,2,3.2,4.8,3.2,7.8s-1.3,5.8-3.2,7.8c1.1,0.5,2.3,0.7,3.6,0.7v5.5h-1.4v-3.1c-1.7-0.2-3.2-0.7-4.6-1.5c-1.4,0.9-2.9,1.4-4.6,1.5
	v3.1h-1.3v-5.5c1.3,0,2.5-0.3,3.6-0.7c-2-2-3.2-4.8-3.2-7.8s1.3-5.8,3.2-7.8c-1.1-0.5-2.3-0.7-3.6-0.7V0.4H131.2z M135.8,8.3
	c-1.7,1.6-2.8,3.7-2.8,6.3c0,2.5,1.1,4.7,2.8,6.3c1.7-1.6,2.8-3.7,2.8-6.3C138.6,12.1,137.5,9.9,135.8,8.3z"/>
<path class="st0" d="M119.4,0.4v3.1c1.7,0.2,3.2,0.7,4.6,1.5c1.4-0.9,2.9-1.4,4.6-1.5V0.4h1.4v5.5c-1.3,0-2.6,0.3-3.6,0.7
	c2,2,3.2,4.8,3.2,7.8s-1.3,5.8-3.2,7.8c1.1,0.5,2.3,0.7,3.6,0.7v5.5h-1.4v-3.1c-1.7-0.2-3.2-0.7-4.6-1.5c-1.4,0.9-2.9,1.4-4.6,1.5
	v3.1h-1.3v-5.5c1.3,0,2.5-0.3,3.6-0.7c-2-2-3.2-4.8-3.2-7.8s1.3-5.8,3.2-7.8c-1.1-0.5-2.3-0.7-3.6-0.7V0.4
	C118.1,0.4,119.4,0.4,119.4,0.4z M124,8.3c-1.7,1.6-2.8,3.7-2.8,6.3c0,2.5,1.1,4.7,2.8,6.3c1.7-1.6,2.8-3.7,2.8-6.3
	C126.8,12.1,125.7,9.9,124,8.3z"/>
<path class="st0" d="M107.7,0.4v3.1c1.7,0.2,3.2,0.7,4.6,1.5c1.4-0.9,2.9-1.4,4.6-1.5V0.4h1.4v5.5c-1.3,0-2.6,0.3-3.6,0.7
	c2,2,3.2,4.8,3.2,7.8s-1.3,5.8-3.2,7.8c1.1,0.5,2.3,0.7,3.6,0.7v5.5h-1.5v-3.1c-1.7-0.2-3.2-0.7-4.6-1.5c-1.4,0.9-2.9,1.4-4.6,1.5
	v3.1h-1.3v-5.5c1.3,0,2.5-0.3,3.6-0.7c-2-2-3.2-4.8-3.2-7.8s1.3-5.8,3.2-7.8c-1.1-0.5-2.3-0.7-3.6-0.7V0.4H107.7z M112.1,8.3
	c-1.7,1.6-2.8,3.7-2.8,6.3s1.1,4.7,2.8,6.3c1.7-1.6,2.8-3.7,2.8-6.3S113.9,9.9,112.1,8.3z"/>
<path class="st0" d="M95.8,0.4v3.1c1.7,0.2,3.2,0.7,4.6,1.5c1.4-0.9,2.9-1.4,4.6-1.5V0.4h1.4v5.5c-1.3,0-2.6,0.3-3.6,0.7
	c2,2,3.2,4.8,3.2,7.8s-1.3,5.8-3.2,7.8c1.1,0.5,2.3,0.7,3.6,0.7v5.5H105v-3.1c-1.7-0.2-3.2-0.7-4.6-1.5c-1.4,0.9-2.9,1.4-4.6,1.5
	v3.1h-1.3v-5.5c1.3,0,2.5-0.3,3.6-0.7c-2-2-3.2-4.8-3.2-7.8s1.3-5.8,3.2-7.8c-1.1-0.5-2.3-0.7-3.6-0.7V0.4H95.8z M100.4,8.3
	c-1.7,1.6-2.8,3.7-2.8,6.3c0,2.5,1.1,4.7,2.8,6.3c1.7-1.6,2.8-3.7,2.8-6.3S102.1,9.9,100.4,8.3z"/>
<path class="st0" d="M84,0.4v3.1c1.7,0.2,3.2,0.7,4.6,1.5c1.4-0.9,2.9-1.4,4.6-1.5V0.4h1.4v5.5c-1.3,0-2.6,0.3-3.6,0.7
	c2,2,3.2,4.8,3.2,7.8s-1.3,5.8-3.2,7.8c1.1,0.5,2.3,0.7,3.6,0.7v5.5h-1.4v-3.1c-1.7-0.2-3.2-0.7-4.6-1.5c-1.4,0.9-2.9,1.4-4.6,1.5
	v3.1h-1.3v-5.5c1.3,0,2.5-0.3,3.6-0.7c-2-2-3.2-4.8-3.2-7.8s1.3-5.8,3.2-7.8c-1.1-0.5-2.3-0.7-3.6-0.7V0.4H84z M88.6,8.3
	c-1.7,1.6-2.8,3.7-2.8,6.3c0,2.5,1.1,4.7,2.8,6.3c1.7-1.6,2.8-3.7,2.8-6.3C91.3,12.1,90.3,9.9,88.6,8.3z"/>
<path class="st0" d="M72.1,0.4v3.1c1.7,0.2,3.2,0.7,4.6,1.5c1.4-0.9,2.9-1.4,4.6-1.5V0.4h1.4v5.5c-1.3,0-2.6,0.3-3.6,0.7
	c2,2,3.2,4.8,3.2,7.8s-1.3,5.8-3.2,7.8c1.1,0.5,2.3,0.7,3.6,0.7v5.5h-1.4v-3.1c-1.7-0.2-3.2-0.7-4.6-1.5c-1.4,0.9-2.9,1.4-4.6,1.5
	v3.1h-1.3v-5.5c1.3,0,2.5-0.3,3.6-0.7c-2-2-3.2-4.8-3.2-7.8s1.3-5.8,3.2-7.8c-1.1-0.5-2.3-0.7-3.6-0.7V0.4H72.1z M76.7,8.3
	c-1.7,1.6-2.8,3.7-2.8,6.3s1.1,4.7,2.8,6.3c1.7-1.6,2.8-3.7,2.8-6.3C79.5,12.1,78.4,9.9,76.7,8.3z"/>
<path class="st0" d="M60.4,0.4v3.1C62.1,3.7,63.6,4.2,65,5c1.4-0.9,2.9-1.4,4.6-1.5V0.4H71v5.5c-1.3,0-2.6,0.3-3.6,0.7
	c2,2,3.2,4.8,3.2,7.8s-1.3,5.8-3.2,7.8c1.1,0.5,2.3,0.7,3.6,0.7v5.5h-1.4v-3.1c-1.7-0.2-3.2-0.7-4.6-1.5c-1.4,0.9-2.9,1.4-4.6,1.5
	v3.1h-1.3v-5.5c1.3,0,2.5-0.3,3.6-0.7c-2-2-3.2-4.8-3.2-7.8s1.3-5.8,3.2-7.8c-1.1-0.5-2.3-0.7-3.6-0.7V0.4H60.4z M64.9,8.3
	c-1.7,1.6-2.8,3.7-2.8,6.3s1.1,4.7,2.8,6.3c1.7-1.6,2.8-3.7,2.8-6.3S66.6,9.9,64.9,8.3z"/>
<path class="st0" d="M48.5,0.4v3.1c1.7,0.2,3.2,0.7,4.6,1.5c1.4-0.9,2.9-1.4,4.6-1.5V0.4h1.4v5.5c-1.3,0-2.6,0.3-3.6,0.7
	c2,2,3.2,4.8,3.2,7.8s-1.3,5.8-3.2,7.8c1.1,0.5,2.3,0.7,3.6,0.7v5.5h-1.4v-3.1c-1.7-0.2-3.2-0.7-4.6-1.5c-1.4,0.9-2.9,1.4-4.6,1.5
	v3.1h-1.3v-5.5c1.3,0,2.5-0.3,3.6-0.7c-2-2-3.2-4.8-3.2-7.8s1.3-5.8,3.2-7.8c-1.1-0.5-2.3-0.7-3.6-0.7V0.4H48.5z M53.1,8.3
	c-1.7,1.6-2.8,3.7-2.8,6.3c0,2.5,1.1,4.7,2.8,6.3c1.7-1.6,2.8-3.7,2.8-6.3C55.9,12.1,54.8,9.9,53.1,8.3z"/>
<path class="st0" d="M36.7,0.4v3.1c1.7,0.2,3.2,0.7,4.6,1.5c1.4-0.9,2.9-1.4,4.6-1.5V0.4h1.4v5.5c-1.3,0-2.6,0.3-3.6,0.7
	c2,2,3.2,4.8,3.2,7.8s-1.3,5.8-3.2,7.8c1.1,0.5,2.3,0.7,3.6,0.7v5.5h-1.4v-3.1c-1.7-0.2-3.2-0.7-4.6-1.5c-1.4,0.9-2.9,1.4-4.6,1.5
	v3.1h-1.3v-5.5c1.3,0,2.5-0.3,3.6-0.7c-2-2-3.2-4.8-3.2-7.8s1.3-5.8,3.2-7.8c-1.1-0.5-2.3-0.7-3.6-0.7V0.4H36.7z M41.3,8.3
	c-1.7,1.6-2.8,3.7-2.8,6.3c0,2.5,1.1,4.7,2.8,6.3c1.7-1.6,2.8-3.7,2.8-6.3C44.1,12.1,43,9.9,41.3,8.3z"/>
<path class="st0" d="M24.9,0.4v3.1c1.7,0.2,3.2,0.7,4.6,1.5c1.3-0.9,2.8-1.4,4.5-1.5V0.4h1.4v5.5c-1.3,0-2.6,0.3-3.6,0.7
	c2,2,3.2,4.8,3.2,7.8s-1.3,5.8-3.2,7.8c1.1,0.5,2.3,0.7,3.6,0.7v5.5H34v-3.1c-1.7-0.2-3.2-0.7-4.6-1.5c-1.4,0.9-2.9,1.4-4.6,1.5v3.1
	h-1.3v-5.5c1.3,0,2.5-0.3,3.6-0.7c-2-2-3.2-4.8-3.2-7.8s1.3-5.8,3.2-7.8c-1.1-0.5-2.3-0.7-3.6-0.7V0.4C23.6,0.4,24.9,0.4,24.9,0.4z
	 M29.4,8.3c-1.7,1.6-2.8,3.7-2.8,6.3s1.1,4.7,2.8,6.3c1.7-1.6,2.8-3.7,2.8-6.3S31.2,9.9,29.4,8.3z"/>
<path class="st0" d="M13.1,0.4v3.1c1.7,0.2,3.2,0.7,4.6,1.5c1.4-0.9,2.9-1.4,4.6-1.5V0.4h1.4v5.5c-1.3,0-2.6,0.3-3.6,0.7
	c2,2,3.2,4.8,3.2,7.8s-1.3,5.8-3.2,7.8c1.1,0.5,2.3,0.7,3.6,0.7v5.5h-1.4v-3.1c-1.7-0.2-3.2-0.7-4.6-1.5c-1.4,0.9-2.9,1.4-4.6,1.5
	v3.1h-1.3v-5.5c1.3,0,2.5-0.3,3.6-0.7c-2-2-3.2-4.8-3.2-7.8s1.3-5.8,3.2-7.8c-1.1-0.5-2.3-0.7-3.6-0.7V0.4H13.1z M17.6,8.3
	c-1.7,1.6-2.8,3.7-2.8,6.3c0,2.5,1.1,4.7,2.8,6.3c1.7-1.6,2.8-3.7,2.8-6.3S19.3,9.9,17.6,8.3z"/>
<path class="st0" d="M1.3,0.4v3.1C3,3.7,4.5,4.2,5.9,5c1.4-0.9,2.8-1.4,4.6-1.5V0.4h1.3v5.5c-1.3,0-2.6,0.3-3.6,0.7
	c2,2,3.2,4.8,3.2,7.8s-1.3,5.8-3.2,7.8c1.1,0.5,2.3,0.7,3.6,0.7v5.5h-1.4v-3.1c-1.7-0.2-3.2-0.7-4.6-1.5c-1.4,0.9-2.9,1.4-4.6,1.5
	v3.1H0v-5.5c1.3,0,2.5-0.3,3.6-0.7c-2-2-3.2-4.8-3.2-7.8s1.3-5.8,3.2-7.8C2.6,6.2,1.3,5.9,0,5.9V0.4H1.3z M5.9,8.3
	C4.2,9.9,3.1,12,3.1,14.6c0,2.5,1.1,4.7,2.8,6.3c1.7-1.6,2.8-3.7,2.8-6.3C8.6,12.1,7.6,9.9,5.9,8.3z"/>
<rect x="0.1" y="27.2" class="st0" width="224.7" height="1.6"/>
<rect x="-1.3" class="st0" width="224.7" height="1.6"/>
</svg>
