<svg id="Layer_1" data-name="Layer 1" xmlns="http://www.w3.org/2000/svg" viewBox="0 0 360 360"><defs><style>.cls-1{fill:#008752;}.cls-2{fill:#fff;}</style></defs><rect class="cls-1" width="360" height="360"/><path class="cls-2" d="M138.13,32a298.82,298.82,0,0,1,18.76,28.4H142.37A212.24,212.24,0,0,0,107.29,32Zm27.22,0q3.51,14.18,6.35,28.4H160.28c-4.9-10-10.27-19.61-15.7-28.4Zm24.06,0q-2.25,14.19-4.07,28.4H174.66q-1.83-14.2-4.07-28.4Zm10.31,28.4H188.3q2.85-14.2,6.35-28.4h20.78c-5.43,8.78-10.81,18.36-15.71,28.4M221.88,32h30.83a210.46,210.46,0,0,0-35.08,28.4h-14.5A298.8,298.8,0,0,1,221.88,32"/><path class="cls-2" d="M254.14,143.16c0,14.73-1.56,24.63-6.13,24.63s-6.12-9.9-6.12-24.63,1.55-24.63,6.12-24.63,6.13,9.78,6.13,24.63M248,98.21c-16.14,0-23.62,18.63-23.62,45s7.48,45,23.62,45,23.63-18.64,23.63-45S264.15,98.21,248,98.21m-26.15,1.43h-36v20.07h9.44v66.84h17.2V119.71h9.34Zm-57,29.06c0,5.6-2.24,8.86-5.64,8.86h-2.53V119.71h2.53c3.4,0,5.64,3.25,5.64,9m17.4-.92c0-15.89-8.46-28.14-20.22-28.14H139.51v86.91h17.21V157.62H159l5.54,28.93h18.37L174.61,152c3.31-3.25,7.68-10,7.68-24.24M131.54,99.64H114.33V160c0,5.87-1.85,8.08-4.66,8.08S105,165.84,105,160V99.64H87.79V158.8c0,20.46,11.18,29.32,21.88,29.32s21.87-8.86,21.87-29.45Zm-67,59.81c0,5-1.94,7-4.95,7H56.19V152.54H59.6c3,0,4.95,2.35,4.95,6.91m-.87-33.36c0,4.43-1.37,6.39-4.47,6.39h-3V119.71h3c3.1,0,4.47,2.21,4.47,6.38M82.06,163c0-10.95-4.77-19.81-11.48-21.24,6.13-2,10.6-9.12,10.6-19.94S76.61,99.64,64.07,99.64H39v86.91h26c12.45,0,17.12-11.07,17.12-23.58m223,23.58H321V99.64H303.91v33.88l-9.33-33.88H277.37v86.91h17.21V150.46Z"/><path class="cls-2" d="M247,81.45h8.31v-8.2H247Zm-11,0h8.31v-8.2h-8.31Zm-10.95,0h8.31v-8.2h-8.31Zm-11,0h8.31v-8.2h-8.31Zm-10.95,0h8.31v-8.2h-8.31Zm-10.95,0h8.31v-8.2h-8.31Zm-21.9,0h8.31v-8.2h-8.31Zm-11,0h8.31v-8.2h-8.31Zm-10.95,0h8.31v-8.2h-8.31Zm-32.84,0h8.3v-8.2h-8.3Zm-10.95,0H113v-8.2h-8.3Zm30.2-8.2h-8.3v8.2h8.3Zm11,0h-8.31v8.2h8.31Zm43.8,0h-8.31v8.2h8.31ZM39,81.45h8.31v-8.2H39Zm11,0h8.3v-8.2h-8.3Zm11,0h8.3v-8.2h-8.3Zm10.95,0h8.3v-8.2h-8.3Zm11,0h8.3v-8.2h-8.3ZM102,73.25H93.72v8.2H102ZM258,81.45h8.3v-8.2H258Zm10.95,0h8.31v-8.2h-8.31Zm10.95,0h8.31v-8.2h-8.31Zm10.95,0h8.31v-8.2h-8.31Zm10.95,0h8.3v-8.2h-8.3Zm11,0H321v-8.2h-8.3Z"/><path class="cls-2" d="M303.09,308.59v-7h17.4V288.87h-17.4v-6.34H321V269.77H288.47v51.58H321V308.59Zm-34.43-21.42a4.48,4.48,0,0,1-4.8,4.71h-5.79v-9.35h5.79c2.63,0,4.8,1.55,4.8,4.64m15.08,34.18-8-19.41c3.4-1.93,7.73-6.35,7.73-15,0-9.51-6.65-17.17-17.32-17.17H243.45v51.58h14.62V304.64h3.71l5.8,16.71Zm-156.79,0h32.56V308.59H141.57v-7H159V288.87h-17.4v-6.34h17.94V269.77H127Zm54.18-19.41L185,284.85l3.79,17.09ZM161,321.35H176.8l1.47-6.65h13.37l1.47,6.65H209l-15.16-51.58H176.1Zm54.18,0h14.68V282.53h10.6V269.77H204.46v12.76h10.67ZM92.59,269.77H78v51.58H92.59V301.17h13v20.18H120.2V269.77H105.58V288.4h-13Zm-17.65,0H39v12.76H49.65v38.82H64.34V282.53h10.6Z"/><path class="cls-2" d="M248.3,230.36l7.43-33.74H245.51L241.87,213l-8.09-16.39H223.26l-7.44,33.74H226l3.84-17.5,8.6,17.5ZM73.09,218.62c0,7.23,5.21,12.35,16.23,12.35s15.59-6.38,17.35-14.52l4.4-19.83H100.71l-4.35,19.62c-.71,3.24-2.89,5.82-7,5.82-3.84,0-5.61-2.42-5.66-4.6a7.06,7.06,0,0,1,.1-1.22l4.35-19.62H77.74l-4.4,19.88a17.33,17.33,0,0,0-.25,2.12m69-22-9.51,16.18-2.33-16.18H116.53l-7.43,33.74h10.22l4.45-20.29,3.08,20.29h4.56l12-20.29-4.46,20.29h10.22l7.44-33.74Zm19.92,0-7.43,33.74h10.22l4.45-20.29,3.08,20.29h4.56l12-20.29-4.46,20.29h10.22l7.44-33.74H187.65l-9.51,16.18-2.33-16.18Zm45.53,0-7.44,33.74h10.22l7.43-33.74ZM36.47,215.48c0,9.52,7.94,15.49,17.6,15.49a18.52,18.52,0,0,0,15.38-7.74l-8-5.16A8.38,8.38,0,0,1,54.63,222C50,222,47,218.62,47,214.78a9.45,9.45,0,0,1,9.26-9.71,6.57,6.57,0,0,1,6.82,5.26l9.82-3.09c-1.57-5.41-6.33-11.18-16.19-11.18-11.23,0-20.28,7.74-20.28,19.42m240-19.42c-12.8,0-21.3,8.35-21.3,19.42,0,9.87,8.35,15.49,17.6,15.49a17.77,17.77,0,0,0,14.52-6.83l3.09-13.86H273.94l-2,8.9h6.27l-.25,1.26a7.6,7.6,0,0,1-4.6,1.52,7.21,7.21,0,0,1-7.59-7.18,9.46,9.46,0,0,1,9.26-9.71c3.29,0,6.07,2.12,6.58,4.19l9.4-3.84c-1.67-4.4-6.47-9.36-14.51-9.36m40.41,12.75,6.12-7.08c-3.69-3.7-9.21-5.62-14.72-5.62-9.61,0-14.47,6.23-14.47,12.09,0,9.87,16.14,9.77,16.14,12.6,0,.6-.76,1.47-2.68,1.47-4.55,0-9.31-2.13-11.63-5.16l-6.07,7.28c3.33,4,9.71,6.58,16.89,6.58,8.7,0,14.26-5.22,14.26-12.3,0-9.76-16.18-9.91-16.18-12.59,0-.76.75-1.37,2.07-1.37a15.4,15.4,0,0,1,10.27,4.1"/><path class="cls-2" d="M247,254.78h8.31v-8.2H247Zm-11,0h8.31v-8.2h-8.31Zm-10.95,0h8.31v-8.2h-8.31Zm-11,0h8.31v-8.2h-8.31Zm-10.95,0h8.31v-8.2h-8.31Zm-10.95,0h8.31v-8.2h-8.31Zm-21.9,0h8.31v-8.2h-8.31Zm-11,0h8.31v-8.2h-8.31Zm-10.95,0h8.31v-8.2h-8.31Zm-32.84,0h8.3v-8.2h-8.3Zm-10.95,0H113v-8.2h-8.3Zm30.2-8.2h-8.3v8.2h8.3Zm11,0h-8.31v8.2h8.31Zm43.8,0h-8.31v8.2h8.31ZM39,254.78h8.31v-8.2H39Zm11,0h8.3v-8.2h-8.3Zm11,0h8.3v-8.2h-8.3Zm10.95,0h8.3v-8.2h-8.3Zm11,0h8.3v-8.2h-8.3Zm19.25-8.2H93.72v8.2H102ZM258,254.78h8.3v-8.2H258Zm10.95,0h8.31v-8.2h-8.31Zm10.95,0h8.31v-8.2h-8.31Zm10.95,0h8.31v-8.2h-8.31Zm10.95,0h8.3v-8.2h-8.3Zm11,0H321v-8.2h-8.3Z"/></svg>