<?xml version="1.0" encoding="utf-8"?>
<!-- Generator: Adobe Illustrator 26.0.2, SVG Export Plug-In . SVG Version: 6.00 Build 0)  -->
<svg version="1.1" id="Isolation_Mode" xmlns="http://www.w3.org/2000/svg" xmlns:xlink="http://www.w3.org/1999/xlink" x="0px"
	 y="0px" viewBox="0 0 147.2 165" style="enable-background:new 0 0 147.2 165;" xml:space="preserve">
<style type="text/css">
	.st0{fill:#179C50;}
	.st1{fill:none;stroke:#C5A363;stroke-width:10;stroke-linecap:round;stroke-linejoin:round;stroke-miterlimit:10;}
	.st2{fill:#179C50;stroke:#C5A363;stroke-miterlimit:10;}
</style>
<g>
	<g>
		<path class="st0" d="M66.2,84.2c0,3.7-3,6.6-6.6,6.6s-6.6-3-6.6-6.6c0-3.7,3-6.6,6.6-6.6C63.2,77.6,66.2,80.6,66.2,84.2z"/>
		<path class="st0" d="M93.8,84.2c0,3.7-3,6.6-6.6,6.6s-6.6-3-6.6-6.6c0-3.7,3-6.6,6.6-6.6S93.8,80.6,93.8,84.2z"/>
		<path class="st0" d="M121.4,84.2c0,3.7-3,6.6-6.6,6.6s-6.6-3-6.6-6.6c0-3.7,3-6.6,6.6-6.6S121.4,80.6,121.4,84.2z"/>
		<path class="st0" d="M66.2,107.7c0,3.7-3,6.6-6.6,6.6s-6.6-3-6.6-6.6c0-3.7,3-6.6,6.6-6.6C63.2,101,66.2,104,66.2,107.7z"/>
		<path class="st0" d="M93.8,107.7c0,3.7-3,6.6-6.6,6.6s-6.6-3-6.6-6.6c0-3.7,3-6.6,6.6-6.6S93.8,104,93.8,107.7z"/>
		<path class="st0" d="M121.4,107.7c0,3.7-3,6.6-6.6,6.6s-6.6-3-6.6-6.6c0-3.7,3-6.6,6.6-6.6S121.4,104,121.4,107.7z"/>
		<path class="st0" d="M66.2,131.1c0,3.7-3,6.6-6.6,6.6s-6.6-3-6.6-6.6s3-6.6,6.6-6.6C63.2,124.5,66.2,127.4,66.2,131.1z"/>
		<path class="st0" d="M39.7,107.7c0,3.7-3,6.6-6.6,6.6s-6.6-3-6.6-6.6c0-3.7,3-6.6,6.6-6.6S39.7,104,39.7,107.7z"/>
		<path class="st0" d="M39.7,131.1c0,3.7-3,6.6-6.6,6.6s-6.6-3-6.6-6.6s3-6.6,6.6-6.6S39.7,127.4,39.7,131.1z"/>
		<path class="st0" d="M93.8,131.1c0,3.7-3,6.6-6.6,6.6s-6.6-3-6.6-6.6s3-6.6,6.6-6.6S93.8,127.4,93.8,131.1z"/>
		<path class="st0" d="M121.4,131.1c0,3.7-3,6.6-6.6,6.6s-6.6-3-6.6-6.6s3-6.6,6.6-6.6S121.4,127.4,121.4,131.1z"/>
	</g>
	<g>
		<path class="st1" d="M142,57.1V146c0,7.7-6.2,13.9-13.9,13.9H19.7c-7.7,0-13.9-6.2-13.9-13.9V57.1H142z"/>
		<path class="st2" d="M142,37.6v19.5H5.8V37.6c0-7.7,6.2-13.9,13.9-13.9h12.4v7.8c0,5.6,4.6,10.2,10.2,10.2s10.2-4.6,10.2-10.2
			v-7.8h42.8v7.8c0,5.6,4.6,10.2,10.2,10.2s10.2-4.6,10.2-10.2v-7.8h12.4C135.8,23.7,142,29.9,142,37.6z"/>
		<path class="st1" d="M142,37.6v19.5H5.8V37.6c0-7.7,6.2-13.9,13.9-13.9h12.4v7.8c0,5.6,4.6,10.2,10.2,10.2s10.2-4.6,10.2-10.2
			v-7.8h42.8v7.8c0,5.6,4.6,10.2,10.2,10.2s10.2-4.6,10.2-10.2v-7.8h12.4C135.8,23.7,142,29.9,142,37.6z"/>
		<path class="st1" d="M115.7,15.9v15.5c0,5.6-4.6,10.2-10.2,10.2s-10.2-4.6-10.2-10.2V16c0-5.6,4.6-10.2,10.2-10.2
			c2.8,0,5.4,1.1,7.2,3S115.7,13.1,115.7,15.9z"/>
		<path class="st1" d="M52.5,15.9v15.5c0,5.6-4.6,10.2-10.2,10.2s-10.2-4.6-10.2-10.2V16c0-5.6,4.6-10.2,10.2-10.2
			c2.8,0,5.4,1.1,7.2,3C51.3,10.6,52.5,13.1,52.5,15.9z"/>
	</g>
</g>
</svg>
