<?xml version="1.0" encoding="utf-8"?>
<!-- Generator: Adobe Illustrator 25.2.0, SVG Export Plug-In . SVG Version: 6.00 Build 0)  -->
<svg version="1.1" id="Layer_1" xmlns="http://www.w3.org/2000/svg" xmlns:xlink="http://www.w3.org/1999/xlink" x="0px" y="0px"
	 viewBox="0 0 2682 344" style="enable-background:new 0 0 2682 344;" xml:space="preserve">
<style type="text/css">
	.st0{fill:#FFFFFF;}
</style>
<g>
	<g>
		<path class="st0" d="M2679.9,117.4c-6.6-4.5-14.1-8.2-22.7-11c-8.5-2.8-16.7-4.2-24.5-4.2c-14.4,0-27.6,4.3-39.5,13
			c-11.9,8.6-21.7,20.8-29.3,36.6c-7.6,15.7-11.4,32.4-11.4,50.1c0,16.7,3.8,29.6,11.4,38.9c7.6,9.3,18.4,13.9,32.4,13.9
			c7.6,0,14.9-1.9,21.8-5.7c6.9-3.8,12.9-9.1,18.1-15.9c0.8,6.8,3.2,11.8,7.1,15c3.9,3.2,9.7,4.8,17.3,4.8c2.9,0,6.1-0.5,9.7-1.4
			c3.6-0.9,6.5-2,8.8-3.2l-2.2-12c-2.1,0.6-4,0.9-5.9,0.9c-3.1,0-5.3-0.7-6.6-2.2c-1.3-1.4-2-3.8-2-7.1c0-1,0-2.1,0.2-3.1
			c0.1-1,0.2-2.2,0.5-3.4L2679.9,117.4z M2642.1,123.7c3.2,0.7,6.4,2.1,9.7,4.2l-11.1,67.9c-1.2,7.2-3.5,13.6-6.9,19.1
			c-3.4,5.6-7.8,10-13.1,13.4c-5.4,3.4-10.8,5.1-16.4,5.1c-16.7,0-25-10.5-25-31.5c0-13.6,2.3-26.4,6.8-38.4
			c4.5-12,10.8-21.9,18.8-29.5c8-7.6,16.8-11.4,26.2-11.4C2635.3,122.6,2638.9,123,2642.1,123.7 M2515.4,215.5
			c-9.7,12.8-21.2,19.1-34.6,19.1c-9.7,0-17.3-3.4-23-10.3c-5.7-6.9-8.5-16.3-8.5-28.2c0-12.8,2.1-24.6,6.2-35.6
			c4.1-11,9.9-19.9,17.4-26.8c7.5-6.9,15.8-10.3,24.8-10.3c7.8,0,14.2,1.6,19.1,4.8c4.9,3.2,8.6,8.2,11.1,15l4.9-2.8
			c3.3-1.9,5.6-3.7,6.8-5.6s1.9-4.2,1.9-7.1c0-3.1-1-6-3.1-8.6c-8.4-11.1-21.3-16.7-38.6-16.7c-13.8,0-26.5,4-38.3,11.9
			c-11.7,7.9-21.1,19-28.2,33.3c-7.1,14.3-10.6,30.6-10.6,48.9c0,18.7,4.8,33.2,14.5,43.5c9.7,10.3,23.1,15.4,40.4,15.4
			c18.3,0,32.6-5.4,42.9-16c3.5-3.9,5.2-7.4,5.2-10.5c0-3.9-2.2-7.4-6.5-10.5L2515.4,215.5z M2383.5,249.3c3.6-4,5.4-9,5.4-15
			c0-4.9-1.4-8.9-4.2-12c-2.8-3.1-6.4-4.6-11-4.6c-5.8,0-10.4,2-14,6c-3.6,4-5.4,9-5.4,15c0,4.9,1.4,8.9,4.2,12
			c2.8,3.1,6.4,4.6,11,4.6C2375.2,255.3,2379.9,253.3,2383.5,249.3 M2230,161.8c0-10.3,2.5-18.4,7.4-24.4c4.9-6,11.7-8.9,20.4-8.9
			c17.5,0,26.2,11.1,26.2,33.3H2230z M2241.7,214.3c-6.8-6.8-10.6-16.6-11.4-29.3h90.7c0.6-2.9,0.9-9.3,0.9-19.1
			c0-20.4-5.5-36.4-16.5-48c-11-11.6-26.6-17.4-46.8-17.4c-13.4,0-25.5,3-36.3,8.9c-10.8,6-19.2,14.5-25.3,25.6
			c-6.1,11.1-9.1,24.5-9.1,40.1c0,26.3,6.7,46.4,20.2,60.2c13.5,13.8,32.8,20.7,57.9,20.7c9.5,0,18.3-1.1,26.5-3.2
			c8.2-2.2,14.8-5.1,19.7-8.8c5.1-3.7,7.7-7.8,7.7-12.3c0-2.7-1.2-6.3-3.5-11c-2.4-4.6-5.1-8.9-8.2-12.8c-2.5,2.3-5.4,4.7-8.6,7.3
			c-3.3,2.6-7.4,4.8-12.2,6.6c-4.8,1.9-10.6,2.8-17.4,2.8C2258,224.5,2248.5,221.1,2241.7,214.3 M2103.6,107.5
			c-4.6-2.7-10.4-4-17.4-4c-3.5,0-6.9,0.2-10.2,0.6l-3.7,0.6v146h42v-95c0-5.1,2.2-9.6,6.6-13.3s9.7-5.6,15.9-5.6
			c4.3,0,8.2,0.7,11.7,2s7.2,3.7,11.1,6.9c1.9-3.1,3.5-6.5,5.1-10.3c1.5-3.8,2.8-7.5,3.7-11.1c0.9-3.6,1.4-6.6,1.4-9.1
			c0-4.7-2.1-8.4-6.3-11c-4.2-2.6-9.9-3.9-17.1-3.9c-6.6,0-12.9,1.7-19,5.2c-6.1,3.5-11.1,8-15,13.6
			C2111.2,114.1,2108.3,110.2,2103.6,107.5 M1993.9,255.3c7.8,0,15.1-1,21.8-2.9s12.2-4.7,16.5-8.2c4.3-3.5,6.5-7.2,6.5-11.1
			c0-2.5-0.7-5.2-2-8.3s-3.9-7.3-7.6-12.7c-3.1,3.1-6.8,5.7-11.1,7.7c-4.3,2.1-8.5,3.1-12.7,3.1c-11.7,0-17.6-7.2-17.6-21.6v-66
			h43.2v-31.5h-43.2V82.2c0-16.5-9.3-24.7-27.8-24.7c-2.7,0-5.9,0.2-9.6,0.6l-4.6,0.6v143.2c0,10.9,1.1,19.7,3.4,26.5
			C1955.8,246.4,1970.7,255.3,1993.9,255.3 M1806.6,150.7c0-4.7,2.7-8.7,8-11.9s11.9-4.8,19.7-4.8c5.6,0,9.9,0.9,13.1,2.6
			s5.4,4.6,6.8,8.5c1.3,3.9,2,10.7,2,20.4v85.2h42v-87c0-14-0.8-24.6-2.5-31.8c-2.3-10.7-7.2-18.6-14.8-23.8s-18-7.7-31.2-7.7
			c-20.8,0-35.9,6.4-45.4,19.1c-2.3-10.7-11-16-26.2-16c-3.5,0-6.9,0.2-10.2,0.6l-3.7,0.6v146h42.3V150.7z M1632.3,161.8
			c0-10.3,2.5-18.4,7.4-24.4c4.9-6,11.7-8.9,20.4-8.9c17.5,0,26.2,11.1,26.2,33.3H1632.3z M1644,214.3c-6.8-6.8-10.6-16.6-11.4-29.3
			h90.7c0.6-2.9,0.9-9.3,0.9-19.1c0-20.4-5.5-36.4-16.5-48c-11-11.6-26.6-17.4-46.8-17.4c-13.4,0-25.4,3-36.2,8.9
			c-10.8,6-19.2,14.5-25.3,25.6c-6.1,11.1-9.1,24.5-9.1,40.1c0,26.3,6.7,46.4,20.2,60.2c13.5,13.8,32.8,20.7,57.9,20.7
			c9.5,0,18.3-1.1,26.5-3.2c8.2-2.2,14.8-5.1,19.7-8.8c5.2-3.7,7.7-7.8,7.7-12.3c0-2.7-1.2-6.3-3.5-11c-2.4-4.6-5.1-8.9-8.2-12.8
			c-2.5,2.3-5.3,4.7-8.6,7.3c-3.3,2.6-7.4,4.8-12.2,6.6c-4.8,1.9-10.6,2.8-17.4,2.8C1660.3,224.5,1650.8,221.1,1644,214.3
			 M1492.1,212c-6.3-8.1-9.4-19.9-9.4-35.3c0-14.6,3.2-25.7,9.6-33.2c6.4-7.5,15.7-11.3,28.1-11.3c6.8,0,13.4,1.5,19.9,4.5
			c6.5,3,11.8,6.7,15.9,11.3c2.9-3.5,5.2-7.4,7.1-11.6c1.9-4.2,2.8-7.8,2.8-10.6c0-3.1-0.8-5.8-2.3-8c-1.5-2.3-4.3-4.6-8.2-7.1
			c-4.9-3.3-11-5.8-18.2-7.6c-7.2-1.7-14.9-2.6-23.1-2.6c-13.8,0-26.4,3-38,9.1c-11.5,6.1-20.4,14.8-26.7,26.1
			c-6.3,11.3-9.4,25.2-9.4,41.7c0,16.7,2.9,30.8,8.6,42.4c5.8,11.6,14.3,20.6,25.6,26.8c11.3,6.3,24.6,9.4,39.8,9.4
			c19.1,0,33.8-3.9,44.1-11.7c4.3-3.3,6.5-7.3,6.5-12c0-3.1-1.1-7-3.4-11.7c-2.3-4.7-4.6-8.4-7.1-11.1c-3.5,4.3-8.3,7.9-14.5,10.6
			c-6.2,2.8-12.8,4.2-19.7,4.2C1507.6,224.2,1498.3,220.1,1492.1,212 M1401.5,228.2c0-3.9-2.2-7.4-6.5-10.5l-4-2.8
			c-10.7,13.2-23.9,19.7-39.5,19.7c-10.1,0-18.1-3.4-23.9-10.2c-5.9-6.8-8.8-16.2-8.8-28.1v-4c2.9,0.2,7.7,0.3,14.5,0.3
			c14.6,0,28-2.2,40.3-6.5c12.2-4.3,21.8-10.5,28.7-18.7c6.9-8.1,10.3-17.9,10.3-29.2c0-11.1-3.6-19.9-10.8-26.4
			c-7.2-6.5-17-9.7-29.3-9.7c-14,0-27,4-39,11.9c-12,7.9-21.8,19.1-29.2,33.5c-7.4,14.4-11.1,30.8-11.1,49.1
			c0,18.7,4.8,33.2,14.5,43.4c9.7,10.2,23.3,15.3,40.7,15.3c20.6,0,36.4-5.6,47.5-16.7C1399.6,235,1401.5,231.4,1401.5,228.2
			 M1321.3,174.5c2.9-15.2,8.7-27.6,17.6-37.2c8.8-9.6,19.1-14.3,30.9-14.3c11.9,0,17.9,5.8,17.9,17.3c0,10.3-5.4,18.6-16.2,25
			c-10.8,6.4-24.5,9.6-41.2,9.6C1326.5,174.8,1323.5,174.7,1321.3,174.5 M1295.3,33c-6.2-2.4-13.1-3.5-20.7-3.5
			c-33.1,0-53,20.2-59.6,60.5l-27.2,165.7c-4.1,25.1-13.4,37.6-27.8,37.6c-4.7,0-8.9-0.8-12.7-2.5c-3.7-1.7-7.1-4.3-10.2-8l-4.9,4.9
			c-2.7,2.9-4,6.2-4,9.9c0,3.3,1.3,6.3,4,8.9c5.8,5.4,15.3,8,28.7,8c14.6,0,26.2-4.7,34.7-14c8.5-9.4,14.5-24.6,18.1-45.8l21.3-129
			h47.2l3.4-20.7h-47.2l3.1-18.8c3.7-23.9,14.4-35.8,32.1-35.8c12.3,0,21.2,5.4,26.5,16l4.9-2.8c5.6-3.1,8.3-7.2,8.3-12.3
			c0-2.9-1.2-5.8-3.7-8.6C1306.3,38.6,1301.5,35.3,1295.3,33 M1163.4,69.9c3.4-3.7,5.1-8.3,5.1-13.9c0-4.7-1.3-8.5-3.9-11.4
			c-2.6-2.9-6-4.3-10.3-4.3c-5.4,0-9.7,1.9-13.1,5.6c-3.4,3.7-5.1,8.4-5.1,14.2c0,4.5,1.3,8.2,3.9,11.1c2.6,2.9,6,4.3,10.3,4.3
			C1155.7,75.4,1160,73.6,1163.4,69.9 M1153.4,236.2c-2.1,0.6-4,0.9-5.9,0.9c-3.1,0-5.3-0.7-6.6-2.2c-1.3-1.4-2-3.8-2-7.1
			c0-1,0-2.1,0.2-3.1c0.1-1,0.3-2.2,0.5-3.4l15.1-90.7c0.4-2.9,0.6-5.4,0.6-7.4c0-6-1.5-10.5-4.5-13.7c-3-3.2-7.3-4.8-12.8-4.8
			c-1.7,0-3.5,0.2-5.6,0.6l-19.4,117c-0.2,1.2-0.4,2.4-0.5,3.5c-0.1,1.1-0.2,2.2-0.2,3.2c-0.2,7.6,1.8,13.5,6,17.6
			c4.2,4.1,10.4,6.2,18.7,6.2c2.9,0,6.1-0.5,9.7-1.4c3.6-0.9,6.5-2,8.8-3.2L1153.4,236.2z M1086.7,57.5c0.2-1.2,0.4-2.6,0.6-4
			c0.2-1.4,0.3-2.8,0.3-4c0-11.9-5.9-17.9-17.6-17.9c-1.7,0-3.5,0.2-5.6,0.6L1033,222.3c-0.2,1.2-0.4,2.4-0.5,3.5
			c-0.1,1.1-0.2,2.2-0.2,3.2c0,15.8,8.2,23.8,24.7,23.8c2.9,0,6.1-0.5,9.7-1.4c3.6-0.9,6.5-2,8.8-3.2l-2.2-12
			c-2.1,0.6-4,0.9-5.9,0.9c-3.1,0-5.3-0.7-6.6-2.2c-1.3-1.4-2-3.8-2-7.1c0-1,0-2.1,0.2-3.1c0.1-1,0.3-2.2,0.5-3.4L1086.7,57.5z
			 M945.7,210.6c0,3.7-3,7.4-9.1,11c-6.1,3.6-12.7,5.4-19.9,5.4c-7,0-12.3-1.8-16-5.4c-3.7-3.6-5.6-8.7-5.6-15.3
			c0-8,3.3-14.2,9.9-18.7c6.6-4.4,17.3-7.1,32.1-8.2c1.4-0.2,2.9-0.3,4.3-0.3h4.3V210.6z M985.2,156.9c0-19.9-4.7-34.4-14.2-43.2
			s-24.9-13.3-46.3-13.3c-9.7,0-19,1-28.1,3.1c-9.1,2.1-16.6,4.9-22.7,8.5c-6.1,3.6-9.1,7.4-9.1,11.3c0,2.3,0.9,5.6,2.8,9.9
			c1.9,4.3,4.1,8,6.8,11.1c10.1-5.8,18.3-9.6,24.7-11.4c6.4-1.9,12.8-2.8,19.1-2.8c9.7,0,16.6,1.7,20.7,5.1
			c4.1,3.4,6.2,8.9,6.2,16.5v5.6c-6,0-10.6,0.1-13.9,0.3c-50.4,2.7-75.6,19.9-75.6,51.8c0,14.4,4.4,25.6,13.1,33.5
			s20.1,11.9,34.1,11.9c9.5,0,18.1-1.4,25.8-4.3c7.7-2.9,14.1-7.1,19.3-12.7c1.2,5.8,3.8,10,7.7,12.7c3.9,2.7,9.4,4,16.4,4
			c6.4,0,13.2-1.3,20.4-4c-4.7-7.6-7.1-19.4-7.1-35.5V156.9z M751.9,132.2c4.1,0,8.2,0.9,12.3,2.6c4.1,1.7,7.5,4,10.2,6.6v69.4
			c0,4.3-2,7.8-6,10.3c-4,2.6-9.2,3.9-15.6,3.9c-11.1,0-19.3-3.7-24.5-11.3c-5.2-7.5-7.9-19.6-7.9-36.3
			C720.5,147.3,730.9,132.2,751.9,132.2 M816.4,250.7V56.6c0-16.5-9.3-24.7-27.8-24.7c-2.7,0-5.6,0.2-8.8,0.5
			c-3.2,0.3-5,0.6-5.4,0.8v81.5c-4.3-4.5-9.6-8-15.7-10.5c-6.2-2.5-13-3.7-20.4-3.7c-12.1,0-22.8,3.1-32.1,9.3
			c-9.3,6.2-16.4,15.2-21.4,27c-5,11.8-7.6,26.2-7.6,43c0,24.3,5.1,42.8,15.4,55.5c10.3,12.8,24.9,19.1,43.8,19.1
			c8.6,0,16.6-1.5,23.9-4.5c7.3-3,13-6.9,17.1-11.9c0,3.9,1,7,3.1,9.3c2.1,2.3,4.8,3.4,8.3,3.4H816.4z M595.2,210.6
			c0,3.7-3,7.4-9.1,11c-6.1,3.6-12.7,5.4-19.9,5.4c-7,0-12.3-1.8-16-5.4c-3.7-3.6-5.6-8.7-5.6-15.3c0-8,3.3-14.2,9.9-18.7
			c6.6-4.4,17.3-7.1,32.1-8.2c1.4-0.2,2.9-0.3,4.3-0.3h4.3V210.6z M634.7,156.9c0-19.9-4.7-34.4-14.2-43.2
			c-9.5-8.8-24.9-13.3-46.3-13.3c-9.7,0-19,1-28.1,3.1c-9.1,2.1-16.6,4.9-22.7,8.5c-6.1,3.6-9.1,7.4-9.1,11.3c0,2.3,0.9,5.6,2.8,9.9
			c1.9,4.3,4.1,8,6.8,11.1c10.1-5.8,18.3-9.6,24.7-11.4c6.4-1.9,12.7-2.8,19.1-2.8c9.7,0,16.6,1.7,20.7,5.1
			c4.1,3.4,6.2,8.9,6.2,16.5v5.6c-6,0-10.6,0.1-13.9,0.3c-50.4,2.7-75.6,19.9-75.6,51.8c0,14.4,4.4,25.6,13.1,33.5
			c8.7,7.9,20.1,11.9,34.1,11.9c9.5,0,18.1-1.4,25.8-4.3c7.7-2.9,14.1-7.1,19.3-12.7c1.2,5.8,3.8,10,7.7,12.7c3.9,2.7,9.4,4,16.4,4
			c6.4,0,13.2-1.3,20.4-4c-4.7-7.6-7.1-19.4-7.1-35.5V156.9z M374.2,150.7c0-4.7,2.7-8.7,8-11.9c5.3-3.2,11.9-4.8,19.7-4.8
			c5.6,0,9.9,0.9,13.1,2.6c3.2,1.7,5.4,4.6,6.8,8.5c1.3,3.9,2,10.7,2,20.4v85.2h42v-87c0-14-0.8-24.6-2.5-31.8
			c-2.3-10.7-7.2-18.6-14.8-23.8c-7.6-5.1-18-7.7-31.2-7.7c-20.8,0-35.9,6.4-45.4,19.1c-2.3-10.7-11-16-26.2-16
			c-3.5,0-6.9,0.2-10.2,0.6l-3.7,0.6v146h42.3V150.7z M243.7,210.6c0,3.7-3,7.4-9.1,11c-6.1,3.6-12.7,5.4-19.9,5.4
			c-7,0-12.3-1.8-16-5.4c-3.7-3.6-5.6-8.7-5.6-15.3c0-8,3.3-14.2,9.9-18.7c6.6-4.4,17.3-7.1,32.1-8.2c1.4-0.2,2.9-0.3,4.3-0.3h4.3
			V210.6z M283.2,156.9c0-19.9-4.7-34.4-14.2-43.2c-9.5-8.8-24.9-13.3-46.3-13.3c-9.7,0-19,1-28.1,3.1c-9.1,2.1-16.6,4.9-22.7,8.5
			c-6.1,3.6-9.1,7.4-9.1,11.3c0,2.3,0.9,5.6,2.8,9.9c1.9,4.3,4.1,8,6.8,11.1c10.1-5.8,18.3-9.6,24.7-11.4c6.4-1.9,12.7-2.8,19.1-2.8
			c9.7,0,16.6,1.7,20.7,5.1c4.1,3.4,6.2,8.9,6.2,16.5v5.6c-6,0-10.6,0.1-13.9,0.3c-50.4,2.7-75.6,19.9-75.6,51.8
			c0,14.4,4.4,25.6,13.1,33.5c8.7,7.9,20.1,11.9,34.1,11.9c9.5,0,18.1-1.4,25.8-4.3c7.7-2.9,14.1-7.1,19.3-12.7
			c1.2,5.8,3.8,10,7.7,12.7c3.9,2.7,9.4,4,16.4,4c6.4,0,13.2-1.3,20.4-4c-4.7-7.6-7.1-19.4-7.1-35.5V156.9z M54.1,212
			c-6.3-8.1-9.4-19.9-9.4-35.3c0-14.6,3.2-25.7,9.6-33.2s15.7-11.3,28.1-11.3c6.8,0,13.4,1.5,19.9,4.5c6.5,3,11.8,6.7,15.9,11.3
			c2.9-3.5,5.2-7.4,7.1-11.6c1.9-4.2,2.8-7.8,2.8-10.6c0-3.1-0.8-5.8-2.3-8c-1.5-2.3-4.3-4.6-8.2-7.1c-4.9-3.3-11-5.8-18.2-7.6
			c-7.2-1.7-14.9-2.6-23.1-2.6c-13.8,0-26.4,3-38,9.1s-20.4,14.8-26.7,26.1c-6.3,11.3-9.4,25.2-9.4,41.7c0,16.7,2.9,30.8,8.6,42.4
			c5.8,11.6,14.3,20.6,25.6,26.8c11.3,6.3,24.6,9.4,39.8,9.4c19.1,0,33.8-3.9,44.1-11.7c4.3-3.3,6.5-7.3,6.5-12
			c0-3.1-1.1-7-3.4-11.7c-2.3-4.7-4.6-8.4-7.1-11.1c-3.5,4.3-8.3,7.9-14.5,10.6c-6.2,2.8-12.8,4.2-19.7,4.2
			C69.7,224.2,60.4,220.1,54.1,212"/>
	</g>
</g>
</svg>
