<?xml version="1.0" encoding="utf-8"?>
<!-- Generator: Adobe Illustrator 26.0.2, SVG Export Plug-In . SVG Version: 6.00 Build 0)  -->
<svg version="1.1" id="_x3C_Layer_x3E_" xmlns="http://www.w3.org/2000/svg" xmlns:xlink="http://www.w3.org/1999/xlink" x="0px"
	 y="0px" viewBox="0 0 723 489.6" style="enable-background:new 0 0 723 489.6;" xml:space="preserve">
<style type="text/css">
	.st0{fill:#C5A463;}
	.st1{fill:#FFFFFF;}
</style>
<g>
	<path class="st0" d="M221.6,474.5c-2.7-1.5-5.9-3.2-9.4-5.1c-3.5-2-7.3-4.3-11.5-6.7c-4.1-2.6-8.6-5.3-13.2-8.5
		c-2.4-1.6-4.9-3.3-7.5-5.1c0-0.3,0.1-0.8,0.1-1.3c0.1-0.6,0.1-1.4,0.1-2.2c0,0,0,0,0,0c0.3,0,0.7-0.1,1.3-0.2
		c1.5-0.5,3.9-1.7,6.3-3.7c1.8-1.5,3.7-3.3,5.3-5.5c5.2-6.5,8.2-16.4,9.6-28.4c0.1-0.4,0.1-0.8,0.1-1.2c1-11.7-4.7-22.8-8.7-31
		c-1.6-2.9-3-5.5-4.2-7.5c-1.6-2.8-2.8-4.7-3.8-5.5c-0.4-0.3-0.7-0.5-1-0.5c-1.4-0.1-4.6,2.3-7.5,6.4c-1.1,1.5-2.2,3.3-3.1,5.3
		c-3.7,7.3-5.7,17.6-6.8,28.6c0,0.4-0.1,0.8-0.1,1.2c-0.6,10.5,2.8,20.6,5.3,28.2c0.8,2.2,1.5,4.2,2.2,5.9c1.5,3.7,2.7,6.3,4,7.4
		c0,0.1,0,0.3-0.1,0.4c-0.1,0.8-0.2,1.5-0.3,2.1c0,0.2-0.1,0.4-0.1,0.5c-6.8-4.9-13.9-10.4-21.2-16.6c-6.9-5.8-13.9-12.3-20.8-19.4
		c0.1-0.3,0.1-0.6,0.2-0.9c0.1-0.6,0.2-1.4,0.4-2.1c0,0,0,0,0,0c0.3,0.1,0.7,0.1,1.3,0c1.6-0.3,4.1-1.2,6.8-2.7
		c2-1.2,4.1-2.7,6.1-4.7c6-5.7,10.5-15,13.5-26.7c0.1-0.4,0.2-0.8,0.3-1.2c2.7-11.4-1.3-23.3-4.2-31.9c-1.2-3.1-2.2-5.8-3-8
		c-1.2-3-2.1-5.1-2.9-6c-0.3-0.4-0.6-0.6-0.9-0.6c-1.4-0.3-4.8,1.6-8.3,5.2c-1.3,1.4-2.6,3-3.8,4.8c-4.7,6.7-8.2,16.6-10.8,27.3
		c-0.1,0.4-0.2,0.8-0.3,1.2c-2.1,10.4-0.2,20.8,1.2,28.7c0.5,2.3,0.9,4.4,1.4,6.2c0.9,3.9,1.8,6.7,2.9,7.9c0,0.1-0.1,0.3-0.1,0.4
		c-0.2,0.7-0.4,1.4-0.6,2c0,0.1,0,0.1-0.1,0.1c-3.3-3.4-6.6-6.9-9.8-10.6c-9.1-10.3-17.8-21.9-25.7-34.5c0.1-0.2,0.1-0.4,0.2-0.6
		c0.2-0.6,0.5-1.3,0.7-2c0,0,0,0,0,0c0.3,0.1,0.7,0.2,1.3,0.2c1.6,0,4.2-0.5,7.1-1.6c2.2-0.8,4.5-2,6.7-3.6
		c6.9-4.7,12.8-13.1,17.7-24.2c0.2-0.4,0.3-0.7,0.5-1.1c4.5-10.8,2.5-23.2,1.1-32.1c-0.6-3.3-1.2-6.1-1.7-8.4
		c-0.7-3.1-1.3-5.3-1.9-6.4c-0.2-0.4-0.5-0.7-0.8-0.7c-1.3-0.5-5,0.8-9.1,3.8c-1.5,1.1-3.1,2.5-4.5,4.1c-5.8,5.9-10.8,15-15.2,25.2
		c-0.2,0.4-0.3,0.8-0.5,1.2c-3.7,9.9-3.6,20.5-3.5,28.5c0.1,2.3,0.2,4.4,0.3,6.3c0.3,4,0.7,6.9,1.5,8.3c-0.1,0.1-0.1,0.3-0.2,0.4
		c-0.3,0.6-0.6,1.2-0.8,1.7c-0.9-1.4-1.8-2.8-2.6-4.3c-4.4-7.4-8.5-15.1-12.3-23.1c-3.7-8-7.1-16.4-10.1-24.9
		c-0.1-0.3-0.2-0.6-0.3-0.8c0.1-0.1,0.2-0.3,0.3-0.5c0.4-0.5,0.7-1.2,1.1-1.8c0,0,0,0,0,0c0.2,0.2,0.7,0.3,1.2,0.4
		c1.6,0.3,4.2,0.4,7.3-0.1c2.3-0.4,4.8-1.1,7.3-2.2c7.7-3.2,15.2-10.2,22.3-20c0.2-0.3,0.5-0.6,0.7-1c6.6-9.6,7.2-22.2,7.6-31.2
		c0.1-3.3,0.1-6.2,0.1-8.6c0-3.2-0.2-5.5-0.6-6.7c-0.2-0.5-0.4-0.8-0.6-0.9c-1.2-0.8-5.1-0.3-9.7,1.9c-1.7,0.8-3.5,1.8-5.3,3.1
		c-6.8,4.6-13.6,12.5-20,21.6c-0.2,0.3-0.5,0.7-0.7,1c-5.7,8.9-7.7,19.3-9.3,27.2c-0.4,2.3-0.7,4.4-1,6.2c-0.5,4-0.7,6.9-0.2,8.4
		c-0.1,0.1-0.2,0.2-0.3,0.3c-0.4,0.5-0.7,1-1.1,1.4c-5.5-16.4-9.4-33.6-11.5-51.1c-0.3-2.9-0.6-5.8-0.9-8.6c0.2-0.2,0.6-0.7,1.2-1.3
		c0.4-0.4,0.9-0.9,1.3-1.5c0,0,0,0,0,0c0.2,0.2,0.5,0.4,1,0.6c1.4,0.6,3.8,1.1,6.7,1.1c2.1,0.1,4.6-0.1,7-0.7
		c7.5-1.6,15.5-6.7,23.6-14.4c0.3-0.2,0.5-0.5,0.8-0.8c7.7-7.6,10.3-18.9,12.3-27c0.6-3,1.2-5.6,1.5-7.8c0.5-2.9,0.8-5,0.6-6.2
		c-0.1-0.4-0.2-0.8-0.4-0.9c-0.9-0.9-4.6-1.1-9.1,0.1c-1.7,0.4-3.5,1.1-5.3,1.9c-7,3-14.5,9-21.8,16.2c-0.3,0.3-0.5,0.5-0.8,0.8
		c-6.7,7.1-10.3,16.2-13,23.1c-0.7,2-1.4,3.9-1.9,5.5c-1.2,3.5-1.8,6.1-1.6,7.6c-0.1,0.1-0.2,0.2-0.3,0.3c-0.5,0.5-1,0.9-1.5,1.3
		c-0.2,0.2-0.4,0.3-0.6,0.5C60,234,60,219.1,61,204.4c0.4-5,0.8-10,1.4-15c0.3-0.2,0.7-0.4,1.3-0.8c0.5-0.3,1-0.7,1.6-1c0,0,0,0,0,0
		c0.1,0.2,0.4,0.5,0.8,0.8c1.1,0.9,3.2,1.9,5.9,2.7c2,0.6,4.3,1,6.7,1.1c7.4,0.4,16.1-2.3,25.6-7.5c0.3-0.2,0.6-0.3,0.9-0.5
		c9.1-5.2,14.3-15,18.2-22.1c1.3-2.7,2.5-4.9,3.4-6.9c1.2-2.6,2-4.5,2.1-5.6c0.1-0.4,0-0.7-0.1-0.9c-0.7-1.1-4-2.2-8.5-2.2
		c-1.7,0-3.5,0.1-5.4,0.4c-7.2,1-15.7,4.7-24.3,9.6c-0.3,0.2-0.6,0.4-1,0.6c-8,4.9-13.7,12.5-17.9,18.2c-1.2,1.7-2.3,3.2-3.2,4.6
		c-2,3-3.2,5.2-3.4,6.7c-0.1,0.1-0.2,0.1-0.3,0.2c-0.6,0.3-1.2,0.6-1.7,0.8c-0.2,0.1-0.4,0.2-0.6,0.3c1.6-12.4,3.9-24.4,6.9-36.1
		c1.5-6,3.3-11.8,5.1-17.5c0.2-0.1,0.4-0.2,0.6-0.3c0.5-0.2,1.1-0.6,1.7-0.9c0,0,0,0,0,0c0.1,0.2,0.4,0.5,0.7,0.9c1,1,3,2.3,5.6,3.3
		c1.9,0.8,4.2,1.5,6.6,1.8c7.3,1.2,16.3-0.7,26.3-4.8c0.3-0.1,0.7-0.3,1-0.4c9.5-4.2,15.8-13.5,20.4-20.1c1.6-2.5,3-4.7,4.1-6.5
		c1.5-2.4,2.4-4.2,2.7-5.3c0.1-0.4,0.1-0.7,0-1c-0.5-1.1-3.7-2.6-8.2-3.1c-1.7-0.2-3.5-0.3-5.4-0.1c-7.3,0.3-16.2,3.1-25.2,7
		c-0.3,0.2-0.7,0.3-1,0.5c-8.5,4.1-14.9,11-19.7,16.3c-1.4,1.6-2.6,3-3.7,4.3c-2.3,2.8-3.8,4.9-4.1,6.3c-0.1,0-0.2,0.1-0.4,0.1
		c-0.5,0.2-1,0.4-1.5,0.6c3.3-9.8,6.9-19.2,10.9-28.1c4.2-9.3,8.7-18,13.3-26.2c0.2,0,0.8-0.2,1.4-0.3c0.5-0.1,1-0.2,1.6-0.4
		c0,0,0,0,0,0c0,0.2,0.2,0.5,0.4,0.9c0.7,1,2.1,2.5,4.1,4c1.5,1.1,3.2,2.1,5.3,2.9c6,2.5,14,2.8,23.4,1.3c0.3,0,0.6-0.1,0.9-0.1
		c9-1.6,16.2-8.3,21.5-13c1.9-1.8,3.5-3.4,4.8-4.7c1.8-1.8,2.9-3.1,3.4-4c0.2-0.3,0.2-0.6,0.2-0.8c-0.2-1.1-2.6-3-6.4-4.3
		c-1.4-0.5-2.9-0.9-4.6-1.2c-6.3-1.3-14.4-0.7-22.9,0.8c-0.3,0.1-0.6,0.1-1,0.2c-8.1,1.8-15,6.4-20.2,9.9c-1.5,1.1-2.8,2-4,2.9
		c-2.5,1.9-4.2,3.4-4.7,4.5c-0.1,0-0.2,0-0.3,0c-0.6,0.1-1.1,0.2-1.6,0.2c-0.2,0-0.4,0-0.6,0.1c2.4-4.1,4.8-8.1,7.2-12
		c4.6-7.2,9.2-13.9,13.8-20c1.1,0.5,3.6,0.1,7-1c1.4-0.4,2.9-1,4.6-1.6c5.6-2.3,12.7-5.8,17.9-11.9c0.2-0.2,0.4-0.5,0.6-0.7
		c5.2-6.6,9.7-13.2,12.3-18.8c0.7-1.5,1.3-2.9,1.7-4.2c1.1-3.5,1.2-6.2,0.4-7c-0.1-0.2-0.4-0.3-0.8-0.3c-1-0.2-2.9-0.1-5.4,0.3
		c-1.9,0.2-4.1,0.6-6.7,1.1C145.9,3,137,5.6,131.4,12.6c-0.2,0.2-0.4,0.5-0.6,0.7c-5.6,7.4-9.4,14.3-10.7,20.4
		c-0.5,2-0.7,3.9-0.7,5.6c0,2.3,0.4,4.2,0.8,5.2c0.1,0.2,0.1,0.3,0.2,0.4c-4.7,6.1-9.4,12.7-14.1,20c-2.6,4-5.2,8.3-7.8,12.7
		c0-0.1,0-0.1-0.1-0.2c-0.2-0.5-0.3-1-0.4-1.6c0-0.1-0.1-0.2-0.1-0.3c0.9-0.9,1.6-3,2.5-6.1c0.4-1.4,0.8-3,1.3-4.8
		c1.4-6.1,3.1-14.2,1.9-22.4c-0.1-0.3-0.1-0.6-0.2-1c-1.7-8.5-4.1-16.3-7.5-21.7c-0.9-1.5-1.8-2.8-2.8-3.9c-2.6-3-5.2-4.5-6.3-4.4
		c-0.2,0-0.4,0.2-0.7,0.4c-0.7,0.7-1.5,2.3-2.5,4.6c-0.8,1.7-1.6,3.8-2.6,6.2c-2.5,6.6-6,15.8-4.3,24.8c0.1,0.3,0.1,0.6,0.2,0.9
		c2,9.3,5.1,16.7,9.7,21.3c1.4,1.6,3,2.9,4.6,3.9c2.1,1.3,4,2.1,5.2,2.4c0.5,0.1,0.8,0.1,1,0.1c0,0,0,0,0,0c0.1,0.6,0.1,1.2,0.2,1.7
		c0.1,0.6,0.2,1,0.2,1.3c-4.6,7.9-9,16.3-13.1,25.3c-4.3,9.3-8.3,19.1-11.8,29.4c0,0,0-0.1,0-0.1c-0.2-0.5-0.4-1.1-0.7-1.8
		c0-0.1-0.1-0.2-0.1-0.4c0.9-1.2,1.5-3.7,2.1-7.2c0.3-1.6,0.5-3.5,0.8-5.6c0.8-7.1,1.8-16.5-0.7-25.6c-0.1-0.4-0.2-0.7-0.3-1.1
		c-3-9.4-6.7-17.9-11.3-23.6c-1.2-1.6-2.4-2.9-3.7-4c-3.3-3-6.5-4.5-7.7-4.1c-0.2,0-0.5,0.2-0.7,0.6c-0.7,0.9-1.4,2.8-2.2,5.5
		c-0.6,2-1.4,4.5-2.2,7.3c-2,7.8-4.9,18.6-1.7,28.6c0.1,0.3,0.2,0.7,0.3,1c3.4,10.2,7.9,18.2,13.7,22.9c1.8,1.6,3.8,2.9,5.7,3.8
		c2.5,1.2,4.8,1.9,6.2,2c0.5,0.1,0.9,0,1.2,0c0,0,0,0,0,0c0.2,0.7,0.3,1.3,0.5,1.9c0.2,0.7,0.4,1.3,0.5,1.6
		c-1.7,5.2-3.3,10.4-4.8,15.8c-3.2,11.8-5.7,24.1-7.5,36.7c-0.3-0.3-0.6-0.7-0.9-1.1c-0.1-0.1-0.2-0.2-0.2-0.3
		c0.5-1.4,0.3-3.9-0.1-7.5c-0.2-1.6-0.5-3.5-0.8-5.6c-1.3-7-3.1-16.3-8.1-24.2c-0.2-0.3-0.4-0.6-0.6-0.9
		c-5.6-8.1-11.6-15.2-17.7-19.3c-1.6-1.1-3.2-2.1-4.7-2.8c-4.1-1.9-7.5-2.4-8.6-1.7c-0.2,0.1-0.4,0.4-0.5,0.8
		c-0.4,1.1-0.5,3.1-0.5,5.9c0,2.1,0,4.7,0,7.7c0.4,8.1,0.8,19.2,6.7,27.8c0.2,0.3,0.4,0.6,0.6,0.9c6.3,8.8,12.9,15.1,19.8,17.9
		c2.2,1,4.5,1.6,6.5,2c2.8,0.5,5.1,0.4,6.5,0.1c0.5-0.1,0.9-0.2,1.1-0.4c0,0,0,0,0,0c0.4,0.6,0.7,1.2,1,1.6c0.1,0.2,0.3,0.4,0.4,0.6
		c-0.6,4.8-1.2,9.7-1.6,14.5c-1.2,14.6-1.3,29.5-0.4,44.4c-0.2-0.2-0.4-0.3-0.6-0.5c-0.1-0.1-0.2-0.2-0.3-0.3
		c0.2-1.5-0.4-4.1-1.6-7.6c-0.5-1.6-1.2-3.5-1.9-5.5c-2.7-6.9-6.4-16-13-23.1c-0.3-0.3-0.5-0.6-0.8-0.8
		c-7.3-7.2-14.8-13.2-21.8-16.2c-1.8-0.8-3.6-1.5-5.3-1.9c-4.5-1.2-8.1-1-9.1-0.1c-0.2,0.2-0.3,0.5-0.4,0.9
		c-0.2,1.2,0.1,3.2,0.6,6.2c0.4,2.2,0.9,4.8,1.5,7.8c2,8.1,4.6,19.4,12.3,27c0.3,0.3,0.5,0.5,0.8,0.8c8.1,7.7,16.1,12.8,23.6,14.4
		c2.5,0.6,4.9,0.8,7,0.7c2.9-0.1,5.3-0.6,6.7-1.1c0.5-0.2,0.9-0.4,1-0.6c0,0,0,0,0,0c0.5,0.5,0.9,1.1,1.3,1.5
		c0.2,3.2,0.5,6.3,0.8,9.5c1.9,17.5,5.7,34.8,10.9,51.4c0,0,0,0,0,0c-0.1-0.1-0.2-0.1-0.4-0.2c-0.1-1.6-1.3-4.2-3.3-7.7
		c-0.9-1.6-2-3.4-3.2-5.4c-4.3-6.7-10.1-15.6-18.7-21.8c-0.3-0.2-0.7-0.5-1-0.7c-9.3-6.1-18.5-10.9-26.5-12.6
		c-2.1-0.5-4.2-0.8-6.1-0.9c-5.1-0.3-8.9,0.7-9.7,1.9c-0.2,0.2-0.3,0.6-0.2,1c0.1,1.3,0.8,3.4,2,6.4c0.9,2.2,2,4.9,3.3,8
		c3.8,8.2,9,19.7,18.7,26.2c0.3,0.2,0.7,0.4,1,0.6c10.2,6.5,19.8,10.3,28.1,10.3c2.8,0.1,5.4-0.2,7.6-0.7c3.1-0.7,5.5-1.7,6.8-2.6
		c0.5-0.3,0.8-0.6,1-0.9c0,0,0,0,0,0c0.4,0.3,0.8,0.6,1.1,0.9c0.1,0.4,0.3,0.8,0.4,1.2c2.9,8.7,6.3,17.2,9.9,25.4
		c3.8,8.2,7.8,16.1,12.2,23.7c0.9,1.5,1.7,2.9,2.6,4.4c-0.1,0-0.2-0.1-0.3-0.1c-0.1-0.1-0.3-0.1-0.4-0.1c-0.4-1.6-2.1-3.9-4.7-6.9
		c-1.2-1.4-2.6-3-4.2-4.7c-5.6-5.8-13-13.4-22.6-17.7c-0.4-0.2-0.8-0.3-1.1-0.5c-10.3-4.2-20.3-7.1-28.5-7.2c-2.2-0.1-4.3,0-6.1,0.3
		c-5,0.7-8.5,2.4-9.1,3.7c-0.1,0.2-0.1,0.6,0,1.1c0.3,1.2,1.4,3.2,3.2,5.9c1.3,2,2.9,4.4,4.8,7.2c5.3,7.3,12.6,17.6,23.4,22
		c0.4,0.1,0.8,0.3,1.1,0.4c11.3,4.4,21.4,6.2,29.6,4.7c2.7-0.4,5.2-1.2,7.3-2.2c2.9-1.3,5.1-2.8,6.2-3.9c0.4-0.4,0.7-0.8,0.8-1
		c0,0,0,0,0,0c0.6,0.3,1.2,0.6,1.7,0.8c7.9,12.8,16.5,24.5,25.5,35.1c3.6,4.2,7.2,8.2,10.8,12c-0.3,0-0.7-0.1-1.1-0.1
		c-0.1,0-0.3,0-0.4,0c-0.8-1.4-3-3.3-6.3-5.6c-1.5-1.1-3.3-2.2-5.2-3.5c-6.8-4.2-15.8-9.8-26.2-11.7c-0.4-0.1-0.8-0.1-1.2-0.2
		c-11-1.5-21.4-2-29.4,0c-2.1,0.5-4.1,1.1-5.9,1.8c-4.7,1.9-7.7,4.4-8,5.8c-0.1,0.3,0,0.6,0.2,1c0.6,1.1,2.2,2.8,4.5,5
		c1.7,1.6,3.9,3.6,6.4,5.8c7,5.8,16.5,14,28.1,15.7c0.4,0.1,0.8,0.1,1.2,0.1c12,1.5,22.3,0.8,29.9-2.7c2.5-1.1,4.8-2.5,6.6-3.9
		c2.5-1.9,4.2-3.9,5.1-5.3c0.3-0.5,0.5-0.9,0.5-1.2c0,0,0,0,0,0c0.8,0.2,1.5,0.3,2.1,0.4c0.2,0,0.3,0,0.4,0.1
		c6.6,6.8,13.2,13,19.7,18.7c7.6,6.6,15.1,12.5,22.1,17.6c-0.1,0-0.1,0-0.2,0c-0.6,0.1-1.3,0.2-2.1,0.3c-0.1,0-0.3,0-0.4,0.1
		c-1-1.2-3.6-2.6-7.3-4.1c-1.7-0.7-3.7-1.5-5.9-2.4c-7.5-2.7-17.6-6.2-28.1-5.9c-0.4,0-0.8,0-1.2,0.1c-11,0.8-21.3,2.6-28.7,6.2
		c-2,0.9-3.8,1.9-5.3,3c-4.2,2.9-6.6,5.9-6.5,7.4c0,0.3,0.1,0.6,0.5,1c0.8,1,2.7,2.2,5.5,3.9c2,1.2,4.5,2.7,7.4,4.3
		c8,4.2,19.1,10.2,30.8,9.4c0.4,0,0.8-0.1,1.2-0.1c12.1-1.1,22-3.9,28.6-8.9c2.3-1.6,4.1-3.4,5.6-5.2c2-2.4,3.3-4.7,3.8-6.2
		c0.2-0.6,0.3-1,0.3-1.3c0,0,0,0,0,0c0.8,0,1.5,0,2.2,0c0.7,0,1.3-0.1,1.7-0.1c2.2,1.6,4.3,3.1,6.5,4.5c4.6,3.3,9.2,6,13.3,8.8
		c4.2,2.5,8.1,4.9,11.6,7c3.6,2,6.8,3.8,9.5,5.3c2.8,1.6,5.2,2.7,7.1,3.7c3.8,2,5.9,3.1,5.9,3.1l3.1-6.1c0,0-2.1-1-5.9-3
		C226.8,477.1,224.4,476,221.6,474.5z"/>
	<path class="st0" d="M720.9,263.4c-0.8-1.2-4.6-2.1-9.7-1.9c-1.9,0.1-3.9,0.4-6,0.9c-8,1.7-17.3,6.5-26.5,12.6
		c-0.3,0.2-0.7,0.5-1,0.7c-8.6,6.2-14.4,15.1-18.7,21.8c-1.2,2-2.3,3.8-3.2,5.4c-2,3.5-3.2,6.1-3.3,7.7c-0.1,0.1-0.3,0.1-0.4,0.2
		c0,0,0,0,0,0c5.3-16.6,9-33.9,10.9-51.4c0.3-3.1,0.6-6.3,0.8-9.5c0.4-0.4,0.8-0.9,1.3-1.5c0,0,0,0,0,0c0.2,0.2,0.5,0.4,1,0.6
		c1.4,0.6,3.8,1.1,6.7,1.1c2.1,0.1,4.6-0.1,7-0.7c7.5-1.6,15.5-6.7,23.6-14.4c0.3-0.2,0.5-0.5,0.8-0.8c7.7-7.6,10.3-18.9,12.3-27
		c0.6-3,1.2-5.6,1.5-7.8c0.5-2.9,0.8-5,0.6-6.2c-0.1-0.4-0.2-0.8-0.4-0.9c-0.9-0.9-4.6-1.1-9.1,0.1c-1.7,0.4-3.5,1.1-5.3,1.9
		c-7,3-14.5,9-21.8,16.2c-0.3,0.3-0.5,0.5-0.8,0.8c-6.7,7.1-10.3,16.2-13,23.1c-0.7,2-1.4,3.9-1.9,5.5c-1.2,3.5-1.8,6.1-1.6,7.6
		c-0.1,0.1-0.2,0.2-0.3,0.3c-0.2,0.2-0.4,0.3-0.6,0.5c1-14.9,0.8-29.7-0.4-44.4c-0.4-4.9-0.9-9.7-1.6-14.5c0.1-0.2,0.2-0.4,0.4-0.6
		c0.3-0.5,0.6-1,1-1.6c0,0,0,0,0,0c0.2,0.1,0.6,0.3,1.1,0.4c1.4,0.3,3.8,0.3,6.5-0.1c2-0.3,4.3-1,6.5-2c6.8-2.8,13.5-9.2,19.8-17.9
		c0.2-0.3,0.4-0.6,0.6-0.9c5.9-8.6,6.3-19.8,6.7-27.8c0-3,0.1-5.5,0-7.7c0-2.9-0.2-4.9-0.5-5.9c-0.1-0.4-0.3-0.7-0.5-0.8
		c-1.1-0.7-4.5-0.2-8.6,1.7c-1.5,0.7-3.1,1.6-4.7,2.8c-6.1,4.1-12.1,11.2-17.7,19.3c-0.2,0.3-0.4,0.6-0.6,0.9
		c-5,7.9-6.8,17.2-8.1,24.2c-0.3,2.1-0.6,3.9-0.8,5.6c-0.5,3.6-0.6,6.1-0.1,7.5c-0.1,0.1-0.2,0.2-0.2,0.3c-0.3,0.4-0.6,0.8-0.9,1.1
		c-1.7-12.6-4.3-24.9-7.5-36.7c-1.5-5.4-3.1-10.6-4.8-15.8c0.1-0.3,0.2-0.8,0.5-1.6c0.2-0.5,0.3-1.2,0.5-1.9c0,0,0,0,0,0
		c0.3,0.1,0.6,0.1,1.2,0c1.4-0.1,3.7-0.8,6.2-2c1.9-0.9,3.8-2.2,5.7-3.8c5.7-4.7,10.2-12.7,13.7-22.9c0.1-0.3,0.2-0.7,0.3-1
		c3.1-10,0.2-20.8-1.8-28.6c-0.8-2.8-1.6-5.3-2.2-7.3c-0.9-2.7-1.6-4.6-2.2-5.5c-0.3-0.4-0.5-0.6-0.7-0.6c-1.2-0.3-4.4,1.1-7.7,4.1
		c-1.2,1.1-2.5,2.5-3.7,4c-4.6,5.7-8.3,14.2-11.3,23.6c-0.1,0.4-0.2,0.7-0.3,1.1c-2.5,9.1-1.5,18.5-0.7,25.6
		c0.3,2.1,0.5,3.9,0.8,5.6c0.6,3.5,1.2,6,2.1,7.2c0,0.1-0.1,0.2-0.1,0.4c-0.2,0.6-0.4,1.2-0.7,1.8c0,0,0,0.1,0,0.1
		c-3.5-10.3-7.5-20.1-11.8-29.4C633,95.3,628.5,86.9,624,79c0-0.3,0.1-0.7,0.2-1.3c0.1-0.5,0.1-1.1,0.2-1.7c0,0,0,0,0,0
		c0.2,0,0.6,0,1-0.1c1.2-0.3,3.1-1,5.2-2.4c1.5-1,3.1-2.3,4.6-3.9c4.5-4.7,7.7-12.1,9.7-21.3c0.1-0.3,0.1-0.6,0.2-0.9
		c1.7-9-1.8-18.1-4.3-24.8c-1-2.4-1.9-4.5-2.6-6.2c-1-2.3-1.8-3.9-2.5-4.6c-0.3-0.3-0.5-0.4-0.7-0.4c-1.1-0.2-3.7,1.4-6.3,4.4
		c-1,1.1-1.9,2.4-2.8,3.9c-3.5,5.4-5.8,13.2-7.5,21.7c-0.1,0.3-0.1,0.6-0.2,1c-1.3,8.1,0.5,16.3,1.9,22.4c0.4,1.8,0.9,3.4,1.3,4.8
		c0.9,3,1.6,5.1,2.5,6.1c0,0.1-0.1,0.2-0.1,0.3c-0.1,0.6-0.3,1.1-0.4,1.6c0,0.1,0,0.1-0.1,0.2c-2.6-4.4-5.2-8.6-7.8-12.7
		c-4.7-7.2-9.5-13.9-14.1-20c0.1-0.1,0.1-0.3,0.2-0.4c0.4-1.1,0.8-2.9,0.8-5.2c0-1.7-0.2-3.6-0.7-5.6c-1.3-6.1-5.1-13-10.7-20.4
		c-0.2-0.2-0.4-0.5-0.6-0.7c-5.5-7-14.5-9.6-21.3-11.1c-2.5-0.5-4.8-0.9-6.7-1.1C559.9,0,558-0.1,557,0.1c-0.4,0.1-0.7,0.2-0.8,0.3
		c-0.8,0.8-0.7,3.5,0.4,7c0.4,1.3,1,2.7,1.7,4.2c2.5,5.6,7.1,12.1,12.3,18.8c0.2,0.2,0.4,0.5,0.6,0.7c5.2,6.1,12.2,9.6,17.9,11.9
		c1.7,0.6,3.2,1.2,4.6,1.6c3.5,1.1,5.9,1.5,7,1c4.6,6.1,9.2,12.7,13.8,20c2.4,3.8,4.8,7.8,7.2,12c-0.2,0-0.4,0-0.6-0.1
		c-0.5,0-1-0.1-1.6-0.2c-0.1,0-0.2,0-0.3,0c-0.5-1.1-2.2-2.6-4.7-4.5c-1.2-0.9-2.5-1.8-4-2.9c-5.2-3.5-12.1-8.1-20.2-9.9
		c-0.3-0.1-0.6-0.1-1-0.2c-8.5-1.5-16.6-2.1-22.9-0.8c-1.7,0.3-3.2,0.7-4.6,1.2c-3.7,1.4-6.1,3.2-6.4,4.3c-0.1,0.2,0,0.5,0.2,0.8
		c0.4,0.9,1.6,2.2,3.4,4c1.3,1.3,2.9,2.9,4.8,4.7c5.3,4.7,12.5,11.4,21.5,13c0.3,0.1,0.6,0.1,0.9,0.1c9.3,1.5,17.4,1.2,23.4-1.3
		c2-0.8,3.8-1.8,5.3-2.9c2-1.4,3.4-2.9,4.1-4c0.3-0.4,0.4-0.7,0.4-0.9c0,0,0,0,0,0c0.6,0.1,1.2,0.3,1.6,0.4c0.7,0.1,1.2,0.2,1.4,0.3
		c4.6,8.2,9.1,16.9,13.3,26.2c4,8.9,7.7,18.3,10.9,28.1c-0.5-0.2-0.9-0.4-1.5-0.6c-0.1,0-0.2-0.1-0.4-0.1c-0.3-1.4-1.8-3.5-4.1-6.3
		c-1.1-1.3-2.3-2.7-3.6-4.3c-4.8-5.2-11.3-12.2-19.7-16.3c-0.3-0.2-0.7-0.3-1-0.5c-9-3.9-17.9-6.8-25.2-7c-2-0.1-3.8-0.1-5.4,0.1
		c-4.5,0.5-7.7,2-8.2,3.1c-0.1,0.2-0.1,0.5,0,1c0.2,1.1,1.2,2.9,2.7,5.3c1.1,1.8,2.5,4,4.1,6.5c4.6,6.6,10.8,15.9,20.4,20.1
		c0.3,0.1,0.7,0.3,1,0.4c10,4.1,18.9,6,26.2,4.8c2.4-0.3,4.7-1,6.6-1.8c2.6-1.1,4.6-2.4,5.6-3.3c0.4-0.4,0.6-0.7,0.7-0.9
		c0,0,0,0,0,0c0.6,0.3,1.2,0.7,1.7,0.9c0.2,0.1,0.4,0.2,0.6,0.3c1.9,5.7,3.6,11.5,5.1,17.5c3,11.6,5.4,23.7,6.9,36.1
		c-0.2-0.1-0.4-0.2-0.6-0.3c-0.5-0.2-1.1-0.5-1.7-0.8c-0.1-0.1-0.2-0.1-0.3-0.2c-0.2-1.4-1.4-3.7-3.4-6.7c-0.9-1.4-2-2.9-3.2-4.6
		c-4.3-5.7-10-13.3-17.9-18.2c-0.3-0.2-0.6-0.4-0.9-0.6c-8.6-4.8-17.1-8.6-24.3-9.6c-1.9-0.3-3.8-0.5-5.4-0.4
		c-4.5,0.1-7.8,1.2-8.5,2.2c-0.2,0.2-0.2,0.5-0.1,0.9c0.1,1.1,0.9,3,2.1,5.6c0.9,1.9,2.1,4.2,3.4,6.9c3.9,7.1,9.1,16.9,18.2,22.1
		c0.3,0.2,0.6,0.3,1,0.5c9.5,5.1,18.2,7.9,25.6,7.5c2.5-0.1,4.7-0.5,6.7-1.1c2.7-0.8,4.8-1.9,5.9-2.7c0.4-0.3,0.7-0.6,0.8-0.8
		c0,0,0,0,0,0c0.6,0.4,1.1,0.8,1.6,1c0.6,0.3,1,0.6,1.3,0.8c0.6,4.9,1.1,9.9,1.4,15c1,14.7,1,29.7-0.2,44.6
		c-0.2-0.1-0.4-0.3-0.6-0.5c-0.5-0.4-0.9-0.8-1.5-1.3c-0.1-0.1-0.2-0.2-0.3-0.3c0.2-1.5-0.4-4.1-1.6-7.6c-0.5-1.6-1.2-3.5-1.9-5.5
		c-2.7-6.9-6.4-16-13-23.1c-0.3-0.3-0.5-0.6-0.8-0.8c-7.3-7.2-14.8-13.2-21.8-16.2c-1.8-0.8-3.6-1.5-5.3-1.9c-4.5-1.2-8.1-1-9.1-0.1
		c-0.2,0.2-0.3,0.5-0.4,0.9c-0.2,1.2,0.1,3.2,0.6,6.2c0.4,2.2,0.9,4.8,1.5,7.8c2,8.1,4.6,19.4,12.3,27c0.3,0.3,0.5,0.5,0.8,0.8
		c8.1,7.7,16.1,12.8,23.6,14.4c2.5,0.6,4.9,0.8,7,0.7c2.9-0.1,5.3-0.6,6.7-1.1c0.5-0.2,0.9-0.4,1-0.6c0,0,0,0,0,0
		c0.5,0.5,0.9,1.1,1.3,1.5c0.6,0.6,1,1.1,1.2,1.3c-0.2,2.9-0.5,5.8-0.9,8.6c-2.1,17.4-6.1,34.6-11.5,51.1c-0.3-0.4-0.7-0.9-1.1-1.4
		c-0.1-0.1-0.2-0.2-0.3-0.3c0.5-1.5,0.4-4.4-0.2-8.4c-0.3-1.8-0.6-3.9-1-6.2c-1.5-7.9-3.6-18.3-9.3-27.2c-0.2-0.4-0.5-0.7-0.7-1
		c-6.3-9.1-13.1-17-20-21.6c-1.8-1.3-3.6-2.3-5.3-3.1c-4.6-2.1-8.5-2.6-9.7-1.9c-0.2,0.1-0.4,0.4-0.6,0.9c-0.4,1.2-0.5,3.5-0.6,6.7
		c0,2.4,0,5.3,0.1,8.6c0.5,9,1,21.6,7.6,31.2c0.2,0.3,0.5,0.7,0.7,1c7.1,9.8,14.6,16.9,22.3,20c2.5,1.1,5,1.8,7.3,2.2
		c3.1,0.5,5.8,0.4,7.3,0.1c0.6-0.1,1-0.3,1.2-0.4c0,0,0,0,0,0c0.4,0.7,0.8,1.3,1.1,1.8c0.1,0.2,0.2,0.3,0.3,0.5
		c-0.1,0.3-0.2,0.6-0.3,0.8c-3,8.5-6.4,16.8-10.1,24.9c-3.8,8-7.9,15.7-12.3,23.1c-0.9,1.4-1.7,2.9-2.6,4.3
		c-0.3-0.5-0.5-1.1-0.8-1.7c-0.1-0.1-0.1-0.3-0.2-0.4c0.8-1.4,1.3-4.2,1.5-8.3c0.1-1.9,0.2-4,0.3-6.3c0.1-8,0.2-18.6-3.5-28.5
		c-0.1-0.4-0.3-0.8-0.5-1.2c-4.4-10.2-9.4-19.3-15.2-25.2c-1.5-1.6-3-3-4.6-4.1c-4.1-3-7.8-4.3-9.1-3.8c-0.3,0.1-0.5,0.3-0.8,0.7
		c-0.6,1.1-1.2,3.3-1.9,6.4c-0.5,2.3-1,5.2-1.7,8.4c-1.4,9-3.4,21.3,1.1,32.1c0.2,0.4,0.3,0.7,0.5,1.1c4.9,11.1,10.8,19.5,17.7,24.2
		c2.2,1.6,4.6,2.8,6.7,3.6c2.9,1.1,5.5,1.6,7.1,1.6c0.6,0,1-0.1,1.3-0.2c0,0,0,0,0,0c0.3,0.7,0.5,1.5,0.7,2c0.1,0.2,0.2,0.4,0.2,0.6
		c-7.9,12.6-16.6,24.1-25.7,34.5c-3.2,3.7-6.5,7.2-9.8,10.6c0-0.1,0-0.1-0.1-0.1c-0.2-0.6-0.4-1.3-0.6-2c0-0.1-0.1-0.3-0.1-0.4
		c1.1-1.2,1.9-4,2.9-7.9c0.4-1.8,0.9-3.9,1.4-6.2c1.4-7.9,3.3-18.3,1.2-28.7c-0.1-0.4-0.2-0.8-0.3-1.2c-2.6-10.8-6.1-20.6-10.8-27.3
		c-1.2-1.8-2.5-3.4-3.8-4.8c-3.5-3.7-7-5.5-8.3-5.2c-0.3,0-0.6,0.2-0.9,0.6c-0.8,1-1.8,3-2.9,6c-0.9,2.2-1.9,4.9-3,8
		c-2.8,8.6-6.9,20.5-4.2,31.9c0.1,0.4,0.2,0.8,0.3,1.2c3.1,11.7,7.5,21,13.5,26.7c1.9,2,4,3.5,6.1,4.7c2.7,1.6,5.2,2.5,6.8,2.7
		c0.6,0.1,1,0.1,1.3,0c0,0,0,0,0,0c0.1,0.8,0.2,1.5,0.4,2.1c0.1,0.3,0.1,0.6,0.2,0.9c-6.9,7.1-14,13.5-20.8,19.4
		c-7.3,6.2-14.4,11.7-21.2,16.6c0-0.2-0.1-0.3-0.1-0.5c-0.1-0.6-0.2-1.3-0.3-2.1c0-0.1,0-0.3-0.1-0.4c1.2-1.1,2.5-3.7,4-7.4
		c0.7-1.7,1.4-3.7,2.2-5.9c2.5-7.6,5.9-17.7,5.3-28.2c0-0.4,0-0.8-0.1-1.2c-1.1-11-3.1-21.3-6.8-28.6c-0.9-2-2-3.8-3.1-5.3
		c-2.9-4.1-6.1-6.5-7.5-6.4c-0.3,0-0.6,0.2-1,0.5c-0.9,0.8-2.2,2.8-3.8,5.5c-1.2,2.1-2.6,4.6-4.2,7.5c-4,8.1-9.7,19.3-8.7,31
		c0,0.4,0.1,0.8,0.1,1.2c1.3,12,4.4,21.9,9.6,28.4c1.6,2.2,3.5,4.1,5.3,5.5c2.5,2,4.8,3.2,6.3,3.7c0.6,0.2,1,0.3,1.3,0.2
		c0,0,0,0,0,0c0,0.8,0,1.5,0.1,2.2c0,0.5,0.1,0.9,0.1,1.3c-2.5,1.8-5,3.5-7.5,5.1c-4.6,3.2-9.1,5.8-13.2,8.5
		c-4.2,2.4-8,4.7-11.5,6.7c-3.5,1.9-6.6,3.6-9.4,5.1c-2.7,1.5-5.2,2.6-7.1,3.6c-3.9,2-5.9,3-5.9,3l3.1,6.1c0,0,2.1-1.1,5.9-3.1
		c1.9-1,4.3-2.2,7.1-3.7c2.8-1.6,6-3.3,9.5-5.3c3.5-2.1,7.4-4.4,11.6-7c4.1-2.7,8.7-5.5,13.3-8.8c2.1-1.4,4.3-2.9,6.5-4.5
		c0.4,0,0.9,0,1.7,0.1c0.6,0,1.4,0,2.2,0c0,0,0,0,0,0c0,0.3,0.1,0.7,0.3,1.3c0.5,1.5,1.8,3.8,3.8,6.2c1.5,1.8,3.4,3.6,5.6,5.2
		c6.6,5,16.5,7.8,28.6,8.9c0.4,0,0.8,0.1,1.2,0.1c11.7,0.8,22.7-5.2,30.8-9.4c2.9-1.7,5.4-3.1,7.4-4.3c2.7-1.7,4.6-2.9,5.4-3.9
		c0.3-0.4,0.5-0.7,0.5-1c0.1-1.4-2.4-4.5-6.5-7.4c-1.5-1.1-3.3-2.1-5.3-3c-7.4-3.5-17.7-5.3-28.7-6.2c-0.4,0-0.8,0-1.2-0.1
		c-10.6-0.3-20.6,3.2-28.1,5.9c-2.2,0.9-4.1,1.6-5.9,2.4c-3.7,1.6-6.3,2.9-7.3,4.1c-0.1,0-0.3,0-0.4-0.1c-0.8-0.1-1.5-0.2-2.1-0.3
		c-0.1,0-0.1,0-0.2,0c7.1-5.2,14.5-11,22.1-17.6c6.5-5.7,13.1-11.9,19.7-18.7c0.1,0,0.3,0,0.4-0.1c0.6-0.1,1.3-0.3,2.1-0.4
		c0,0,0,0,0,0c0,0.3,0.2,0.7,0.5,1.2c0.8,1.4,2.6,3.4,5.1,5.3c1.8,1.4,4.1,2.8,6.6,3.9c7.6,3.5,17.8,4.2,29.9,2.7
		c0.4,0,0.8-0.1,1.2-0.1c11.6-1.7,21.1-9.8,28.1-15.7c2.5-2.2,4.6-4.2,6.4-5.8c2.3-2.2,3.9-3.8,4.5-5c0.2-0.4,0.3-0.8,0.2-1
		c-0.2-1.4-3.3-3.9-8-5.8c-1.7-0.7-3.7-1.3-5.8-1.8c-8-1.9-18.4-1.5-29.4,0c-0.4,0.1-0.8,0.1-1.2,0.2c-10.4,1.9-19.4,7.5-26.2,11.7
		c-1.9,1.3-3.7,2.5-5.2,3.5c-3.3,2.3-5.5,4.1-6.3,5.6c-0.1,0-0.3,0-0.4,0c-0.4,0-0.7,0.1-1.1,0.1c3.6-3.8,7.3-7.8,10.8-12
		c9-10.5,17.7-22.3,25.5-35.1c0.5-0.2,1.1-0.5,1.7-0.8c0,0,0,0,0,0c0.1,0.3,0.4,0.6,0.8,1c1.1,1.1,3.3,2.6,6.2,3.9
		c2.1,0.9,4.6,1.7,7.3,2.2c8.2,1.6,18.3-0.3,29.6-4.7c0.4-0.1,0.8-0.3,1.1-0.4c10.8-4.5,18.1-14.7,23.4-22c1.9-2.8,3.5-5.2,4.8-7.2
		c1.7-2.7,2.9-4.7,3.2-5.9c0.1-0.5,0.1-0.8,0-1.1c-0.6-1.3-4.1-3-9.1-3.7c-1.9-0.3-3.9-0.4-6.1-0.3c-8.2,0.1-18.2,3-28.5,7.2
		c-0.4,0.2-0.8,0.3-1.1,0.5c-9.6,4.4-17,12-22.6,17.7c-1.6,1.7-3,3.3-4.2,4.7c-2.6,3-4.3,5.4-4.7,6.9c-0.1,0-0.3,0.1-0.4,0.1
		c-0.1,0-0.2,0.1-0.3,0.1c0.9-1.5,1.8-2.9,2.6-4.4c4.4-7.6,8.4-15.5,12.2-23.7c3.7-8.2,7-16.7,9.9-25.4c0.1-0.4,0.3-0.8,0.4-1.2
		c0.4-0.3,0.7-0.6,1.1-0.8c0,0,0,0,0,0c0.2,0.2,0.5,0.5,1,0.9c1.3,0.9,3.8,1.9,6.8,2.6c2.3,0.5,4.9,0.8,7.6,0.7
		c8.3-0.1,17.9-3.8,28.1-10.3c0.3-0.2,0.7-0.4,1-0.6c9.8-6.5,14.9-17.9,18.7-26.2c1.3-3.1,2.4-5.7,3.3-8c1.2-3,1.9-5.1,2-6.4
		C721.1,264,721.1,263.6,720.9,263.4z"/>
</g>
<g>
	<path class="st1" d="M237.5,285.3l-0.2,3.6c0,7.5,4.4,11.1,14.7,11.6c2.7,0.2,3.6,0.7,3.6,2c0,2.2-2,2.9-7.8,2.9
		c-1.5,0-1.5,0-10.1-0.7c-3.1-0.2-7.2-0.3-12.1-0.3c-6.1,0-11.3,0.2-15.2,0.7c-1.4,0.2-2.9,0.3-3.6,0.3c-1.2,0-2-0.9-2-2
		c0-1.7,0-1.7,7.3-3.1c6.8-1.4,8.9-5.1,8.5-16v-60.2c0-7.2-0.2-7.5-1.2-9.2c-1.2-2-2.9-2.9-5.5-2.9c-2.4,0-3.2,0.2-7,1.9
		c-0.5,0.2-1.2,0.3-1.7,0.3c-1.2,0-2-0.9-2-2c0-2.6,2-3.8,10.6-5.5c11.4-2.7,13.1-3.6,20.8-10.9c0.5-0.5,1.5-0.9,2.2-0.9
		c1.2,0,1.7,0.9,1.7,3.1l-1,16V285.3z"/>
	<path class="st1" d="M345.4,240c0,27.3-18.8,53.5-45,63.1c-5.6,2-17.7,4.8-21,4.8c-1.4,0-2-0.9-2-2.2c0-1.7,0-1.9,5.1-2.9
		c13.8-3.1,27.3-13.6,35-27.1c2.7-4.8,5.3-11.8,5.3-14.3c0-1.2-1-2.4-1.7-2.4c-0.7,0-1.4,0.3-2.2,1c-6.1,4.3-15.7,7.7-21.5,7.7
		c-15.7,0-27.3-13.8-27.3-32.4c0-10.1,4.3-21.3,10.9-28.1c6.5-7,16.4-10.9,26.9-10.9C329.9,196.1,345.4,214.4,345.4,240z
		 M286.2,224.4c0,19.8,9.2,33.4,22.7,33.4c10.7,0,18.9-9.5,18.9-22c0-7.7-2.7-17.4-7-23.9c-4.1-6.6-10.9-10.7-17.6-10.7
		C293.2,201.3,286.2,210.8,286.2,224.4z"/>
	<path class="st1" d="M440.2,244.7c0,33.4-19.8,62.4-42.3,62.4c-21.1,0-35.8-21.3-35.8-51.8c0-31.7,19.4-59.2,41.9-59.2
		C424.3,196.1,440.2,217.5,440.2,244.7z M376.9,236c0,16,3.8,32.6,9.9,44.7c4.8,9.2,13.5,15.5,21.3,15.5c11.4,0,18.8-12.4,18.8-31.7
		c0-16.5-4.8-34.4-12.6-46.9c-5.3-8.4-11.9-13-18.8-13C384.3,204.7,376.9,217.1,376.9,236z"/>
	<path class="st1" d="M473,305.4c-0.1-0.9-0.1-1.9-0.1-2.9c0-8,1.5-15.7,4.8-23.2c3.8-8.9,3.8-8.9,17.6-29.2c8-11.9,16-28.6,16-33.8
		c0-2-1.2-2.6-5.6-2.6h-22l-7.7-0.2c-8.5,0-13.6,3.9-14.8,11.1c-0.3,2.9-1,3.9-2.4,3.9c-1.4,0-2.4-1.7-2.4-4.1
		c0-5.6,1-10.4,4.8-21.7c0.9-5.1,0.9-5.1,3.8-5.1c0.2,0,1.5,0,3.1,0.2c3.8,0.2,5.1,0.2,17.9,0.2h23c7.8,0,7.8,0,8.9,0.5
		c1.5,0.7,2,2.2,2,5.1c0,3.9-1.2,9.9-3.6,16.9c-2.4,7.3-2.4,7.3-11.8,29.3c-8,18.9-11.6,31.9-11.6,41.8c0,5.2,0.4,8.4,1.6,13.6
		 M484.2,307.8"/>
</g>
<g>
	<path class="st1" d="M242.6,124.2c0-1.4,0.2-2.7,0.5-4c0.4-1.3,0.9-2.5,1.7-3.5c0.8-1,1.7-1.9,2.8-2.5c1.1-0.6,2.4-0.9,3.9-0.9
		c1.4,0,2.7,0.4,3.9,1.2c1.2,0.8,1.8,2,1.8,3.6c0,1.9-0.7,3.4-2.1,4.5c-1.4,1-3,1.6-4.8,1.7c-0.4,1-0.6,2-0.7,3c-0.1,1-0.2,2-0.2,3
		c0,2.4,0.6,4.5,1.8,6.2c1.2,1.7,2.7,3,4.5,4c1.8,1,3.8,1.7,6.1,2.2c2.2,0.5,4.3,0.7,6.3,0.7c3.6,0,6.7-0.6,9.3-1.9
		c2.6-1.3,4.8-3,6.7-5.2c1.9-2.2,3.4-4.7,4.6-7.5c1.2-2.8,2.1-5.7,2.8-8.8c0.7-3.1,1.2-6.2,1.5-9.3c0.3-3.1,0.5-6,0.6-8.8
		c0.2-4.9,0.9-9.6,2-14.1c1.1-4.4,2.8-8.3,5.1-11.7c2.3-3.3,5.1-6,8.5-7.9c3.4-1.9,7.5-2.9,12.2-2.9c2,0,4,0.2,5.9,0.6
		c1.9,0.4,3.6,1.1,5,2c1.4,0.9,2.6,2.1,3.5,3.5c0.9,1.4,1.3,3.1,1.3,5.2c0,1.7-0.3,3.2-1,4.3c-0.7,1.2-1.6,2.1-2.7,2.8
		c-1.1,0.7-2.4,1.2-3.9,1.5c-1.5,0.3-3,0.5-4.6,0.5c1-1.6,1.8-3.3,2.3-4.8c0.5-1.6,0.8-3.4,0.8-5.4c0-2.7-0.7-4.9-2.2-6.5
		c-1.5-1.6-3.4-2.4-5.7-2.4c-2.8,0-5.1,0.7-6.9,2c-1.8,1.4-3.3,3.2-4.6,5.5c-1.2,2.3-2.1,5-2.8,8.2c-0.6,3.1-1.2,6.4-1.6,9.9
		c-0.4,3.5-0.8,7-1.1,10.7c-0.3,3.7-0.6,7.2-1.1,10.7c-0.4,3.1-1.2,6.4-2.5,10c-1.3,3.6-3.3,6.9-5.9,10c-2.7,3.1-6.1,5.7-10.4,7.8
		c-4.3,2.1-9.5,3.1-15.8,3.1c-3.1,0-6.1-0.4-9.1-1.2c-3-0.8-5.7-2.1-8-3.8c-2.3-1.7-4.2-3.9-5.6-6.4
		C243.3,130.6,242.6,127.6,242.6,124.2z"/>
	<path class="st1" d="M334.6,105.2c-3.4,5.3-6.3,9.8-8.7,13.6c-2.4,3.8-4.4,7-6,9.6c-1.5,2.6-2.7,4.8-3.4,6.5
		c-0.8,1.7-1.1,3.1-1.1,4.1c0,0.9,0.2,1.6,0.5,2.1c0.3,0.5,0.8,0.8,1.5,0.8c1.4,0,3.5-0.8,6.1-2.5c2.6-1.6,5.9-4.5,9.8-8.5
		c1.6-1.6,3.1-3.3,4.6-4.9c1.5-1.6,2.9-3.2,4.2-4.7c1.3-1.5,2.5-2.9,3.5-4.1c1-1.2,1.9-2.2,2.5-2.9l1,0.6c-0.9,1.1-1.9,2.5-3.2,3.9
		c-1.3,1.5-2.6,3-4,4.6c-1.4,1.6-2.9,3.2-4.4,4.8c-1.5,1.6-3,3.1-4.4,4.5c-4.2,4.2-7.7,7.1-10.7,8.7c-3,1.6-5.7,2.5-8.2,2.5
		c-2.4,0-4.2-0.6-5.5-1.9c-1.3-1.3-1.9-3-1.9-5c0-1.4,0.3-2.9,0.8-4.5c0.5-1.5,1.4-3.5,2.7-5.7c1.3-2.3,3-5.1,5.2-8.5
		c2.1-3.4,4.8-7.6,8.1-12.6L334.6,105.2z M340.9,81.3c1.4,0,2.6,0.5,3.6,1.5c1,1,1.6,2.2,1.6,3.5c0,1.4-0.6,2.7-1.7,3.9
		c-1.1,1.2-2.4,1.8-3.9,1.8c-1.6,0-2.9-0.4-4.1-1.2c-1.1-0.8-1.7-2.1-1.7-3.7c0-1.6,0.6-3,1.9-4.1C337.8,81.9,339.2,81.3,340.9,81.3
		z"/>
	<path class="st1" d="M348.6,124.5c1-1.3,2.5-3.1,4.4-5.5c1.9-2.4,4.1-4.7,6.5-7c2.4-2.3,5-4.3,7.8-6c2.8-1.7,5.6-2.6,8.4-2.6
		c2.4,0,4.2,0.7,5.4,2c1.2,1.3,1.8,3,1.8,4.9c0,2.4-0.8,4.9-2.3,7.5c-1.5,2.5-3.2,5.1-5.1,7.6c-1.9,2.5-3.6,5-5.1,7.3
		c-1.5,2.3-2.3,4.5-2.3,6.5c0,0.9,0.2,1.6,0.6,2.1c0.4,0.5,1.1,0.8,2.1,0.8s2.7-0.8,5-2.3c2.3-1.5,5.5-4.4,9.4-8.5
		c3.1-3.3,5.9-6.5,8.5-9.6c2.6-3.1,4.5-5.5,5.8-7l1.1,0.5c-1.9,2.2-4.2,5-6.9,8.3c-2.7,3.3-5.6,6.6-8.7,9.8
		c-3.7,3.9-6.9,6.7-9.5,8.4c-2.6,1.6-5.3,2.5-8.1,2.5c-2.7,0-4.7-0.8-6-2.3c-1.3-1.5-1.9-3.2-1.9-5.2c0-2.4,0.8-4.9,2.3-7.5
		c1.5-2.6,3.2-5.1,5.1-7.6c1.9-2.5,3.6-4.8,5.1-7c1.5-2.2,2.3-4.2,2.3-5.8c0-0.8-0.3-1.4-0.8-1.9c-0.5-0.5-1.3-0.8-2.3-0.8
		c-1.4,0-3.1,0.7-5,2c-1.9,1.3-4,3-6.1,5.2c-2.1,2.1-4.3,4.5-6.6,7.2c-2.2,2.7-4.3,5.4-6.3,8.1c-2,2.7-3.7,5.3-5.3,7.8
		c-1.6,2.5-2.8,4.7-3.8,6.4l-10.8,0.3c3.8-6.3,7.6-12.5,11.4-18.7c3.8-6.2,7.6-12.5,11.3-19.1l12.2-0.4l-14,19.5L348.6,124.5z"/>
	<path class="st1" d="M444.4,115.3c-2.6,3.2-5.5,6.6-8.6,10c-3.1,3.5-6.4,6.6-9.9,9.5c-3.5,2.9-7.3,5.2-11.4,7.1
		c-4,1.9-8.3,2.8-12.8,2.8c-4.3,0-7.6-1.2-9.9-3.5c-2.3-2.3-3.4-5.7-3.4-10.3c0-3.4,1-6.8,3-10.1c2-3.3,4.6-6.2,7.7-8.8
		c3.1-2.6,6.6-4.7,10.4-6.2c3.8-1.6,7.5-2.4,11.1-2.4c3.3,0,5.9,0.7,7.8,2c1.9,1.3,2.9,3,2.9,4.9c0,1.4-0.3,2.6-0.8,3.7
		c-0.5,1.1-1.2,2-2.1,2.8c-0.9,0.8-1.8,1.3-2.9,1.7c-1.1,0.4-2.1,0.6-3.2,0.6c-0.9,0-1.8-0.1-2.5-0.2c0.5-1.6,1-3.3,1.6-5
		c0.6-1.7,0.9-3.4,0.9-5.2c0-1.2-0.3-2.2-0.9-2.9c-0.6-0.7-1.4-1.1-2.4-1.1c-1.9,0-4,0.7-6.3,2.2c-2.4,1.5-4.6,3.4-6.7,5.9
		c-2.1,2.5-3.8,5.3-5.3,8.5c-1.4,3.2-2.1,6.5-2.1,9.9c0,2.7,0.8,5,2.5,6.9c1.6,1.9,3.9,2.8,6.9,2.8c3.5,0,7-1,10.5-2.9
		c3.5-1.9,6.8-4.3,9.9-7c3.1-2.8,6-5.6,8.5-8.6c2.6-3,4.8-5.5,6.6-7.7L444.4,115.3z"/>
	<path class="st1" d="M488.1,114.8c-2.2,3-4.6,6-7.1,8.9c-2.5,2.9-5.6,6-9.1,9.2c-4.9,4.4-9.7,7.5-14.2,9.2
		c-4.5,1.7-8.8,2.5-12.8,2.5c-4.1,0-7.3-1.2-9.7-3.7c-2.4-2.4-3.5-5.6-3.5-9.5c0-3.4,1-6.8,3.1-10.2c2.1-3.4,4.7-6.4,7.8-9
		c3.1-2.6,6.6-4.8,10.4-6.4c3.8-1.6,7.3-2.5,10.7-2.5c3.1,0,5.5,0.6,7.2,1.8c1.7,1.2,2.6,2.8,2.6,5c0,1.7-0.6,3.3-1.8,4.7
		c-1.2,1.4-2.7,2.7-4.6,3.9c-1.9,1.1-4,2.1-6.3,3c-2.3,0.9-4.6,1.6-6.9,2.3c-2.3,0.6-4.4,1.2-6.4,1.6c-2,0.4-3.7,0.8-4.9,1.1
		c-0.4,1.4-0.5,2.7-0.5,3.9c0,3.1,0.9,5.6,2.6,7.5c1.7,1.9,4.1,2.9,7.2,2.9c3,0,6.3-0.9,9.9-2.7c3.6-1.8,7.3-4.4,10.9-7.8
		c2.8-2.6,5.5-5.4,8.1-8.3c2.6-2.9,4.8-5.6,6.8-8.1L488.1,114.8z M464.8,107.5c0-1-0.3-1.7-0.8-2.1c-0.5-0.4-1.2-0.6-2.1-0.6
		c-1.8,0-3.7,0.8-5.8,2.3c-2.1,1.5-4,3.3-5.9,5.5c-1.8,2.2-3.4,4.5-4.8,6.9c-1.4,2.4-2.3,4.5-2.7,6.3c2.9-0.6,5.7-1.5,8.4-2.8
		c2.6-1.3,5-2.8,7-4.5c2-1.7,3.7-3.5,4.9-5.4C464.2,111.1,464.8,109.3,464.8,107.5z"/>
</g>
</svg>
