<?xml version="1.0" encoding="utf-8"?>
<!-- Generator: Adobe Illustrator 26.0.2, SVG Export Plug-In . SVG Version: 6.00 Build 0)  -->
<svg version="1.1" id="Layer_1" xmlns="http://www.w3.org/2000/svg" xmlns:xlink="http://www.w3.org/1999/xlink" x="0px" y="0px"
	 viewBox="0 0 29.8 29.9" style="enable-background:new 0 0 29.8 29.9;" xml:space="preserve">
<style type="text/css">
	.st0{fill:#FFFFFF;}
	.st1{fill:none;stroke:#FFFFFF;stroke-miterlimit:10;}
</style>
<g id="Layer_1_00000172406276562346983620000011173814108118723995_">
</g>
<g id="Layer_2_00000098918980579459370790000002384261511215178901_">
</g>
<g id="circle">
	<circle class="st0" cx="14.9" cy="14.9" r="14.9"/>
</g>
<g id="envelope">
	<path d="M22.3,22.8H7.5c-1.6,0-2.8-1.3-2.8-2.8V9.6c0-1.4,1.1-2.5,2.5-2.5h15.5c1.4,0,2.5,1.1,2.5,2.5v10.2
		C25.2,21.5,23.9,22.8,22.3,22.8z"/>
	<polygon class="st1" points="20.6,17.2 17.4,13.9 14.9,16 12.4,13.9 9.2,17.2 3.6,23.1 14.9,23.1 26.2,23.1 	"/>
	<polygon class="st1" points="14.9,6.6 26.2,6.6 20.6,11.3 14.9,16 9.2,11.3 3.6,6.6 	"/>
</g>
</svg>
