<?xml version="1.0" encoding="utf-8"?>
<!-- Generator: Adobe Illustrator 26.0.2, SVG Export Plug-In . SVG Version: 6.00 Build 0)  -->
<svg version="1.1" xmlns="http://www.w3.org/2000/svg" xmlns:xlink="http://www.w3.org/1999/xlink" x="0px" y="0px"
	 viewBox="0 0 29.83 29.85" style="enable-background:new 0 0 29.83 29.85;" xml:space="preserve">
<style type="text/css">
	.st0{fill:#FFFFFF;}
	.st1{fill:#118653;}
	.st2{fill:none;stroke:#FFFFFF;stroke-miterlimit:10;}
</style>
<g id="Layer_1">
</g>
<g id="Layer_2">
</g>
<g id="circle">
	<circle class="st0" cx="14.91" cy="14.92" r="14.92"/>
</g>
<g id="envelope">
	<path class="st1" d="M22.34,22.75H7.46c-1.55,0-2.82-1.27-2.82-2.82V9.64c0-1.38,1.13-2.5,2.5-2.5h15.51
		c1.39,0,2.53,1.14,2.53,2.53v10.25C25.18,21.48,23.9,22.75,22.34,22.75z"/>
	<polygon class="st2" points="20.58,17.2 17.43,13.9 14.91,16.01 12.4,13.91 9.25,17.2 3.59,23.13 14.92,23.13 26.25,23.13 	"/>
	<polygon class="st2" points="14.91,6.55 26.24,6.55 20.58,11.28 14.91,16.01 9.24,11.28 3.58,6.55 	"/>
</g>
</svg>
