<?xml version="1.0" encoding="utf-8"?>
<!-- Generator: Adobe Illustrator 26.0.2, SVG Export Plug-In . SVG Version: 6.00 Build 0)  -->
<svg version="1.1" id="Isolation_Mode" xmlns="http://www.w3.org/2000/svg" xmlns:xlink="http://www.w3.org/1999/xlink" x="0px"
	 y="0px" viewBox="0 0 283.8 283.8" style="enable-background:new 0 0 283.8 283.8;" xml:space="preserve">
<style type="text/css">
	.st0{fill:#C5A363;}
</style>
<g>
	<path class="st0" d="M112.8,225.6C50.6,225.6,0,175,0,112.8S50.6,0,112.8,0s112.8,50.6,112.8,112.8S175,225.6,112.8,225.6z
		 M112.8,34.8c-43,0-78,35-78,78s35,78,78,78s78-35,78-78S155.8,34.8,112.8,34.8z"/>
	<path class="st0" d="M279.4,279.2L279.4,279.2c-6.2,6.2-16.2,6.2-22.4,0l-99.9-99.9c8.3-6.6,15.8-14.1,22.4-22.4l99.9,99.9
		C285.6,263,285.6,273,279.4,279.2z"/>
</g>
</svg>
