<svg version="1.1" id="Layer_1" xmlns:ns0="http://www.w3.org/2000/svg" xmlns:ns1="http://www.w3.org/1999/xlink"
	 xmlns="http://www.w3.org/2000/svg" xmlns:xlink="http://www.w3.org/1999/xlink" x="0px" y="0px" viewBox="0 0 224.2 136"
	 style="enable-background:new 0 0 224.2 136;" xml:space="preserve">
<style type="text/css">
	.st0{fill:#DCDDDE;}
	.st1{fill:#BCBDC0;}
	.st2{fill:#FFFFFF;}
	.st3{fill:#C3C4C6;}
	.st4{fill:#6D6D6D;}
	.st5{fill:#023049;}
	.st6{fill:#008752;}
	.st7{fill:#C6A260;}
	.st8{fill:#C7A25F;}
	.st9{fill:none;stroke:#6D6D6D;stroke-width:0.25;stroke-miterlimit:10;}
</style>
<g id="Grey_bg">
	<polygon class="st0" points="0,36.1 0,95.6 6.7,99.8 5.7,110.5 22.4,123.4 43.2,123.4 50.1,119.2 82.8,119.9 116.2,124.2 
		135.4,124.2 150.8,122.1 177.1,122.1 193.6,126.6 224.2,126.6 224.2,8.9 191.4,8.9 178,13.2 149.6,12.8 137.5,11.5 114.5,11.3 
		70.9,14.1 50.5,14.8 44.4,8.9 23,8.9 5.8,21.4 6.7,31.6 	"/>
</g>
<g id="Stage_Bg_grey">
	<path class="st1" d="M12.6,40.5H5.3v49.8h7.3C12.6,90.3,26,66.2,12.6,40.5z"/>
	<g>
		<path class="st2" d="M15,78.6c0,0.5-0.1,0.9-0.2,1.4c-0.1,0.4-0.3,0.8-0.6,1.1l-1.1-0.7c0.4-0.5,0.6-1.1,0.6-1.8
			c0-0.3-0.1-0.6-0.2-0.8c-0.1-0.2-0.3-0.3-0.5-0.3c-0.4,0-0.6,0.3-0.7,0.8L12,79c-0.2,0.6-0.4,1-0.7,1.3s-0.7,0.4-1.2,0.4
			c-0.6,0-1.1-0.2-1.5-0.7s-0.5-1.1-0.5-1.9c0-0.4,0.1-0.8,0.2-1.2c0.1-0.4,0.3-0.7,0.5-1.1l1.1,0.7c-0.3,0.5-0.5,1-0.5,1.6
			c0,0.3,0.1,0.5,0.2,0.8s0.3,0.3,0.5,0.3s0.3-0.1,0.4-0.2c0.1-0.1,0.2-0.3,0.3-0.6l0.2-0.8c0.1-0.6,0.4-1,0.7-1.3s0.7-0.5,1.3-0.5
			c0.7,0,1.2,0.2,1.5,0.7C14.8,77,15,77.7,15,78.6z"/>
		<path class="st2" d="M14.8,73.4H9.5v1.9H8.2V70h1.3v1.9h5.3V73.4z"/>
		<path class="st2" d="M14.8,70.1l-6.6-1.9v-2.3l6.6-1.9v1.6L13.4,66v2.3l1.4,0.4C14.8,68.7,14.8,70.1,14.8,70.1z M9.6,67.1l2.6,0.7
			v-1.6l-2.6,0.7V67.1z"/>
		<path class="st2" d="M15,60.5c0,0.9-0.3,1.6-0.8,2.1c-0.6,0.5-1.3,0.8-2.3,0.8h-0.6c-0.7,0-1.2-0.1-1.7-0.4
			c-0.5-0.2-0.8-0.6-1.1-1c-0.2-0.4-0.4-1-0.4-1.6c0-0.5,0.1-0.9,0.2-1.3c0.2-0.4,0.4-0.7,0.7-1l1,0.9c-0.2,0.2-0.4,0.4-0.5,0.7
			s-0.1,0.5-0.1,0.7c0,0.5,0.2,0.8,0.5,1.1s0.8,0.4,1.4,0.4h0.5c0.6,0,1.1-0.1,1.4-0.4c0.3-0.2,0.5-0.6,0.5-1s-0.1-0.7-0.4-1
			c-0.3-0.2-0.6-0.3-1.1-0.3v1.3H11v-2.8h1.2c0.6,0,1.1,0.1,1.5,0.3s0.7,0.5,1,1C14.9,59.5,15,60,15,60.5z"/>
		<path class="st2" d="M14.8,56.6H8.2v-4.4h1.3v2.9h1.4v-2.6h1.2v2.6h1.4v-3h1.3C14.8,52.1,14.8,56.6,14.8,56.6z"/>
	</g>
</g>
<g id="White_Left">
	<polygon class="st2" points="40.9,26.1 40.9,24.3 26.3,24.3 13.7,33 19.9,41.5 17.9,42.8 22.5,55.1 22.6,76.9 18.7,88.7 20.4,90.2 
		14,98.6 26.9,108.3 39.8,108.3 40.2,106.8 51.5,114.6 85.9,114.6 85.9,115.6 116.9,115.6 116.2,119.5 125.4,119.5 130.2,111.1 
		142.2,112.5 144.5,112.4 149.1,108.2 155.8,83.8 158.1,83.7 158.1,50.7 152.6,27.2 148.4,22.9 144.6,22.9 141.6,24.1 134,24 
		130,15.9 116.3,15.9 117.1,18 85.9,18.2 85.9,19.6 52,19.6 	"/>
</g>
<g id="White_Right">
	<polygon class="st2" points="173.5,17.4 133.6,17.4 133.6,22.3 148.7,22.9 164.2,39.3 166.8,66.7 163.3,94.5 144.8,112.6 
		133.6,112.6 133.6,117.4 172.1,117.4 179,108.1 196,108 196,121.2 218.6,121.2 218.6,13.4 194.5,13.4 194.5,25.9 179.8,25.9 	"/>
</g>
<g id="Sound_Equipment">
	<path class="st3" d="M96.5,47.4v37.2h-11c0,0,2.2-5.9,0-37.2C85.5,47.4,96.5,47.4,96.5,47.4z"/>
	<g>
		<path class="st4" d="M90.1,51c0-0.2,0-0.3,0.1-0.5c0-0.1,0.1-0.3,0.2-0.4l0.4,0.2c-0.1,0.2-0.2,0.4-0.2,0.6c0,0.1,0,0.2,0.1,0.3
			c0,0.1,0.1,0.1,0.2,0.1s0.2-0.1,0.3-0.3l0.1-0.3c0.1-0.2,0.1-0.3,0.2-0.4s0.3-0.2,0.4-0.2c0.2,0,0.4,0.1,0.5,0.2
			c0.1,0.2,0.2,0.4,0.2,0.7c0,0.2,0,0.3-0.1,0.4s-0.1,0.3-0.2,0.4l-0.4-0.2c0.1-0.2,0.2-0.3,0.2-0.5c0-0.1,0-0.2-0.1-0.3
			s-0.1-0.1-0.2-0.1s-0.1,0-0.2,0.1c0,0-0.1,0.1-0.1,0.2l-0.1,0.3c-0.1,0.2-0.1,0.3-0.2,0.4S91,52,90.8,52s-0.4-0.1-0.5-0.2
			C90.2,51.6,90.1,51.3,90.1,51z"/>
		<path class="st4" d="M90.1,53.3c0-0.3,0.1-0.6,0.3-0.8c0.2-0.2,0.5-0.3,0.8-0.3h0.2c0.3,0,0.6,0.1,0.8,0.3
			c0.2,0.2,0.3,0.4,0.3,0.8c0,0.3-0.1,0.6-0.3,0.8c-0.2,0.2-0.5,0.3-0.8,0.3h-0.2c-0.3,0-0.6-0.1-0.8-0.3
			C90.2,53.9,90.1,53.7,90.1,53.3z M90.6,53.3c0,0.2,0.1,0.3,0.2,0.4c0.1,0.1,0.3,0.1,0.5,0.1h0.2c0.2,0,0.4,0,0.5-0.1
			s0.2-0.2,0.2-0.4S92.1,53,92,52.9s-0.3-0.1-0.5-0.1h-0.2c-0.2,0-0.4,0-0.5,0.1S90.6,53.2,90.6,53.3z"/>
		<path class="st4" d="M90.1,55.7c0-0.3,0.1-0.5,0.3-0.7s0.4-0.2,0.8-0.2h1.3v0.5h-1.3c-0.2,0-0.4,0-0.5,0.1s-0.1,0.2-0.1,0.3
			s0,0.3,0.1,0.3s0.2,0.1,0.5,0.1h1.3v0.5h-1.3c-0.4,0-0.6-0.1-0.8-0.2S90.1,56,90.1,55.7z"/>
		<path class="st4" d="M90.2,57.2h2.3v0.7l-1.6,0.7v0.1h1.6v0.5h-2.3v-0.7l1.6-0.7v-0.1h-1.6V57.2z"/>
		<path class="st4" d="M90.2,59.7h2.3v0.9c0,0.3-0.1,0.6-0.3,0.8c-0.2,0.2-0.4,0.3-0.8,0.3h-0.2c-0.3,0-0.6-0.1-0.8-0.3
			c-0.2-0.2-0.3-0.4-0.3-0.8v-0.9H90.2z M92,60.6v-0.3h-1.4v0.3c0,0.4,0.2,0.5,0.6,0.5h0.1C91.8,61.1,92,60.9,92,60.6z"/>
		<path class="st4" d="M90.2,62.8h2.3v1.5H92v-1h-0.5v0.9h-0.4v-0.9h-0.5v1h-0.5L90.2,62.8L90.2,62.8z"/>
		<path class="st4" d="M89.8,66.6l0.3-1.2c0.1-0.2,0.2-0.4,0.4-0.5c0.2-0.1,0.4-0.2,0.7-0.2h0.2c0.3,0,0.6,0.1,0.8,0.3
			c0.2,0.2,0.3,0.4,0.3,0.8c0,0.3-0.1,0.6-0.3,0.8c-0.2,0.2-0.5,0.3-0.8,0.3h-0.2c-0.1,0-0.2,0-0.4,0c-0.1,0-0.2-0.1-0.3-0.2
			c-0.1-0.1-0.2-0.2-0.2-0.3l-0.1,0.5L89.8,66.6z M90.5,65.7c0,0.2,0.1,0.3,0.2,0.4s0.3,0.1,0.5,0.1h0.2c0.2,0,0.4,0,0.5-0.1
			s0.2-0.2,0.2-0.4s-0.1-0.3-0.2-0.4s-0.3-0.1-0.5-0.1h-0.2c-0.2,0-0.4,0-0.5,0.1C90.6,65.4,90.5,65.6,90.5,65.7z"/>
		<path class="st4" d="M90.1,68.1c0-0.3,0.1-0.5,0.3-0.7s0.4-0.2,0.8-0.2h1.3v0.5h-1.3c-0.2,0-0.4,0-0.5,0.1s-0.1,0.2-0.1,0.3
			s0,0.3,0.1,0.3s0.2,0.1,0.5,0.1h1.3V69h-1.3c-0.4,0-0.6-0.1-0.8-0.2S90.1,68.5,90.1,68.1z"/>
		<path class="st4" d="M90.2,69.6h2.3v0.5h-2.3V69.6z"/>
		<path class="st4" d="M90.2,70.7h2.3v0.9c0,0.3-0.1,0.5-0.2,0.7s-0.3,0.2-0.5,0.2h-0.1c-0.2,0-0.4-0.1-0.5-0.2
			c-0.1-0.2-0.2-0.4-0.2-0.7v-0.4h-0.8C90.2,71.2,90.2,70.7,90.2,70.7z M92,71.5v-0.4h-0.7v0.4c0,0.1,0,0.2,0.1,0.3s0.1,0.1,0.2,0.1
			h0.1c0.1,0,0.2,0,0.2-0.1C92,71.8,92,71.7,92,71.5z"/>
		<path class="st4" d="M90.2,72.8h2.3v0.8L91.1,74v0.1l1.4,0.4v0.7h-2.3v-0.5h1.6v-0.1l-1.4-0.4v-0.5l1.4-0.4v-0.1h-1.6V72.8z"/>
		<path class="st4" d="M90.2,75.8h2.3v1.5H92v-1h-0.5v0.9h-0.4v-0.9h-0.5v1h-0.5L90.2,75.8L90.2,75.8z"/>
		<path class="st4" d="M90.2,77.8h2.3v0.7l-1.6,0.7v0.1h1.6v0.5h-2.3v-0.7l1.6-0.7v-0.1h-1.6V77.8z"/>
		<path class="st4" d="M90.2,80.8H92v-0.7h0.5V82H92v-0.7h-1.9L90.2,80.8L90.2,80.8z"/>
	</g>
</g>
<g id="Projection_Booth">
	<path class="st3" d="M158.5,51v32.8h-10.6c0,0,4.6-14,0-32.8C147.9,51,158.5,51,158.5,51z"/>
	<g>
		<path class="st4" d="M155,57.3h2.3v0.9c0,0.3-0.1,0.5-0.2,0.7s-0.3,0.2-0.5,0.2h-0.1c-0.2,0-0.4-0.1-0.5-0.2s-0.2-0.4-0.2-0.7
			v-0.4H155V57.3z M156.9,58.2v-0.4h-0.7v0.4c0,0.1,0,0.2,0.1,0.3s0.1,0.1,0.2,0.1h0.1c0.1,0,0.2,0,0.2-0.1
			C156.9,58.4,156.9,58.3,156.9,58.2z"/>
		<path class="st4" d="M155,59.4h2.3v0.9c0,0.3-0.1,0.5-0.2,0.6c-0.1,0.2-0.3,0.2-0.5,0.2h-0.1c-0.1,0-0.3,0-0.4-0.1
			c-0.1-0.1-0.2-0.2-0.2-0.3l-0.9,0.5v-0.6l0.8-0.4v-0.3H155V59.4z M156.9,60.3v-0.4h-0.6v0.4c0,0.1,0,0.2,0.1,0.3
			c0,0.1,0.1,0.1,0.2,0.1h0.1c0.1,0,0.2,0,0.2-0.1S156.9,60.4,156.9,60.3z"/>
		<path class="st4" d="M155,62.6c0-0.3,0.1-0.6,0.3-0.8s0.5-0.3,0.8-0.3h0.2c0.3,0,0.6,0.1,0.8,0.3s0.3,0.4,0.3,0.8
			s-0.1,0.6-0.3,0.8s-0.5,0.3-0.8,0.3h-0.2c-0.3,0-0.6-0.1-0.8-0.3S155,62.9,155,62.6z M155.4,62.6c0,0.2,0.1,0.3,0.2,0.4
			c0.1,0.1,0.3,0.1,0.5,0.1h0.2c0.2,0,0.4,0,0.5-0.1s0.2-0.2,0.2-0.4s-0.1-0.3-0.2-0.4c-0.1-0.1-0.3-0.1-0.5-0.1h-0.2
			c-0.2,0-0.4,0-0.5,0.1C155.5,62.3,155.4,62.4,155.4,62.6z"/>
		<path class="st4" d="M155,64.4c0-0.1,0-0.3,0-0.4s0.1-0.2,0.1-0.3l0.4,0.2c0,0.1-0.1,0.1-0.1,0.2s0,0.1,0,0.2s0,0.1,0,0.2
			s0.1,0.1,0.1,0.1c0.1,0,0.2,0,0.3,0h1.5v0.5h-1.5c-0.2,0-0.4,0-0.5-0.1s-0.2-0.2-0.3-0.3C155,64.7,155,64.5,155,64.4z"/>
		<path class="st4" d="M155,65.7h2.3v1.5h-0.5v-1h-0.5v0.9H156v-0.9h-0.5v1H155V65.7z"/>
		<path class="st4" d="M155,68.7c0-0.2,0-0.4,0.1-0.6s0.2-0.3,0.4-0.4s0.4-0.1,0.6-0.1h0.2c0.2,0,0.4,0,0.6,0.1
			c0.2,0.1,0.3,0.2,0.4,0.4s0.1,0.3,0.1,0.6c0,0.3-0.1,0.6-0.4,0.8l-0.3-0.3c0.2-0.1,0.2-0.3,0.2-0.5s-0.1-0.3-0.2-0.4
			c-0.1-0.1-0.3-0.1-0.5-0.1H156c-0.2,0-0.4,0-0.5,0.1s-0.2,0.2-0.2,0.4c0,0.1,0,0.2,0.1,0.3s0.1,0.2,0.2,0.2l-0.3,0.3
			c-0.1-0.1-0.2-0.2-0.3-0.4C155,69,155,68.9,155,68.7z"/>
		<path class="st4" d="M155,70.4h1.9v-0.7h0.5v1.9h-0.5v-0.7H155V70.4z"/>
		<path class="st4" d="M155,71.9h2.3v0.5H155V71.9z"/>
		<path class="st4" d="M155,73.9c0-0.3,0.1-0.6,0.3-0.8c0.2-0.2,0.5-0.3,0.8-0.3h0.2c0.3,0,0.6,0.1,0.8,0.3c0.2,0.2,0.3,0.4,0.3,0.8
			s-0.1,0.6-0.3,0.8c-0.2,0.2-0.5,0.3-0.8,0.3h-0.2c-0.3,0-0.6-0.1-0.8-0.3S155,74.2,155,73.9z M155.4,73.9c0,0.2,0.1,0.3,0.2,0.4
			c0.1,0.1,0.3,0.1,0.5,0.1h0.2c0.2,0,0.4,0,0.5-0.1s0.2-0.2,0.2-0.4c0-0.2-0.1-0.3-0.2-0.4c-0.1-0.1-0.3-0.1-0.5-0.1h-0.2
			c-0.2,0-0.4,0-0.5,0.1C155.5,73.6,155.4,73.7,155.4,73.9z"/>
		<path class="st4" d="M155,75.4h2.3V76l-1.6,0.7v0.1h1.6v0.5H155v-0.7l1.6-0.7v-0.1H155V75.4z"/>
		<path class="st4" d="M150.8,61.8h2.3v0.9c0,0.3,0,0.5-0.1,0.6s-0.2,0.2-0.4,0.2h-0.1c-0.2,0-0.4-0.1-0.5-0.3
			c0,0.1-0.1,0.2-0.2,0.3c-0.1,0.1-0.2,0.1-0.3,0.1h-0.1c-0.2,0-0.3-0.1-0.5-0.2c-0.1-0.2-0.2-0.4-0.2-0.6v-1H150.8z M152.7,62.7
			v-0.4h-0.5v0.4c0,0.1,0,0.2,0.1,0.2c0,0.1,0.1,0.1,0.2,0.1l0,0c0.1,0,0.1,0,0.2-0.1C152.7,62.9,152.7,62.8,152.7,62.7z
			 M151.2,62.3v0.4c0,0.1,0,0.2,0.1,0.3c0,0.1,0.1,0.1,0.2,0.1l0,0c0.2,0,0.2-0.1,0.2-0.4v-0.4C151.7,62.3,151.2,62.3,151.2,62.3z"
			/>
		<path class="st4" d="M150.8,65c0-0.3,0.1-0.6,0.3-0.8c0.2-0.2,0.5-0.3,0.8-0.3h0.2c0.3,0,0.6,0.1,0.8,0.3c0.2,0.2,0.3,0.4,0.3,0.8
			s-0.1,0.6-0.3,0.8c-0.2,0.2-0.5,0.3-0.8,0.3h-0.2c-0.3,0-0.6-0.1-0.8-0.3S150.8,65.3,150.8,65z M151.2,65c0,0.2,0.1,0.3,0.2,0.4
			c0.1,0.1,0.3,0.1,0.5,0.1h0.2c0.2,0,0.4,0,0.5-0.1s0.2-0.2,0.2-0.4c0-0.2-0.1-0.3-0.2-0.4s-0.3-0.1-0.5-0.1h-0.2
			c-0.2,0-0.4,0-0.5,0.1S151.2,64.8,151.2,65z"/>
		<path class="st4" d="M150.8,67.4c0-0.3,0.1-0.6,0.3-0.8c0.2-0.2,0.5-0.3,0.8-0.3h0.2c0.3,0,0.6,0.1,0.8,0.3
			c0.2,0.2,0.3,0.4,0.3,0.8s-0.1,0.6-0.3,0.8c-0.2,0.2-0.5,0.3-0.8,0.3h-0.2c-0.3,0-0.6-0.1-0.8-0.3S150.8,67.8,150.8,67.4z
			 M151.2,67.4c0,0.2,0.1,0.3,0.2,0.4c0.1,0.1,0.3,0.1,0.5,0.1h0.2c0.2,0,0.4,0,0.5-0.1s0.2-0.2,0.2-0.4c0-0.2-0.1-0.3-0.2-0.4
			s-0.3-0.1-0.5-0.1h-0.2c-0.2,0-0.4,0-0.5,0.1S151.2,67.2,151.2,67.4z"/>
		<path class="st4" d="M150.8,69.3h1.9v-0.7h0.5v1.9h-0.5v-0.7h-1.9V69.3z"/>
		<path class="st4" d="M150.8,70.8h2.3v0.5h-0.9v0.9h0.9v0.5h-2.3v-0.5h0.9v-0.9h-0.9V70.8z"/>
	</g>
</g>
<g id="Loge_2" class="seat-section">
	<polygon class="st5" points="39.8,25.4 26.8,25.4 15.4,33.3 20.3,39.9 39.8,27.8 	"/>
	<g>
		<path class="st2" d="M19.6,37.5l-1.8-2.7l0.6-0.4l1.5,2.2l1.1-0.8l0.4,0.5L19.6,37.5z"/>
		<path class="st2" d="M22.9,35.3c-0.4,0.3-0.8,0.4-1.1,0.3c-0.4-0.1-0.7-0.3-1-0.7l-0.2-0.2c-0.3-0.4-0.4-0.8-0.3-1.2
			s0.3-0.7,0.7-1c0.4-0.3,0.8-0.4,1.1-0.3c0.4,0.1,0.7,0.3,1,0.7l0.2,0.2c0.3,0.4,0.4,0.8,0.3,1.2S23.3,35.1,22.9,35.3z M22.6,34.8
			c0.2-0.1,0.3-0.3,0.3-0.5s-0.1-0.4-0.2-0.7l-0.1-0.2c-0.2-0.3-0.4-0.4-0.6-0.5s-0.4,0-0.6,0.1s-0.3,0.3-0.3,0.5s0.1,0.4,0.2,0.7
			l0.1,0.2c0.2,0.3,0.4,0.4,0.6,0.5C22.2,35,22.4,34.9,22.6,34.8z"/>
		<path class="st2" d="M25.7,33.4c-0.4,0.3-0.8,0.3-1.1,0.2c-0.4-0.1-0.7-0.3-1-0.8l-0.2-0.2c-0.2-0.3-0.3-0.5-0.3-0.8
			s0-0.5,0.1-0.7s0.3-0.4,0.5-0.6c0.2-0.1,0.4-0.2,0.6-0.3s0.4,0,0.6,0l0.1,0.7c-0.2,0-0.3,0-0.4,0S24.4,31,24.3,31
			c-0.2,0.1-0.3,0.3-0.3,0.5s0.1,0.4,0.2,0.7l0.1,0.2c0.2,0.3,0.4,0.4,0.5,0.5c0.2,0.1,0.4,0,0.6-0.1s0.3-0.3,0.3-0.4
			c0-0.2,0-0.4-0.2-0.5L25,32.3l-0.3-0.5l1.2-0.8l0.3,0.5c0.2,0.2,0.3,0.5,0.3,0.7s0,0.5-0.1,0.7C26.2,33.1,26,33.3,25.7,33.4z"/>
		<path class="st2" d="M27.4,32.2l-1.8-2.7l1.8-1.2l0.4,0.5l-1.2,0.8l0.4,0.6l1.1-0.7l0.3,0.5l-1.1,0.7l0.4,0.6l1.2-0.8l0.4,0.5
			L27.4,32.2z"/>
		<path class="st2" d="M30.5,30.1l-0.3-0.5l0.3-1.6c0-0.2,0-0.3,0-0.4s0-0.2-0.1-0.3c-0.1-0.1-0.2-0.2-0.3-0.2c-0.1,0-0.2,0-0.3,0.1
			c-0.1,0.1-0.2,0.2-0.2,0.3c0,0.1-0.1,0.2-0.1,0.4l-0.6-0.1c0-0.2,0.1-0.4,0.2-0.6s0.2-0.4,0.5-0.5c0.3-0.2,0.6-0.3,0.8-0.3
			c0.3,0,0.5,0.2,0.7,0.4c0.1,0.2,0.2,0.4,0.2,0.6s0,0.4-0.1,0.7L31,29l1.1-0.8l0.4,0.5L30.5,30.1z"/>
	</g>
	<path class="st2" d="M35,26.9c-0.1,0-0.1,0-0.2-0.1c-0.1-0.1-0.1-0.1-0.1-0.2s0-0.1,0.1-0.2s0.1-0.1,0.2-0.1c0.1,0,0.1,0,0.2,0.1
		c0.1,0.1,0.1,0.1,0.1,0.2s0,0.1-0.1,0.2C35.1,26.9,35.1,26.9,35,26.9z M35.7,29.2v-0.7H35c-0.1,0-0.1,0-0.2-0.1
		c-0.1-0.1-0.1-0.1-0.1-0.2v-0.9c0-0.1,0-0.1,0.1-0.2S34.9,27,35,27s0.1,0,0.1,0l0.1,0.1c0.1,0.2,0.3,0.3,0.4,0.3s0.2,0.1,0.4,0.1
		v0.3c-0.1,0-0.3,0-0.4-0.1c-0.1-0.1-0.2-0.1-0.3-0.2V28h0.4c0.1,0,0.1,0,0.2,0.1c0.1,0.1,0.1,0.1,0.1,0.2v0.8h-0.3V29.2z
		 M34.7,29.2c-0.2,0-0.4-0.1-0.5-0.2C34,28.8,34,28.7,34,28.5s0.1-0.3,0.2-0.5c0.1-0.1,0.2-0.2,0.4-0.2v0.3c-0.1,0-0.2,0.1-0.2,0.2
		s-0.1,0.2-0.1,0.2c0,0.1,0,0.2,0.1,0.3c0.1,0.1,0.2,0.1,0.3,0.1s0.2,0,0.2-0.1c0.1-0.1,0.1-0.1,0.2-0.2h0.3c0,0.2-0.1,0.3-0.2,0.4
		S34.9,29.2,34.7,29.2z"/>
</g>
<g id="C" class="seat-section">
	<polygon class="st5" points="94.9,46.1 88.5,27 85.2,25.5 85.2,20.6 52.6,20.6 41.9,27.3 41.9,29.4 19.6,43.1 23.4,53.5 54,46.1 	
		"/>
	<g>
		<path class="st2" d="M61.7,37.4c-0.6,0-1.1-0.1-1.6-0.4c-0.4-0.3-0.8-0.6-1-1.1s-0.4-1-0.4-1.7v-0.6c0-0.6,0.1-1.2,0.4-1.7
			c0.2-0.5,0.6-0.8,1-1.1c0.4-0.3,1-0.4,1.6-0.4c0.9,0,1.7,0.3,2.3,1l-0.9,1c-0.4-0.4-0.9-0.7-1.4-0.7s-0.9,0.2-1.1,0.5
			c-0.3,0.3-0.4,0.8-0.4,1.4v0.5c0,0.6,0.1,1.1,0.4,1.4c0.3,0.3,0.6,0.5,1.1,0.5c0.3,0,0.5-0.1,0.7-0.1c0.2-0.1,0.5-0.3,0.7-0.5
			l0.9,0.9c-0.3,0.3-0.6,0.6-1,0.8C62.6,37.3,62.2,37.4,61.7,37.4z"/>
	</g>
</g>
<g id="B" class="seat-section">
	<path class="st5 border" d="M84.2,48.6H54.9L23.8,56v19.7l30.7,7.9H84C84,83.6,86.5,73.6,84.2,48.6z"/>
	<g>
		<path class="st2 no-border" d="M59,68.9v-6.6h2.6c0.8,0,1.4,0.1,1.8,0.4C63.7,63,64,63.4,64,64v0.2c0,0.7-0.3,1.1-1,1.4
			c0.4,0.1,0.6,0.3,0.8,0.6c0.2,0.2,0.3,0.5,0.3,0.9v0.2c0,0.6-0.2,1-0.6,1.3c-0.4,0.3-1,0.5-1.9,0.5H59V68.9z M61.5,63.5h-1.1V65
			h1.1c0.3,0,0.5-0.1,0.7-0.2s0.3-0.3,0.3-0.5v-0.1c0-0.2-0.1-0.4-0.2-0.5C62.1,63.6,61.8,63.5,61.5,63.5z M60.5,67.7h1.1
			c0.3,0,0.6-0.1,0.8-0.2s0.3-0.3,0.3-0.5v-0.1c0-0.5-0.3-0.7-1-0.7h-1.1L60.5,67.7L60.5,67.7z"/>
	</g>
</g>
<g id="A" class="seat-section">
	<polygon class="st5" points="95.3,86.1 53.6,86.1 23.4,78.3 19.9,88.1 41.2,103.1 41.4,105.7 51.8,113.1 85,113.1 85.1,107.1 
		88.1,106 	"/>
	<g>
		<path class="st2" d="M58.3,102l1.9-6.6h2.3l1.9,6.6h-1.6l-0.4-1.4h-2.3l-0.4,1.4H58.3z M61.3,96.7l-0.7,2.6h1.6l-0.7-2.6H61.3z"/>
	</g>
</g>
<g id="Loge_1" class="seat-section">
	<polygon class="st5" points="39,104.3 21,91.8 15.9,98.4 27.4,106.8 39,106.8 	"/>
	<g>
		<path class="st2" d="M18.4,96.9l1.9-2.7l0.6,0.4l-1.5,2.2l1.1,0.8l-0.4,0.5L18.4,96.9z"/>
		<path class="st2" d="M21.6,99.2c-0.4-0.3-0.6-0.6-0.6-1s0.1-0.8,0.4-1.2l0.2-0.2c0.3-0.4,0.6-0.6,1-0.7s0.8,0,1.1,0.3
			c0.4,0.3,0.6,0.6,0.6,1s-0.1,0.8-0.4,1.2l-0.2,0.2c-0.3,0.4-0.6,0.6-1,0.7C22.4,99.6,22,99.5,21.6,99.2z M22,98.7
			c0.2,0.1,0.4,0.2,0.6,0.1s0.4-0.2,0.6-0.5l0.1-0.2c0.2-0.3,0.3-0.5,0.3-0.7s-0.1-0.4-0.3-0.5c-0.2-0.1-0.4-0.2-0.6-0.1
			s-0.4,0.2-0.6,0.5L22,97.5c-0.2,0.3-0.3,0.5-0.3,0.7C21.7,98.4,21.8,98.5,22,98.7z"/>
		<path class="st2" d="M24.4,101.2c-0.4-0.3-0.6-0.6-0.6-1s0.1-0.8,0.4-1.2l0.2-0.2c0.2-0.3,0.4-0.5,0.6-0.6s0.5-0.2,0.7-0.1
			c0.3,0,0.5,0.1,0.7,0.3c0.2,0.1,0.3,0.3,0.5,0.5c0.1,0.2,0.2,0.4,0.2,0.6l-0.6,0.1c0-0.2-0.1-0.3-0.1-0.4
			c-0.1-0.1-0.2-0.2-0.3-0.3c-0.2-0.1-0.4-0.2-0.6-0.1s-0.4,0.2-0.6,0.5l-0.1,0.2c-0.2,0.3-0.3,0.5-0.3,0.7s0.1,0.4,0.3,0.5
			c0.2,0.1,0.3,0.2,0.5,0.1c0.2,0,0.3-0.2,0.4-0.3l-0.5-0.4l0.4-0.5l1.1,0.8l-0.3,0.5c-0.2,0.2-0.4,0.4-0.6,0.5s-0.4,0.1-0.7,0.1
			C24.8,101.5,24.6,101.4,24.4,101.2z"/>
		<path class="st2" d="M26,102.3l1.9-2.7l1.8,1.3l-0.4,0.5l-1.2-0.8l-0.4,0.5l1.1,0.8l-0.4,0.5l-1.1-0.8l-0.4,0.6l1.2,0.9l-0.4,0.5
			L26,102.3z"/>
		<path class="st2" d="M29.3,104.6l0.4-0.5l0.5,0.3l1.2-1.6l-0.5-0.3l0.4-0.5l1.1,0.8l-1.5,2.2l0.5,0.4l-0.4,0.5L29.3,104.6z"/>
	</g>
	<path class="st2" d="M35.1,103.5c-0.1,0-0.1,0-0.2-0.1c-0.1-0.1-0.1-0.1-0.1-0.2s0-0.1,0.1-0.2s0.1-0.1,0.2-0.1s0.1,0,0.2,0.1
		c0.1,0.1,0.1,0.1,0.1,0.2s0,0.1-0.1,0.2C35.2,103.4,35.2,103.5,35.1,103.5z M35.8,105.8V105h-0.7c-0.1,0-0.1,0-0.2-0.1
		c-0.1-0.1-0.1-0.1-0.1-0.2v-0.9c0-0.1,0-0.1,0.1-0.2s0.1-0.1,0.2-0.1c0.1,0,0.1,0,0.1,0l0.1,0.1c0.1,0.2,0.3,0.3,0.4,0.3
		s0.2,0.1,0.4,0.1v0.3c-0.1,0-0.3,0-0.4-0.1s-0.2-0.1-0.3-0.2v0.5h0.4c0.1,0,0.1,0,0.2,0.1s0.1,0.1,0.1,0.2v0.8h-0.3V105.8z
		 M34.8,105.8c-0.2,0-0.4-0.1-0.5-0.2s-0.2-0.3-0.2-0.5s0.1-0.3,0.2-0.5c0.1-0.1,0.2-0.2,0.4-0.2v0.3c-0.1,0-0.2,0.1-0.2,0.2
		c-0.1,0.1-0.1,0.2-0.1,0.2c0,0.1,0,0.2,0.1,0.3c0.1,0.1,0.2,0.1,0.3,0.1s0.2,0,0.2-0.1c0.1-0.1,0.1-0.1,0.2-0.2h0.3
		c0,0.2-0.1,0.3-0.2,0.4C35.1,105.7,35,105.8,34.8,105.8z"/>
</g>
<g id="G" class="seat-section">
	<polygon class="st6" points="116.2,19.4 87.6,19.4 87.6,24 93.1,26 100.2,37.9 120.8,32.7 	"/>
	<g>
		<path class="st2" d="M106.5,31.3c-0.9,0-1.6-0.3-2.1-0.8c-0.5-0.6-0.8-1.3-0.8-2.3v-0.6c0-0.7,0.1-1.2,0.4-1.7
			c0.2-0.5,0.6-0.8,1-1.1c0.4-0.2,1-0.4,1.6-0.4c0.5,0,0.9,0.1,1.3,0.2c0.4,0.2,0.7,0.4,1,0.7l-0.9,0.9c-0.2-0.2-0.4-0.4-0.7-0.5
			c-0.2-0.1-0.5-0.1-0.7-0.1c-0.5,0-0.8,0.2-1.1,0.5c-0.3,0.3-0.4,0.8-0.4,1.4V28c0,0.6,0.1,1.1,0.4,1.4c0.2,0.3,0.6,0.5,1,0.5
			s0.7-0.1,1-0.4c0.2-0.3,0.3-0.6,0.3-1.1h-1.3v-1.2h2.8v1.2c0,0.6-0.1,1.1-0.3,1.5s-0.5,0.7-1,1C107.6,31.2,107.1,31.3,106.5,31.3z
			"/>
	</g>
</g>
<g id="F" class="seat-section">
	<polygon class="st6" points="121.2,35.1 100.8,40.3 103.3,65.5 124.9,65.5 	"/>
	<g>
		<path class="st2" d="M109.8,54.9v-6.6h4.3v1.3h-2.8v1.6h2.5v1.2h-2.5v2.5H109.8z"/>
	</g>
</g>
<g id="E" class="seat-section">
	<polygon class="st6" points="125.3,68.1 103.3,68.1 100.5,93.1 121,98.6 	"/>
	<g>
		<path class="st2" d="M109.8,84.7v-6.6h4.4v1.3h-2.9v1.4h2.6V82h-2.6v1.4h3v1.3C114.3,84.7,109.8,84.7,109.8,84.7z"/>
	</g>
</g>
<g id="D" class="seat-section">
	<polygon class="st6" points="120.7,101.3 99.6,95.5 93.3,107.1 87.3,109.3 87.3,114.1 116.3,114.1 	"/>
	<g>
		<path class="st2" d="M102.4,109.9v-6.6h2.4c1,0,1.7,0.3,2.3,0.8c0.5,0.5,0.8,1.3,0.8,2.2v0.5c0,1-0.3,1.7-0.8,2.2
			s-1.3,0.8-2.3,0.8L102.4,109.9L102.4,109.9z M104.9,104.5H104v4h0.9c1,0,1.5-0.6,1.5-1.8v-0.4
			C106.4,105.1,105.9,104.5,104.9,104.5z"/>
	</g>
</g>
<g id="M" class="seat-section">
	<polygon class="st6" points="129.5,17.1 118.1,17.1 120.1,22.7 132.4,22.7 	"/>
	<g>
		<path class="st2" d="M123.2,21.7v-3.3h1.1l0.6,1.9h0.1l0.6-1.9h1.1v3.3H126v-2.4h-0.1l-0.6,1.9h-0.7l-0.6-1.9h-0.1v2.4H123.2z"/>
	</g>
</g>
<g id="L" class="seat-section">
	<polygon class="st6" points="147.3,23.3 142.6,25 120.7,25.3 123.5,33.6 125.4,49.3 156.7,49.3 151.2,27.3 	"/>
	<g>
		<path class="st2" d="M135.3,40.3v-6.6h1.5V39h2.8v1.3H135.3z"/>
	</g>
</g>
<g id="K" class="seat-section">
	<path class="st6 border" d="M125.7,51.8l2,15.9L126,82.6h20.6c0,0,4.4-16.5,0-30.9h-20.9C125.7,51.7,125.7,51.8,125.7,51.8z"/>
	<g>
		<path class="st2" d="M134.8,68.6V62h1.5v2.6h0.6l1.8-2.6h1.7l-2.2,3.2l2.4,3.4h-1.8l-1.8-2.7h-0.6v2.7H134.8z"/>
	</g>
</g>
<g id="J" class="seat-section">
	<polygon class="st6" points="154.2,84.9 125.5,84.9 123.5,100.7 120.3,109.6 138.6,109.4 143.7,111.9 147.9,107.6 	"/>
	<g>
		<path class="st2" d="M135.8,100.5c-0.4,0-0.7,0-1-0.1s-0.5-0.2-0.7-0.4l0.6-1.1c0.2,0.1,0.3,0.2,0.5,0.2s0.4,0.1,0.6,0.1
			c0.2,0,0.4,0,0.5-0.1c0.2-0.1,0.3-0.2,0.4-0.4c0.1-0.2,0.1-0.4,0.1-0.8v-4.2h1.5v4.2c0,0.6-0.1,1.2-0.3,1.5
			c-0.2,0.4-0.5,0.6-0.9,0.8C136.7,100.4,136.3,100.5,135.8,100.5z"/>
	</g>
</g>
<g id="H" class="seat-section">
	<polygon class="st6" points="128,112 119.5,112.1 117.6,118.2 124.8,118.2 	"/>
	<g>
		<path class="st2" d="M121,116.8v-3.3h0.8v1.3h1.3v-1.3h0.8v3.3H123v-1.3h-1.3v1.3H121z"/>
	</g>
</g>
<g id="R" class="seat-section">
	<polygon class="st7" points="172.8,18.7 135.9,18.7 135.9,20.9 150,21.4 164.5,37.6 181.1,33.8 178.5,26.4 	"/>
	<g>
		<path class="st2" d="M164.9,30.4v-6.6h2.6c0.8,0,1.4,0.2,1.9,0.5c0.4,0.4,0.7,0.9,0.7,1.5V26c0,0.4-0.1,0.8-0.3,1.1
			c-0.2,0.3-0.5,0.5-0.9,0.7l1.5,2.6h-1.7l-1.2-2.3h-1v2.3C166.5,30.4,164.9,30.4,164.9,30.4z M167.5,25.1h-1.1v1.8h1.1
			c0.3,0,0.6-0.1,0.7-0.2c0.2-0.1,0.3-0.4,0.3-0.6V26c0-0.3-0.1-0.5-0.3-0.6C168.1,25.1,167.8,25.1,167.5,25.1z"/>
	</g>
</g>
<g id="Q" class="seat-section">
	<polygon class="st8" points="181.8,36.4 165.6,40.1 168.3,65.6 184.3,65.6 	"/>
	<g>
		<path class="st2" d="M177.5,55.9l-3.4-0.9c-0.7-0.2-1.2-0.5-1.6-1.1c-0.4-0.5-0.6-1.2-0.6-2v-0.6c0-1,0.3-1.8,0.8-2.3
			c0.5-0.6,1.2-0.8,2.2-0.8s1.7,0.3,2.2,0.8c0.5,0.6,0.8,1.3,0.8,2.3v0.6c0,0.4,0,0.7-0.1,1s-0.2,0.6-0.4,0.9s-0.5,0.5-0.8,0.6
			l1.3,0.3L177.5,55.9z M174.9,53.7c0.5,0,0.9-0.2,1.1-0.5c0.2-0.3,0.4-0.8,0.4-1.4v-0.4c0-0.6-0.1-1.1-0.4-1.4s-0.6-0.5-1.1-0.5
			s-0.9,0.2-1.1,0.5c-0.2,0.3-0.4,0.8-0.4,1.4v0.4c0,0.6,0.1,1.1,0.4,1.4C174.1,53.6,174.4,53.7,174.9,53.7z"/>
	</g>
</g>
<g id="P" class="seat-section">
	<polygon class="st7" points="184.4,68.2 168.2,68.2 165.1,93.6 180,97.3 	"/>
	<g>
		<path class="st2" d="M172.2,84.7v-6.6h2.5c0.8,0,1.4,0.2,1.9,0.6s0.7,0.9,0.7,1.5v0.2c0,0.6-0.2,1.2-0.7,1.5
			c-0.5,0.4-1.1,0.6-1.9,0.6h-1v2.2C173.7,84.7,172.2,84.7,172.2,84.7z M174.8,79.3h-1v2h1c0.3,0,0.6-0.1,0.8-0.2
			c0.2-0.2,0.3-0.4,0.3-0.7v-0.2c0-0.3-0.1-0.5-0.3-0.7C175.4,79.4,175.1,79.3,174.8,79.3z"/>
	</g>
</g>
<g id="N" class="seat-section">
	<polygon class="st7" points="164.2,96 146.1,113.9 135.9,113.9 135.9,115.9 171.7,115.9 177.8,107.2 179.2,100.2 	"/>
	<g>
		<path class="st2" d="M162.6,110.8v-6.6h1.9l2.1,4.6h0.2v-4.6h1.4v6.6h-1.9l-2.1-4.6H164v4.6H162.6z"/>
	</g>
</g>
<g id="X" class="seat-section">
	<polygon class="st7" points="211.7,14.6 196.2,14.6 196.2,24.9 197,24.9 207.6,19.8 211.7,19.2 	"/>
	<g>
		<path class="st2" d="M201.5,19.8l1.1-1.7l-1-1.6h0.9l0.6,1h0.1l0.6-1h0.8l-1,1.6l1.1,1.7h-0.9l-0.7-1.1H203l-0.7,1.1H201.5z"/>
	</g>
</g>
<g id="W" class="seat-section">
	<polygon class="st7" points="211.9,21.8 208.2,22.2 198.5,27.5 181.3,27.5 184.2,35.1 185.6,50.4 211.9,50.4 	"/>
	<g>
		<path class="st2" d="M195.9,41.7l-1.3-6.6h1.5l0.8,4.9h0.2l0.9-4.7h2l0.8,4.7h0.2l0.8-4.9h1.5l-1.3,6.6h-2.1l-0.8-4.6h-0.2
			l-0.8,4.6H195.9z"/>
	</g>
</g>
<g id="V" class="seat-section">
	<polygon class="st7" points="211.7,53 185.7,53 187.3,66.9 184.8,83.3 211.7,83.3 	"/>
	<g>
		<path class="st2" d="M197.6,71.1l-1.9-6.6h1.6l1.4,5.2h0.2l1.4-5.2h1.5l-1.9,6.6H197.6z"/>
	</g>
</g>
<g id="T" class="seat-section">
	<polygon class="st7" points="211.9,85.9 184.2,85.9 182.2,100 180.2,106.6 196.7,106.6 205.8,110.8 211.9,112.5 	"/>
	<g>
		<path class="st2" d="M195.9,100.3V95H194v-1.3h5.4V95h-1.9v5.3H195.9z"/>
	</g>
</g>
<g id="S" class="seat-section">
	<polygon class="st7" points="212,115.2 204.5,113 197.4,109.7 197.4,120 211.8,120 	"/>
	<g>
		<path class="st2" d="M203.8,118.5c-0.2,0-0.5,0-0.7-0.1s-0.4-0.2-0.6-0.3l0.4-0.5c0.3,0.2,0.6,0.3,0.9,0.3c0.2,0,0.3,0,0.4-0.1
			s0.2-0.1,0.2-0.3c0-0.2-0.1-0.3-0.4-0.4l-0.4-0.1c-0.3-0.1-0.5-0.2-0.6-0.3c-0.1-0.2-0.2-0.4-0.2-0.6c0-0.3,0.1-0.6,0.3-0.7
			c0.2-0.2,0.5-0.3,0.9-0.3c0.2,0,0.4,0,0.6,0.1c0.2,0.1,0.4,0.1,0.5,0.3l-0.3,0.5c-0.2-0.2-0.5-0.3-0.8-0.3c-0.1,0-0.3,0-0.4,0.1
			c-0.1,0.1-0.2,0.1-0.2,0.3c0,0.1,0,0.2,0.1,0.2c0.1,0.1,0.2,0.1,0.3,0.1l0.4,0.1c0.3,0.1,0.5,0.2,0.6,0.4c0.2,0.2,0.2,0.4,0.2,0.6
			c0,0.3-0.1,0.6-0.4,0.8S204.2,118.5,203.8,118.5z"/>
	</g>
</g>
<g id="Y" class="seat-section">
	<rect x="214.3" y="14.5" class="st7" width="3" height="105.7"/>
	<g>
		<path class="st2" d="M215.5,69.3V68l-1.1-2h0.8l0.6,1.3h0.1l0.6-1.3h0.8l-1.1,2v1.3H215.5z"/>
	</g>
</g>
<g id="Overhang_top_small">
	<polyline class="st9" points="87.1,16.8 87.1,10.9 68.2,10.9 68.2,16.8 	"/>
	<polygon class="st4" points="68.2,16.8 69.3,16.8 68.7,17.7 68.2,18.6 67.7,17.7 67.2,16.8 	"/>
	<g>
		<path class="st4" d="M71.1,9.8c-0.3,0-0.5-0.1-0.6-0.2c-0.1-0.2-0.2-0.4-0.2-0.7V8.7c0-0.3,0.1-0.5,0.2-0.7s0.4-0.2,0.6-0.2
			s0.5,0.1,0.6,0.2c0.1,0.2,0.2,0.4,0.2,0.7v0.2c0,0.3-0.1,0.5-0.2,0.7C71.6,9.7,71.3,9.8,71.1,9.8z M71.1,9.4c0.1,0,0.2,0,0.3-0.1
			c0.1-0.1,0.1-0.2,0.1-0.4V8.7c0-0.2,0-0.3-0.1-0.4c-0.1-0.1-0.2-0.1-0.3-0.1s-0.2,0-0.3,0.1c-0.1,0.1-0.1,0.2-0.1,0.4v0.1
			c0,0.2,0,0.3,0.1,0.4C70.8,9.3,70.9,9.4,71.1,9.4z"/>
		<path class="st4" d="M72.6,9.7l-0.5-1.9h0.5L73,9.3l0,0l0.4-1.5h0.4l-0.5,1.9H72.6z"/>
		<path class="st4" d="M74.1,9.7V7.8h1.3v0.4h-0.8v0.4h0.8V9h-0.8v0.4h0.9v0.4L74.1,9.7L74.1,9.7z"/>
		<path class="st4" d="M75.7,9.7V7.8h0.7c0.2,0,0.4,0.1,0.5,0.2c0.1,0.1,0.2,0.2,0.2,0.4v0.1c0,0.1,0,0.2-0.1,0.3s0,0.1-0.1,0.2
			l0.4,0.7h-0.5L76.5,9h-0.3v0.7H75.7z M76.5,8.2h-0.3v0.5h0.3c0.1,0,0.2,0,0.2-0.1s0.1-0.1,0.1-0.2l0,0c0-0.1,0-0.1-0.1-0.2
			C76.6,8.2,76.6,8.2,76.5,8.2z"/>
		<path class="st4" d="M77.6,9.7V7.8H78v0.8h0.7V7.8h0.4v1.9h-0.4V8.9H78v0.8H77.6z"/>
		<path class="st4" d="M79.5,9.7L80,7.8h0.7l0.6,1.9h-0.5l-0.1-0.4H80l-0.1,0.4H79.5z M80.3,8.2L80.1,9h0.5L80.3,8.2L80.3,8.2z"/>
		<path class="st4" d="M81.5,9.7V7.8h0.6l0.6,1.3l0,0V7.8h0.4v1.9h-0.6l-0.6-1.3l0,0v1.3H81.5z"/>
		<path class="st4" d="M84.3,9.8c-0.3,0-0.5-0.1-0.6-0.2c-0.1-0.2-0.2-0.4-0.2-0.7V8.7c0-0.2,0-0.4,0.1-0.5s0.2-0.2,0.3-0.3
			c0.1-0.1,0.3-0.1,0.5-0.1c0.1,0,0.3,0,0.4,0.1S84.9,8,85,8l-0.3,0.3c-0.1-0.1-0.1-0.1-0.2-0.1s-0.1,0-0.2,0s-0.2,0-0.3,0.1
			c-0.1,0.1-0.1,0.2-0.1,0.4v0.1c0,0.2,0,0.3,0.1,0.4c0.1,0.1,0.2,0.1,0.3,0.1c0.1,0,0.2,0,0.3-0.1c0.1-0.1,0.1-0.2,0.1-0.3h-0.4
			V8.6h0.8v0.3c0,0.2,0,0.3-0.1,0.4c-0.1,0.1-0.2,0.2-0.3,0.3C84.6,9.7,84.5,9.8,84.3,9.8z"/>
	</g>
</g>
<g id="Overhang_top_large">
	<polyline class="st9" points="149.9,17.3 149.9,4.6 68.2,4.6 68.2,8.4 	"/>
	<polygon class="st4" points="68.2,8.3 69.3,8.3 68.7,9.3 68.2,10.2 67.7,9.3 67.2,8.3 	"/>
	<g>
		<path class="st4" d="M101.5,3.3c-0.3,0-0.5-0.1-0.6-0.2c-0.1-0.2-0.2-0.4-0.2-0.7V2.2c0-0.3,0.1-0.5,0.2-0.7s0.4-0.2,0.6-0.2
			s0.5,0.1,0.6,0.2c0.1,0.2,0.2,0.4,0.2,0.7v0.2c0,0.3-0.1,0.5-0.2,0.7C102,3.2,101.7,3.3,101.5,3.3z M101.5,2.9
			c0.1,0,0.2,0,0.3-0.1c0.1-0.1,0.1-0.2,0.1-0.4V2.2c0-0.2,0-0.3-0.1-0.4s-0.2-0.1-0.3-0.1s-0.2,0-0.3,0.1C101.1,1.9,101,2,101,2.2
			v0.1c0,0.2,0,0.3,0.1,0.4C101.2,2.8,101.3,2.9,101.5,2.9z"/>
		<path class="st4" d="M103,3.2l-0.5-1.9h0.5l0.4,1.5h0.1l0.4-1.5h0.4l-0.5,1.9C103.8,3.2,103,3.2,103,3.2z"/>
		<path class="st4" d="M104.5,3.2V1.3h1.3v0.4H105v0.4h0.8v0.4H105v0.4h0.9v0.4h-1.4V3.2z"/>
		<path class="st4" d="M106.1,3.2V1.3h0.7c0.2,0,0.4,0.1,0.5,0.2s0.2,0.2,0.2,0.4V2c0,0.1,0,0.2-0.1,0.3s-0.1,0.2-0.2,0.2l0.4,0.7
			h-0.5l-0.4-0.7h-0.3v0.7H106.1z M106.9,1.7h-0.3v0.5h0.3c0.1,0,0.2,0,0.2-0.1s0.1-0.1,0.1-0.2l0,0c0-0.1,0-0.1-0.1-0.2
			C107,1.7,107,1.7,106.9,1.7z"/>
		<path class="st4" d="M108,3.2V1.3h0.4v0.8h0.7V1.3h0.4v1.9h-0.4V2.5h-0.7v0.8L108,3.2L108,3.2z"/>
		<path class="st4" d="M109.9,3.2l0.6-1.9h0.7l0.6,1.9h-0.5l-0.1-0.4h-0.7l-0.1,0.4H109.9z M110.7,1.7l-0.2,0.8h0.5L110.7,1.7
			L110.7,1.7z"/>
		<path class="st4" d="M111.9,3.2V1.3h0.6l0.6,1.3l0,0V1.3h0.4v1.9H113l-0.6-1.3l0,0v1.3C112.4,3.2,111.9,3.2,111.9,3.2z"/>
		<path class="st4" d="M114.7,3.3c-0.3,0-0.5-0.1-0.6-0.2c-0.1-0.2-0.2-0.4-0.2-0.7V2.2c0-0.2,0-0.4,0.1-0.5s0.2-0.2,0.3-0.3
			c0.1-0.1,0.3-0.1,0.5-0.1c0.1,0,0.3,0,0.4,0.1s0.2,0.1,0.3,0.2l-0.3,0.3c-0.1-0.1-0.1-0.1-0.2-0.1s-0.1,0-0.2,0s-0.2,0-0.3,0.1
			c-0.1,0.1-0.1,0.2-0.1,0.4v0.1c0,0.2,0,0.3,0.1,0.4c0.1,0.1,0.2,0.1,0.3,0.1c0.1,0,0.2,0,0.3-0.1c0.1-0.1,0.1-0.2,0.1-0.3h-0.4
			V2.1h0.8v0.3c0,0.2,0,0.3-0.1,0.4c-0.1,0.1-0.2,0.2-0.3,0.3C115,3.2,114.9,3.3,114.7,3.3z"/>
	</g>
</g>
<g id="Overhang_bottom_small">
	<polyline class="st9" points="87.2,116.6 87.2,123.9 68,123.9 68,116.7 	"/>
	<polygon class="st4" points="68,116.8 69.1,116.8 68.5,115.9 68,114.9 67.5,115.9 67,116.8 	"/>
	<g>
		<path class="st4" d="M71,127c-0.3,0-0.5-0.1-0.6-0.2s-0.2-0.4-0.2-0.7v-0.2c0-0.3,0.1-0.5,0.2-0.7s0.4-0.2,0.6-0.2
			s0.5,0.1,0.6,0.2c0.1,0.2,0.2,0.4,0.2,0.7v0.2c0,0.3-0.1,0.5-0.2,0.7C71.5,126.9,71.3,127,71,127z M71,126.6c0.1,0,0.2,0,0.3-0.1
			c0.1-0.1,0.1-0.2,0.1-0.4V126c0-0.2,0-0.3-0.1-0.4s-0.2-0.1-0.3-0.1s-0.2,0-0.3,0.1c-0.1,0.1-0.1,0.2-0.1,0.4v0.1
			c0,0.2,0,0.3,0.1,0.4C70.8,126.6,70.9,126.6,71,126.6z"/>
		<path class="st4" d="M72.6,127l-0.6-2h0.5l0.4,1.5H73l0.4-1.5h0.4l-0.5,1.9L72.6,127L72.6,127z"/>
		<path class="st4" d="M74,127v-2h1.3v0.4h-0.8v0.4h0.8v0.4h-0.8v0.4h0.9v0.4C75.4,127,74,127,74,127z"/>
		<path class="st4" d="M75.7,127v-2h0.7c0.2,0,0.4,0.1,0.5,0.2s0.2,0.2,0.2,0.4v0.1c0,0.1,0,0.2-0.1,0.3s-0.1,0.2-0.2,0.2l0.4,0.7
			h-0.5l-0.4-0.7H76v0.7h-0.3V127z M76.5,125.4h-0.3v0.5h0.3c0.1,0,0.2,0,0.2-0.1c0.1,0,0.1-0.1,0.1-0.2l0,0c0-0.1,0-0.1-0.1-0.2
			S76.5,125.4,76.5,125.4z"/>
		<path class="st4" d="M77.6,127v-2H78v0.8h0.7V125h0.4v1.9h-0.4v-0.8H78v0.8L77.6,127L77.6,127z"/>
		<path class="st4" d="M79.4,127l0.6-2h0.7l0.6,1.9h-0.5l-0.1-0.4H80l-0.1,0.4L79.4,127L79.4,127z M80.3,125.4l-0.2,0.8h0.5
			L80.3,125.4L80.3,125.4z"/>
		<path class="st4" d="M81.5,127v-2H82l0.6,1.3l0,0V125H83v1.9h-0.6l-0.6-1.3l0,0v1.3L81.5,127L81.5,127z"/>
		<path class="st4" d="M84.3,127c-0.3,0-0.5-0.1-0.6-0.2c-0.1-0.2-0.2-0.4-0.2-0.7v-0.2c0-0.2,0-0.4,0.1-0.5s0.2-0.2,0.3-0.3
			c0.1-0.1,0.3-0.1,0.5-0.1c0.1,0,0.3,0,0.4,0.1c0.1,0,0.2,0.1,0.3,0.2l-0.3,0.3c-0.1-0.1-0.1-0.1-0.2-0.1s-0.1,0-0.2,0
			s-0.2,0-0.3,0.1c-0.1,0.1-0.1,0.2-0.1,0.4v0.1c0,0.2,0,0.3,0.1,0.4s0.2,0.1,0.3,0.1c0.1,0,0.2,0,0.3-0.1c0.1-0.1,0.1-0.2,0.1-0.3
			h-0.4v-0.4h0.8v0.3c0,0.2,0,0.3-0.1,0.4s-0.2,0.2-0.3,0.3C84.6,127,84.5,127,84.3,127z"/>
	</g>
</g>
<g id="Overhang_bottom_large">
	<polyline class="st9" points="146.7,117.4 146.7,131.6 68,131.6 68,126.9 	"/>
	<polygon class="st4" points="68,126.9 69.1,126.9 68.5,126 68,125.1 67.5,126 67,126.9 	"/>
	<g>
		<path class="st4" d="M99.5,135c-0.3,0-0.5-0.1-0.6-0.2s-0.2-0.4-0.2-0.7v-0.2c0-0.3,0.1-0.5,0.2-0.7s0.4-0.2,0.6-0.2
			s0.5,0.1,0.6,0.2c0.1,0.2,0.2,0.4,0.2,0.7v0.2c0,0.3-0.1,0.5-0.2,0.7C100,134.9,99.8,135,99.5,135z M99.5,134.6
			c0.1,0,0.2,0,0.3-0.1c0.1-0.1,0.1-0.2,0.1-0.4V134c0-0.2,0-0.3-0.1-0.4c-0.1-0.1-0.2-0.1-0.3-0.1s-0.2,0-0.3,0.1
			c-0.1,0.1-0.1,0.2-0.1,0.4v0.1c0,0.2,0,0.3,0.1,0.4C99.3,134.5,99.4,134.6,99.5,134.6z"/>
		<path class="st4" d="M101.1,134.9l-0.5-1.9h0.5l0.4,1.5h0.1l0.4-1.5h0.4l-0.5,1.9H101.1z"/>
		<path class="st4" d="M102.5,134.9V133h1.3v0.4H103v0.4h0.8v0.4H103v0.4h0.9v0.4L102.5,134.9L102.5,134.9z"/>
		<path class="st4" d="M104.2,134.9V133h0.7c0.2,0,0.4,0.1,0.5,0.2c0.1,0.1,0.2,0.2,0.2,0.4v0.1c0,0.1,0,0.2-0.1,0.3
			s-0.1,0.2-0.2,0.2l0.4,0.7h-0.5l-0.4-0.7h-0.3v0.7H104.2z M105,133.4h-0.3v0.5h0.3c0.1,0,0.2,0,0.2-0.1c0.1,0,0.1-0.1,0.1-0.2l0,0
			c0-0.1,0-0.1-0.1-0.2S105,133.4,105,133.4z"/>
		<path class="st4" d="M106.1,134.9V133h0.4v0.8h0.7V133h0.4v1.9h-0.4v-0.8h-0.7v0.8H106.1z"/>
		<path class="st4" d="M107.9,134.9l0.6-1.9h0.7l0.6,1.9h-0.5l-0.1-0.4h-0.7l-0.1,0.4H107.9z M108.8,133.4l-0.2,0.8h0.5L108.8,133.4
			L108.8,133.4z"/>
		<path class="st4" d="M110,134.9V133h0.6l0.6,1.3l0,0V133h0.4v1.9H111l-0.6-1.3l0,0v1.3H110z"/>
		<path class="st4" d="M112.8,135c-0.3,0-0.5-0.1-0.6-0.2c-0.1-0.2-0.2-0.4-0.2-0.7v-0.2c0-0.2,0-0.4,0.1-0.5s0.2-0.2,0.3-0.3
			c0.1-0.1,0.3-0.1,0.5-0.1c0.1,0,0.3,0,0.4,0.1c0.1,0,0.2,0.1,0.3,0.2l-0.3,0.3c-0.1-0.1-0.1-0.1-0.2-0.1s-0.1,0-0.2,0
			s-0.2,0-0.3,0.1c-0.1,0.1-0.1,0.2-0.1,0.4v0.1c0,0.2,0,0.3,0.1,0.4c0.1,0.1,0.2,0.1,0.3,0.1c0.1,0,0.2,0,0.3-0.1
			c0.1-0.1,0.1-0.2,0.1-0.3h-0.4v-0.4h0.8v0.3c0,0.2,0,0.3-0.1,0.4c-0.1,0.1-0.2,0.2-0.3,0.3C113.1,134.9,113,135,112.8,135z"/>
	</g>
</g>
</svg>
