<svg version="1.1" xmlns="http://www.w3.org/2000/svg" xmlns:xlink="http://www.w3.org/1999/xlink" x="0px" y="0px"
	 viewBox="0 0 224.2 136" style="enable-background:new 0 0 224.2 136;" xml:space="preserve">
<style type="text/css">
	.st0{display:none;}
	.st1{fill:#DCDDDE;}
	.st2{fill:#BCBDC0;}
	.st3{fill:none;}
	.st4{fill:#FFFFFF;}
	.st5{font-family:'Delivery';font-weight:bold;}
	.st6{font-size:10px;}
	.st7{fill:#C3C4C6;}
	.st8{fill:#6D6D6D;}
	.st9{font-size:3px;}
	.st10{fill:#023049;}
	.st11{font-size:5px;}
	.st12{fill:#008752;}
	.st13{fill:#C6A260;}
	.st13.sec-darkgold{fill:#855f19;}
	.st14.sec-darkgold{fill:#855f19;}
	.st14{fill:#C7A25F;}
	.st15{font-size:4.5px;}
	.st16{fill:none;stroke:#6D6D6D;stroke-width:0.25;stroke-miterlimit:10;}
</style>
<g id="Grey_bg">
	<polygon class="st1" points="0,36.1 0,95.6 6.7,99.8 5.7,110.5 22.4,123.4 43.2,123.4 50.1,119.2 82.8,119.9 116.2,124.2 
		135.4,124.2 150.8,122.1 177.1,122.1 193.6,126.6 224.2,126.6 224.2,8.9 191.4,8.9 178,13.2 149.6,12.8 137.5,11.5 114.5,11.3 
		70.9,14.1 50.5,14.8 44.4,8.9 23,8.9 5.8,21.4 6.7,31.6 	"/>
</g>
<g id="Stage_Bg_grey">
	<path class="st2" d="M12.6,40.5H5.3v49.8h7.3C12.6,90.3,26,66.2,12.6,40.5z"/>
	<rect x="7.4" y="40.5" class="st3" width="7.4" height="49.8"/>
	<text transform="matrix(4.489659e-11 -1 1 4.489659e-11 14.3578 80.5221)" class="st4 st5 st6">STAGE</text>
</g>
<g id="White_Left">
	<polygon class="st4" points="40.9,26.1 40.9,24.3 26.3,24.3 13.7,33 19.9,41.5 17.9,42.8 22.5,55.1 22.6,76.9 18.7,88.7 20.4,90.2 
		14,98.6 26.9,108.3 39.8,108.3 40.2,106.8 51.5,114.6 85.9,114.6 85.9,115.6 116.9,115.6 116.2,119.5 125.4,119.5 130.2,111.1 
		142.2,112.5 144.5,112.4 149.1,108.2 155.8,83.8 158.1,83.7 158.1,50.7 152.6,27.2 148.4,22.9 144.6,22.9 141.6,24.1 134,24 
		130,15.9 116.3,15.9 117.1,18 85.9,18.2 85.9,19.6 52,19.6 	"/>
</g>
<g id="White_Right">
	<polygon class="st4" points="173.5,17.4 133.6,17.4 133.6,22.3 148.7,22.9 164.2,39.3 166.8,66.7 163.3,94.5 144.8,112.6 
		133.6,112.6 133.6,117.4 172.1,117.4 179,108.1 196,108 196,121.2 218.6,121.2 218.6,13.4 194.5,13.4 194.5,25.9 179.8,25.9 	"/>
</g>
<g id="Sound_Equipment">
	<path class="st7" d="M96.5,47.4v37.2h-11c0,0,2.2-5.9,0-37.2H96.5z"/>
	<rect x="89.1" y="47.4" class="st3" width="3.5" height="37.2"/>
	<text transform="matrix(0 1 -1 0 90.4466 52.2742)" class="st8 st5 st9">SOUND EQUIPMENT</text>
</g>
<g id="Projection_Booth">
	<path class="st7" d="M158.5,51v32.8h-10.6c0,0,4.6-14,0-32.8H158.5z"/>
	<rect x="150.5" y="51" class="st3" width="6.4" height="32.6"/>
	<text transform="matrix(0 1 -1 0 154.8724 58.418)"><tspan x="0" y="0" class="st8 st5 st9">PROJECTION</tspan><tspan x="3.9" y="3.6" class="st8 st5 st9">BOOTH</tspan></text>
</g>
<g id="Loge_2" class="seat-section">
	<polygon class="st10 sec-blue" points="39.8,25.4 26.8,25.4 15.4,33.3 20.3,39.9 39.8,27.8 	"/>
	<path class="st4" d="M35,26.9c-0.1,0-0.1,0-0.2-0.1c-0.1-0.1-0.1-0.1-0.1-0.2s0-0.1,0.1-0.2c0.1-0.1,0.1-0.1,0.2-0.1
		c0.1,0,0.1,0,0.2,0.1c0.1,0.1,0.1,0.1,0.1,0.2s0,0.1-0.1,0.2C35.1,26.9,35.1,26.9,35,26.9z M35.7,29.2v-0.7H35
		c-0.1,0-0.1,0-0.2-0.1c-0.1-0.1-0.1-0.1-0.1-0.2v-0.9c0-0.1,0-0.1,0.1-0.2c0.1-0.1,0.1-0.1,0.2-0.1c0.1,0,0.1,0,0.1,0
		c0,0,0.1,0.1,0.1,0.1c0.1,0.2,0.3,0.3,0.4,0.3s0.2,0.1,0.4,0.1v0.3c-0.1,0-0.3,0-0.4-0.1c-0.1-0.1-0.2-0.1-0.3-0.2v0.5h0.4
		c0.1,0,0.1,0,0.2,0.1c0.1,0.1,0.1,0.1,0.1,0.2v0.8H35.7z M34.7,29.2c-0.2,0-0.4-0.1-0.5-0.2C34,28.8,34,28.7,34,28.5
		c0-0.2,0.1-0.3,0.2-0.5c0.1-0.1,0.2-0.2,0.4-0.2v0.3c-0.1,0-0.2,0.1-0.2,0.2s-0.1,0.2-0.1,0.2c0,0.1,0,0.2,0.1,0.3
		c0.1,0.1,0.2,0.1,0.3,0.1c0.1,0,0.2,0,0.2-0.1c0.1-0.1,0.1-0.1,0.2-0.2h0.3c0,0.2-0.1,0.3-0.2,0.4S34.9,29.2,34.7,29.2z"/>
	<rect x="16.8" y="29.7" transform="matrix(0.829 -0.5592 0.5592 0.829 -13.506 20.0454)" class="st3" width="18.4" height="4.9"/>
	<text transform="matrix(0.829 -0.5592 0.5592 0.829 19.8884 37.5173)" class="st4 st5 st11">LOGE 2</text>
</g>
<g id="C" class="seat-section">
	<polygon class="st10 sec-blue" points="94.9,46.1 88.5,27 85.2,25.5 85.2,20.6 52.6,20.6 41.9,27.3 41.9,29.4 19.6,43.1 23.4,53.5 54,46.1 	
		"/>
	<rect x="58.2" y="30.2" class="st3" width="7.3" height="7.9"/>
	<text transform="matrix(1 0 0 1 58.222 37.2246)" class="st4 st5 st6">C</text>
</g>
<g id="B" class="seat-section">
	<path class="st10 sec-blue" d="M84.2,48.6H54.9L23.8,56v19.7l30.7,7.9H84C84,83.6,86.5,73.6,84.2,48.6z"/>
	<rect x="58.2" y="61.9" class="st3" width="7.3" height="7.9"/>
	<text transform="matrix(1 0 0 1 58.222 68.9226)" class="st4 st5 st6">B</text>
</g>
<g id="A" class="seat-section">
	<polygon class="st10 sec-blue" points="95.3,86.1 53.6,86.1 23.4,78.3 19.9,88.1 41.2,103.1 41.4,105.7 51.8,113.1 85,113.1 85.1,107.1 
		88.1,106 	"/>
	<rect x="58.2" y="95" class="st3" width="7.3" height="7.9"/>
	<text transform="matrix(1 0 0 1 58.222 101.9711)" class="st4 st5 st6">A</text>
</g>
<g id="Loge_1" class="seat-section">
	<polygon class="st10 sec-blue" points="39,104.3 21,91.8 15.9,98.4 27.4,106.8 39,106.8 	"/>
	<path class="st4" d="M35.1,103.5c-0.1,0-0.1,0-0.2-0.1c-0.1-0.1-0.1-0.1-0.1-0.2s0-0.1,0.1-0.2c0.1-0.1,0.1-0.1,0.2-0.1
		s0.1,0,0.2,0.1c0.1,0.1,0.1,0.1,0.1,0.2s0,0.1-0.1,0.2C35.2,103.4,35.2,103.5,35.1,103.5z M35.8,105.8V105h-0.7
		c-0.1,0-0.1,0-0.2-0.1c-0.1-0.1-0.1-0.1-0.1-0.2v-0.9c0-0.1,0-0.1,0.1-0.2c0.1-0.1,0.1-0.1,0.2-0.1c0.1,0,0.1,0,0.1,0
		s0.1,0.1,0.1,0.1c0.1,0.2,0.3,0.3,0.4,0.3s0.2,0.1,0.4,0.1v0.3c-0.1,0-0.3,0-0.4-0.1s-0.2-0.1-0.3-0.2v0.5h0.4c0.1,0,0.1,0,0.2,0.1
		s0.1,0.1,0.1,0.2v0.8H35.8z M34.8,105.8c-0.2,0-0.4-0.1-0.5-0.2c-0.1-0.1-0.2-0.3-0.2-0.5c0-0.2,0.1-0.3,0.2-0.5
		c0.1-0.1,0.2-0.2,0.4-0.2v0.3c-0.1,0-0.2,0.1-0.2,0.2c-0.1,0.1-0.1,0.2-0.1,0.2c0,0.1,0,0.2,0.1,0.3c0.1,0.1,0.2,0.1,0.3,0.1
		c0.1,0,0.2,0,0.2-0.1c0.1-0.1,0.1-0.1,0.2-0.2h0.3c0,0.2-0.1,0.3-0.2,0.4C35.1,105.7,35,105.8,34.8,105.8z"/>
	<rect x="23.6" y="91.1" transform="matrix(0.5878 -0.809 0.809 0.5878 -70.4412 62.4173)" class="st3" width="4.9" height="18.4"/>
	<text transform="matrix(0.809 0.5878 -0.5878 0.809 18.8491 96.4112)" class="st4 st5 st11 no-border">LOGE 1</text>
</g>
<g id="G" class="seat-section">
	<polygon class="st12 sec-green" points="116.2,19.4 87.6,19.4 87.6,24 93.1,26 100.2,37.9 120.8,32.7 	"/>
	<rect x="103.2" y="24.2" class="st3" width="7.3" height="7.9"/>
	<text transform="matrix(1 0 0 1 103.1684 31.1617)" class="st4 st5 st6">G</text>
</g>
<g id="F" class="seat-section">
	<polygon class="st12 sec-green" points="121.2,35.1 100.8,40.3 103.3,65.5 124.9,65.5 	"/>
	<rect x="109" y="47.9" class="st3" width="7.3" height="7.9"/>
	<text transform="matrix(1 0 0 1 109.0059 54.852)" class="st4 st5 st6">F</text>
</g>
<g id="E" class="seat-section">
	<polygon class="st12 sec-green" points="125.3,68.1 103.3,68.1 100.5,93.1 121,98.6 	"/>
	<rect x="109" y="77.7" class="st3" width="7.3" height="7.9"/>
	<text transform="matrix(1 0 0 1 109.0059 84.6954)" class="st4 st5 st6">E</text>
</g>
<g id="D" class="seat-section">
	<polygon class="st12 sec-green" points="120.7,101.3 99.6,95.5 93.3,107.1 87.3,109.3 87.3,114.1 116.3,114.1 	"/>
	<rect x="101.7" y="102.9" class="st3" width="7.3" height="7.9"/>
	<text transform="matrix(1 0 0 1 101.6784 109.8514)" class="st4 st5 st6">D</text>
</g>
<g id="M" class="seat-section">
	<polygon class="st12 sec-green" points="129.5,17.1 118.1,17.1 120.1,22.7 132.4,22.7 	"/>
	<rect x="122.8" y="18.2" class="st3" width="4.4" height="4.5"/>
	<text transform="matrix(1 0 0 1 122.8272 21.6583)" class="st4 st5 st11">M</text>
</g>
<g id="L" class="seat-section">
	<polygon class="st12 sec-green" points="147.3,23.3 142.6,25 120.7,25.3 123.5,33.6 125.4,49.3 156.7,49.3 151.2,27.3 	"/>
	<rect x="134.6" y="33.3" class="st3" width="7.3" height="7.9"/>
	<text transform="matrix(1 0 0 1 134.5598 40.2843)" class="st4 st5 st6">L</text>
</g>
<g id="K" class="seat-section">
	<path class="st12 sec-green" d="M125.7,51.8l2,15.9l-1.7,14.9h20.6c0,0,4.4-16.5,0-30.9H125.7z"/>
	<rect x="134" y="61.6" class="st3" width="8.4" height="7.9"/>
	<text transform="matrix(1 0 0 1 133.9982 68.5744)" class="st4 st5 st6">K</text>
</g>
<g id="J" class="seat-section">
	<polygon class="st12 sec-green" points="154.2,84.9 125.5,84.9 123.5,100.7 120.3,109.6 138.6,109.4 143.7,111.9 147.9,107.6 	"/>
	<rect x="134" y="93.3" class="st3" width="7.3" height="7.9"/>
	<text transform="matrix(1 0 0 1 133.9977 100.3329)" class="st4 st5 st6">J</text>
</g>
<g id="H" class="seat-section">
	<polygon class="st12 sec-green" points="128,112 119.5,112.1 117.6,118.2 124.8,118.2 	"/>
	<rect x="120.6" y="113.3" class="st3" width="3.7" height="4.5"/>
	<text transform="matrix(1 0 0 1 120.6261 116.8026)" class="st4 st5 st11">H</text>
</g>
<g id="R" class="seat-section">
	<polygon class="st13 sec-darkgold" points="172.8,18.7 135.9,18.7 135.9,20.9 150,21.4 164.5,37.6 181.1,33.8 178.5,26.4 	"/>
	<rect x="164.2" y="23.4" class="st3" width="7.3" height="7.9"/>
	<text transform="matrix(1 0 0 1 164.1613 30.4311)" class="st4 st5 st6">R</text>
</g>
<g id="Q" class="seat-section">
	<polygon class="st14 sec-darkgold" points="181.8,36.4 165.6,40.1 168.3,65.6 184.3,65.6 	"/>
	<rect x="171.5" y="47.9" class="st3" width="7.3" height="7.9"/>
	<text transform="matrix(1 0 0 1 171.471 54.852)" class="st4 st5 st6">Q</text>
</g>
<g id="P" class="seat-section">
	<polygon class="st13 sec-darkgold" points="184.4,68.2 168.2,68.2 165.1,93.6 180,97.3 	"/>
	<rect x="171.5" y="77.7" class="st3" width="7.3" height="7.9"/>
	<text transform="matrix(1 0 0 1 171.471 84.6954)" class="st4 st5 st6">P</text>
</g>
<g id="N" class="seat-section">
	<polygon class="st13 sec-darkgold" points="164.2,96 146.1,113.9 135.9,113.9 135.9,115.9 171.7,115.9 177.8,107.2 179.2,100.2 	"/>
	<rect x="161.9" y="103.8" class="st3" width="7.3" height="7.9"/>
	<text transform="matrix(1 0 0 1 161.8812 110.7732)" class="st4 st5 st6">N</text>
</g>
<g id="X" class="seat-section">
	<polygon class="st13 sec-gold" points="211.7,14.6 196.2,14.6 196.2,24.9 197,24.9 207.6,19.8 211.7,19.2 	"/>
	<rect x="201.5" y="16.3" class="st3" width="3.7" height="4.5"/>
	<text transform="matrix(1 0 0 1 201.4729 19.8362)" class="st4 st5 st11">X</text>
</g>
<g id="W" class="seat-section">
	<polygon class="st13 sec-gold" points="211.9,21.8 208.2,22.2 198.5,27.5 181.3,27.5 184.2,35.1 185.6,50.4 211.9,50.4 	"/>
	<rect x="194.4" y="34.7" class="st3" width="9.9" height="7.9"/>
	<text transform="matrix(1 0 0 1 194.3513 41.7282)" class="st4 st5 st6">W</text>
</g>
<g id="V" class="seat-section">
	<polygon class="st13 sec-gold" points="211.7,53 185.7,53 187.3,66.9 184.8,83.3 211.7,83.3 	"/>
	<rect x="195.6" y="64.1" class="st3" width="7.3" height="7.9"/>
	<text transform="matrix(1 0 0 1 195.6345 71.0854)" class="st4 st5 st6">V</text>
</g>
<g id="T" class="seat-section">
	<polygon class="st13 sec-gold" points="211.9,85.9 184.2,85.9 182.2,100 180.2,106.6 196.7,106.6 205.8,110.8 211.9,112.5 	"/>
	<rect x="193.8" y="93.3" class="st3" width="7.3" height="7.9"/>
	<text transform="matrix(1 0 0 1 193.805 100.3329)" class="st4 st5 st6">T</text>
</g>
<g id="S" class="seat-section">
	<polygon class="st13 sec-gold" points="212,115.2 204.5,113 197.4,109.7 197.4,120 211.8,120 	"/>
	<rect x="202.4" y="114.9" class="st3" width="3.7" height="4.5"/>
	<text transform="matrix(1 0 0 1 202.3994 118.3756)" class="st4 st5 st11">S</text>
</g>
<g id="Y" class="seat-section">
	<rect x="214.3" y="14.5" class="st13 sec-gold" width="3" height="105.7"/>
	<rect x="214.3" y="65.8" class="st3" width="3.1" height="4.5"/>
	<text transform="matrix(1 0 0 1 214.45 68.934)" class="st4 st5 st15">Y</text>
</g>
<g id="Overhang_top_small">
	<polyline class="st16" points="87.1,16.8 87.1,10.9 68.2,10.9 68.2,16.8 	"/>
	<polygon class="st8" points="68.2,16.8 69.3,16.8 68.7,17.7 68.2,18.6 67.7,17.7 67.2,16.8 	"/>
	<rect x="68.9" y="7.7" class="st3" width="17.5" height="3.1"/>
	<text transform="matrix(1 0 0 1 69.7878 9.7929)" class="st8 st5 st9">OVERHANG</text>
</g>
<g id="Overhang_top_large">
	<polyline class="st16" points="149.9,17.3 149.9,4.6 68.2,4.6 68.2,8.4 	"/>
	<polygon class="st8" points="68.2,8.3 69.3,8.3 68.7,9.3 68.2,10.2 67.7,9.3 67.2,8.3 	"/>
	<rect x="99.3" y="1.2" class="st3" width="17.5" height="3.1"/>
	<text transform="matrix(1 0 0 1 100.1871 3.2983)" class="st8 st5 st9">OVERHANG</text>
</g>
<g id="Overhang_bottom_small">
	<polyline class="st16" points="87.2,116.6 87.2,123.9 68,123.9 68,116.7 	"/>
	<polygon class="st8" points="68,116.8 69.1,116.8 68.5,115.9 68,114.9 67.5,115.9 67,116.8 	"/>
	<rect x="68.9" y="124.9" class="st3" width="17.5" height="3.1"/>
	<text transform="matrix(1 0 0 1 69.7597 127.0266)" class="st8 st5 st9">OVERHANG</text>
</g>
<g id="Overhang_bottom_large">
	<polyline class="st16" points="146.7,117.4 146.7,131.6 68,131.6 68,126.9 	"/>
	<polygon class="st8" points="68,126.9 69.1,126.9 68.5,126 68,125.1 67.5,126 67,126.9 	"/>
	<rect x="97.4" y="132.9" class="st3" width="17.5" height="3.1"/>
	<text transform="matrix(1 0 0 1 98.2546 134.9886)" class="st8 st5 st9">OVERHANG</text>
</g>
</svg>
