<?xml version="1.0" encoding="utf-8"?>
<!-- Generator: Adobe Illustrator 26.0.2, SVG Export Plug-In . SVG Version: 6.00 Build 0)  -->
<svg version="1.1" xmlns="http://www.w3.org/2000/svg" xmlns:xlink="http://www.w3.org/1999/xlink" x="0px" y="0px"
	 viewBox="0 0 171.9 101.2" style="enable-background:new 0 0 171.9 101.2;" xml:space="preserve">
<style type="text/css">
	.st0{display:none;}
	.st1{fill:#C5A463;}
	.st2{fill:#08212E;}
	.st3{display:inline;}
	.st4{fill:#00A562;}
</style>
<g id="Layer_1" class="st0">
	
		<image style="display:inline;overflow:visible;" width="716" height="920" xlink:href="Screenshot 2025-01-22 at 11.34.27 AM.png"  transform="matrix(0.5 0 0 0.5 -79.1891 -114.6212)">
	</image>
</g>
<g id="red" class="st0">
</g>
<g id="Layer_6">
</g>
<g id="plate">
	<polygon class="st1" points="152.1,2.5 19.6,2.5 27.2,20.5 19.6,38.7 152.1,38.7 144.2,20.6 	"/>
</g>
<g id="since">
	<g>
		<path class="st2" d="M42.5,24.1c1.3,1.3,3.2,2.2,5.2,2.2c1.2,0,2-0.5,2-1.3c0-0.9-1-1.4-2.7-2c-2.8-0.9-6.8-2-6.8-6.8
			c0-3.5,2.7-6.8,7.9-6.8c2.8,0,5.4,0.9,7.3,2.5l-2.8,4.5c-1.4-1.2-3.1-1.7-4.5-1.7c-1.3,0-1.8,0.6-1.8,1.2c0,0.9,0.9,1.3,2.7,1.9
			c2.8,0.9,6.7,2.2,6.7,6.6c0,4.4-3.1,7.1-8,7.1c-3.7,0-6.2-1.1-8.2-2.8L42.5,24.1z"/>
		<path class="st2" d="M61.5,31.2V9.9h6v21.3H61.5z"/>
		<path class="st2" d="M85.9,31.2l-5.7-11v11h-6V9.9h6.1l5.3,10.3V9.9h6v21.3H85.9z"/>
		<path class="st2" d="M95.9,20.5c0-6.6,3.8-11,9.7-11c5,0,7.1,3.3,8.1,6.1l-5,2.1c-0.4-1.7-1.5-2.8-3.1-2.8c-2.2,0-3.5,2.4-3.5,5.7
			s1.3,5.7,3.5,5.7c1.6,0,2.7-1.4,3.1-3l5,2.1c-0.9,2.7-3,6.3-8.1,6.3C99.7,31.6,95.9,27.1,95.9,20.5z"/>
		<path class="st2" d="M117.7,31.2V9.9h13.5V15h-7.4v2.8h7.2V23h-7.2v3.1h7.4v5.2H117.7z"/>
	</g>
</g>
<g id="Layer_5">
	<g>
		<path class="st1" d="M35.6,89.9V59.3l-6.3,6.5l-4.8-5l12.2-12.2h7.3v41.4H35.6z"/>
		<path class="st1" d="M55.6,80c1.7,2.1,3.6,3.2,6.5,3.2c5.2,0,8.2-5.8,8.2-12.4v-0.7c-1.6,2.9-5,5.2-8.8,5.2
			c-6.2,0-11.6-4.6-11.6-13.4c0-8,5.5-14.1,13.6-14.1c10.9,0,15.2,9.9,15.2,21.4c0,12.3-5.9,21.3-16.6,21.3c-4.3,0-8.1-1.7-10.5-4.5
			L55.6,80z M64,55.2c-3.8,0-5.6,3.3-5.6,6.4c0,4.9,2.9,6.7,5.8,6.7c2.7,0,4.8-1.9,6.1-4.2C70,60.2,68.7,55.2,64,55.2z"/>
		<path class="st1" d="M98,47.9c10.3,0,14.6,9.5,14.6,21.3c0,11.7-4.3,21.4-14.6,21.4c-10.2,0-14.6-9.7-14.6-21.4
			C83.4,57.5,87.8,47.9,98,47.9z M98,55.3c-4.8,0-6.1,6-6.1,13.9c0,7.9,1.4,14,6.1,14c4.8,0,6.2-6.1,6.2-14
			C104.2,61.2,102.8,55.3,98,55.3z"/>
		<path class="st1" d="M133.8,47.9c4.4,0,8.2,1.7,10.6,4.5l-4,6.1c-1.6-2.1-3.5-3.2-6.4-3.2c-5.1,0-8.2,5.8-8.2,12.5v0.7
			c1.5-2.9,4.9-5.2,8.8-5.2c6.2,0,11.6,4.6,11.6,13.4c0,8-5.5,14.1-13.6,14.1c-11,0-15.3-9.9-15.3-21.3
			C117.3,56.9,123.2,47.9,133.8,47.9z M131.9,70.2c-2.7,0-4.8,1.9-6.2,4.3c0.3,3.8,1.7,8.9,6.4,8.9c3.8,0,5.6-3.3,5.6-6.4
			C137.7,72,134.9,70.2,131.9,70.2z"/>
	</g>
</g>
<g id="Layer_3" class="st0">
	<g class="st3">
		<circle class="st4" cx="8.5" cy="20.6" r="6.1"/>
		<circle class="st4" cx="163.3" cy="20.6" r="6.1"/>
	</g>
</g>
</svg>
