<?xml version="1.0" encoding="utf-8"?>
<!-- Generator: Adobe Illustrator 26.0.2, SVG Export Plug-In . SVG Version: 6.00 Build 0)  -->
<svg version="1.1" xmlns="http://www.w3.org/2000/svg" xmlns:xlink="http://www.w3.org/1999/xlink" x="0px" y="0px"
	 viewBox="0 0 100 100" style="enable-background:new 0 0 100 100;" xml:space="preserve">
<style type="text/css">
	.st0{fill:#FFFFFF;}
	.st1{fill:#231F20;}
	.st2{fill:none;stroke:#010101;stroke-width:3;stroke-linecap:round;stroke-miterlimit:10;}
	.st3{fill:none;stroke:#010101;stroke-width:3;stroke-linecap:round;stroke-miterlimit:10;stroke-dasharray:2.0105,6.0314;}
</style>
<g id="white">
	<polygon class="st0" points="62.56,1.7 1.36,62.98 11.98,73.18 16.11,71.25 22.52,70.57 27.24,74.2 29.43,78.07 29.35,84.48 
		27.07,87.94 37.36,99.07 98.48,37.27 88.02,26.99 86,28.76 80.35,29.94 74.62,27.91 71.08,23.02 70.49,16.62 73.44,11.47 	"/>
</g>
<g id="Layer_1">
	<g>
		<g>
			<path class="st1" d="M37.32,100c-0.31,0-0.61-0.12-0.85-0.35L25.8,88.98c-0.23-0.22-0.35-0.53-0.35-0.85
				c0-0.32,0.13-0.62,0.35-0.85c3.59-3.59,3.59-9.42,0-13.01c-1.74-1.74-4.05-2.69-6.5-2.69s-4.77,0.96-6.5,2.69
				c-0.45,0.45-1.25,0.45-1.7,0L0.43,63.6c-0.22-0.22-0.35-0.53-0.35-0.85c0-0.32,0.13-0.62,0.35-0.85L61.91,0.43
				c0.45-0.45,1.25-0.45,1.7,0L74.27,11.1c0.22,0.23,0.35,0.53,0.35,0.85c0,0.32-0.13,0.63-0.35,0.85c-1.74,1.74-2.69,4.05-2.69,6.5
				c0,2.46,0.96,4.77,2.69,6.5c1.74,1.74,4.05,2.7,6.51,2.7c2.46,0,4.77-0.96,6.5-2.7c0.47-0.47,1.23-0.47,1.7,0l10.67,10.67
				c0.47,0.47,0.47,1.23,0,1.7L38.17,99.65C37.94,99.88,37.63,100,37.32,100z M28.31,88.09l9.02,9.02L97.1,37.32l-9.02-9.02
				c-2.06,1.68-4.61,2.59-7.31,2.59c-3.1,0-6.01-1.21-8.2-3.4c-2.19-2.19-3.4-5.1-3.4-8.2c0-2.69,0.91-5.25,2.59-7.31l-9.02-9.02
				L2.97,62.76l9.02,9.02c2.06-1.68,4.61-2.59,7.31-2.59c3.1,0,6.01,1.21,8.2,3.4C31.74,76.81,32,83.53,28.31,88.09z"/>
		</g>
		<g>
			<g>
				<line class="st2" x1="53.42" y1="80.98" x2="52.72" y2="80.27"/>
				<line class="st3" x1="48.45" y1="76.01" x2="22.15" y2="49.71"/>
				<line class="st2" x1="20.02" y1="47.57" x2="19.31" y2="46.87"/>
			</g>
		</g>
	</g>
</g>
</svg>
