<?xml version="1.0" encoding="utf-8"?>
<!-- Generator: Adobe Illustrator 26.0.2, SVG Export Plug-In . SVG Version: 6.00 Build 0)  -->
<svg version="1.1" id="Layer_1" xmlns="http://www.w3.org/2000/svg" xmlns:xlink="http://www.w3.org/1999/xlink" x="0px" y="0px"
	 viewBox="0 0 144.5 50.5" style="enable-background:new 0 0 144.5 50.5;" xml:space="preserve">
<style type="text/css">
	.st0{fill:#FFFFFF;}
</style>
<g>
	<g>
		<path class="st0" d="M46.6,46.2H48v-1.5h0.9v1.5h1.4v0.9h-1.4v1.5H48v-1.5h-1.4V46.2z"/>
	</g>
	<g>
		<path class="st0" d="M4.1,49.5v-1.2h1.1v0.8l0.4,0.4h0.7l0.4-0.4v-1.8L6.4,47H5l-0.7-0.7v-2.6l0.8-0.9h1.8l0.9,0.9V45H6.6v-0.8
			l-0.4-0.4H5.6l-0.4,0.4v1.7l0.3,0.3h1.4l0.7,0.7v2.7l-0.8,0.9H5L4.1,49.5z"/>
		<path class="st0" d="M11.1,43h2.7l0.9,0.9v2.9l-0.9,0.9h-1.6v2.8h-1.1C11.1,50.5,11.1,43,11.1,43z M13.1,46.7l0.4-0.4v-2.1
			l-0.4-0.4h-1v2.9H13.1z"/>
		<path class="st0" d="M17.9,49.5v-5.8l0.9-0.9h1.9l0.9,0.9v5.8l-0.9,0.9h-1.9L17.9,49.5z M20.1,49.5l0.4-0.4v-5l-0.4-0.4h-0.7
			L19,44.1v5l0.4,0.4H20.1z"/>
		<path class="st0" d="M25,43h2.8l0.9,0.9v2.6L28,47.2l0.8,3.3h-1.2l-0.7-3.2h-0.8v3.2H25V43z M27.2,46.4l0.4-0.4V44l-0.4-0.4h-1.1
			v2.6h1.1V46.4z"/>
		<path class="st0" d="M33.1,43.9h-1.3v-1h3.6v1h-1.3v6.6H33L33.1,43.9L33.1,43.9z"/>
		<path class="st0" d="M38.7,49.5v-1.2h1.1v0.8l0.4,0.4h0.7l0.4-0.4v-1.8L41,47h-1.4l-0.7-0.7v-2.6l0.8-0.9h1.8l0.9,0.9V45h-1.1
			v-0.8l-0.4-0.4h-0.6l-0.4,0.4v1.7l0.3,0.3h1.4l0.7,0.7v2.7l-0.9,0.9h-1.8L38.7,49.5z"/>
		<path class="st0" d="M54.7,43h3v0.9h-1.9v2.3h1.8v0.9h-1.8v2.4h1.9v1h-3V43z"/>
		<path class="st0" d="M61.1,43H62l1.8,5v-5h1v7.5h-0.9l-1.8-5v5h-1V43z"/>
		<path class="st0" d="M69.3,43.9H68v-1h3.6v1h-1.3v6.6h-1.1L69.3,43.9L69.3,43.9z"/>
		<path class="st0" d="M74.9,43h3v0.9H76v2.3h1.8v0.9H76v2.4h1.9v1h-3V43z"/>
		<path class="st0" d="M81.4,43h2.8l0.9,0.9v2.6l-0.7,0.7l0.8,3.3h-1.1l-0.7-3.2h-0.8v3.2h-1.1V43H81.4z M83.5,46.4l0.4-0.4V44
			l-0.4-0.4h-1.1v2.6h1.1V46.4z"/>
		<path class="st0" d="M89.5,43.9h-1.3v-1h3.6v1h-1.3v6.6h-1.1v-6.6H89.5z"/>
		<path class="st0" d="M95.6,43h1.5l1.2,7.5h-1.1l-0.3-1.9h-1.4l-0.3,1.9h-1L95.6,43z M95.8,47.5h1.1l-0.6-3.9L95.8,47.5z"/>
		<path class="st0" d="M101.5,49.5h0.9v-5.8h-0.9V43h2.8v0.8h-0.9v5.8h0.9v0.9h-2.8V49.5z"/>
		<path class="st0" d="M107.7,43h0.9l1.8,5v-5h1v7.5h-0.9l-1.8-5v5h-1V43z"/>
		<path class="st0" d="M114.9,43h1.7l1,6.4l1-6.4h1.7v7.5h-1v-6.6l-1.1,6.6H117l-1.1-6.6v6.6H115L114.9,43L114.9,43z"/>
		<path class="st0" d="M123.7,43h3v0.9h-1.9v2.3h1.8v0.9h-1.8v2.4h1.9v1h-3V43z"/>
		<path class="st0" d="M130.2,43h0.9l1.8,5v-5h1v7.5H133l-1.8-5v5h-1V43z"/>
		<path class="st0" d="M138.4,43.9h-1.3v-1h3.6v1h-1.3v6.6h-1.1v-6.6H138.4z"/>
	</g>
</g>
<g>
	<polygon class="st0" points="144.5,38 0.4,38 0.4,37.2 144.5,37.2 	"/>
</g>
<g>
	<g>
		<path class="st0" d="M18.5,8.4c0-0.4,0.1-0.7,0.1-1.1H0C0,7.6,0.1,8,0.1,8.4S0,9.1,0,9.5c2.1-0.2,4.3-0.4,7.9-0.4v23.1
			c0.5,0,1-0.1,1.6-0.1c0.5,0,1,0.1,1.6,0.1V9.1c3.2,0,5.7,0.2,7.6,0.4C18.6,9.1,18.5,8.8,18.5,8.4z"/>
		<path class="st0" d="M18.8,17.9l-0.2,0.5v-3.6c-0.5,0-1,0.1-1.4,0.1c-0.5,0-1-0.1-1.4-0.1V32c0.5,0,0.9-0.1,1.4-0.1
			s0.9,0.1,1.4,0.1v-9.4c0-2,0.1-3.1,1.3-4.6c0.5-0.6,1.5-0.9,2.3-0.9c0.6,0,1.2,0.4,1.7,0.6l0.5-3c-0.3-0.1-0.6-0.2-1.1-0.2
			C21.5,14.5,20,16.1,18.8,17.9z"/>
		<path class="st0" d="M38.3,14.8v10c0,2.6-0.8,5.8-4.4,5.8c-3.3,0-4.4-2.2-4.4-6v-9.8c-0.5,0-1,0.1-1.4,0.1c-0.5,0-1-0.1-1.4-0.1
			v10.6c0,4.9,2,6.9,6,6.9c2.5,0,4.6-1.2,5.7-3.4V32c0.5,0,0.9-0.1,1.4-0.1s0.9,0.1,1.4,0.1V14.8c-0.5,0-1,0.1-1.4,0.1
			C39.2,14.9,38.7,14.8,38.3,14.8z"/>
		<path class="st0" d="M51.5,14.5c-5.4,0-8.3,3.9-8.3,8.9c0,5.6,3.5,8.9,8.5,8.9c2.2,0,4.4-0.9,6.2-2.1v-1.9c-1,0.9-2.9,2.5-5.3,2.5
			c-4.4,0-6.6-3.5-6.3-7.5h5.1c2.4,0,4.9,0,7.3,0.1C59.2,17.4,55.5,14.5,51.5,14.5z M46.4,22c0.2-3,1.7-6.3,5.1-6.3
			c3.6,0,4.4,3.1,4.5,6.3H46.4z"/>
		<path class="st0" d="M80.7,7.2v18.6h-0.4L63.2,7.2h-1.4V32c0.3,0,0.7-0.1,1-0.1s0.7,0.1,1,0.1V12.6h0.4l15.6,17.3
			c0.8,0.8,1.5,1.7,1.9,2.2h1.1V7.2c-0.4,0-0.7,0.1-1,0.1C81.4,7.4,81.1,7.4,80.7,7.2z"/>
		<path class="st0" d="M94.3,14.5c-5.2,0-9.2,3.5-9.2,8.7c-0.3,5.5,3.7,9.1,8.5,9.1c6,0,9-4.4,9-9C102.7,18,99.3,14.5,94.3,14.5z
			 M94,31.2c-4.1,0-5.6-3.8-5.6-7.4c0-3.8,1.4-8.1,6-8.1c4,0,5.2,4.3,5.2,7.5C99.5,26,98.2,31.2,94,31.2z"/>
		<path class="st0" d="M107.8,17.9l-0.2,0.4v-3.6c-0.5,0-1,0.1-1.4,0.1c-0.5,0-1-0.1-1.4-0.1V32c0.5,0,0.9-0.1,1.4-0.1
			s0.9,0.1,1.4,0.1v-9.4c0-2,0.1-3.1,1.3-4.6c0.5-0.6,1.5-0.9,2.3-0.9c0.6,0,1.2,0.4,1.7,0.6l0.5-3c-0.3-0.1-0.6-0.2-1.1-0.2
			C110.6,14.5,109,16.1,107.8,17.9z"/>
		<path class="st0" d="M119.7,25.2v-9.1h3.8c-0.1-0.4-0.1-0.9,0-1.4h-3.8V10l-2.9,1.1v3.6h-4.1c0.1,0.5,0.1,0.9,0,1.4h4.1v10.5
			c-0.2,4.4,1.4,5.7,4.2,5.7c1,0,2.1-0.3,3-0.7v-0.9c-0.5,0.1-1.1,0.3-1.6,0.3C119.4,31,119.7,27.4,119.7,25.2z"/>
		<path class="st0" d="M133.8,14.5c-2.6,0-4.6,1.3-5.8,3.5V4.9c-0.5,0-1,0.1-1.4,0.1c-0.5,0-1-0.1-1.4-0.1V32c0.5,0,0.9-0.1,1.4-0.1
			s0.9,0.1,1.4,0.1v-9.8c0-3.8,1.5-5.8,4.7-5.8c3.1,0,4,2,4,6V32c0.5,0,0.9-0.1,1.4-0.1s0.9,0.1,1.4,0.1V21.6
			C139.6,17,138,14.5,133.8,14.5z"/>
	</g>
	<polygon class="st0" points="73.3,8.5 81.8,0 90.3,8.5 81.8,3.6 	"/>
</g>
</svg>
