<svg width="16" height="12" viewBox="0 0 16 12" fill="none" xmlns="http://www.w3.org/2000/svg">
<path d="M13.775 0.18144C13.5398 -0.06048 13.1792 -0.06048 12.944 0.18144C12.7088 0.42336 12.7088 0.794304 12.944 1.03622C15.3901 3.55219 15.3901 7.6487 12.944 10.1647C12.7088 10.4066 12.7088 10.7775 12.944 11.0195C13.0537 11.1324 13.2105 11.1969 13.3673 11.1969C13.5241 11.1969 13.6653 11.1324 13.775 11.0195C16.6758 8.03578 16.6758 3.16512 13.775 0.18144Z" fill="#0F0F30"/>
<path d="M11.7721 2.1652C11.5369 1.92328 11.1762 1.92328 10.941 2.1652C10.7058 2.40712 10.7058 2.77807 10.941 3.01999C11.6153 3.71349 11.9759 4.61666 11.9759 5.60047C11.9759 6.56815 11.6153 7.48744 10.941 8.16482C10.7058 8.40674 10.7058 8.77768 10.941 9.0196C11.0508 9.1325 11.2076 9.19701 11.3644 9.19701C11.5212 9.19701 11.6623 9.1325 11.7721 9.0196C12.6658 8.11644 13.1676 6.89071 13.1519 5.60047C13.1519 4.31023 12.6658 3.0845 11.7721 2.1652Z" fill="#0F0F30"/>
<path d="M3.00664 1.03622C3.24184 0.794304 3.24184 0.42336 3.00664 0.18144C2.77144 -0.06048 2.4108 -0.06048 2.1756 0.18144C-0.7252 3.16512 -0.7252 8.03578 2.1756 11.0195C2.28536 11.1324 2.44216 11.1969 2.58328 11.1969C2.74008 11.1969 2.8812 11.1324 3.00664 11.0195C3.24184 10.7775 3.24184 10.4066 3.00664 10.1647C0.56056 7.6487 0.56056 3.55219 3.00664 1.03622Z" fill="#0F0F30"/>
<path d="M4.98528 3.0361C5.22048 2.79418 5.22048 2.42324 4.98528 2.18132C4.75008 1.9394 4.38944 1.9394 4.15424 2.18132C2.31968 4.06829 2.31968 7.13261 4.16992 9.03572C4.27968 9.14861 4.43648 9.21313 4.59328 9.21313C4.75008 9.21313 4.8912 9.14861 5.00096 9.03572C5.23616 8.7938 5.23616 8.42285 5.00096 8.18093C3.62112 6.76167 3.60544 4.45537 4.98528 3.0361Z" fill="#0F0F30"/>
<path d="M7.98224 7.13388C8.81974 7.13388 9.49866 6.44283 9.49866 5.59037C9.49866 4.73792 8.81974 4.04688 7.98224 4.04688C7.14475 4.04688 6.46582 4.73792 6.46582 5.59037C6.46582 6.44283 7.14475 7.13388 7.98224 7.13388Z" stroke="#0F0F30" stroke-width="1.1025"/>
</svg>
